SplineFontDB: 3.2
FontName: BabelStoneHanHentaigana
FullName: BabelStoneHanHentaigana
FamilyName: BabelStoneHanHentaigana
Weight: Book
Copyright: (c) Copyright 1994-1999, Arphic Technology Co., Ltd.; (c) Copyright 2009-2024, Andrew West.
UComments: "2024-6-22: Created with FontForge (http://fontforge.org)"
Version: 15.1.4; March 15, 2024
ItalicAngle: 0
UnderlinePosition: 209.92
UnderlineWidth: 49.152
Ascent: 819
Descent: 205
InvalidEm: 0
sfntRevision: 0x000f1aa0
LayerCount: 2
Layer: 0 1 "Back" 1
Layer: 1 1 "Fore" 0
XUID: [1021 823 -249760749 10871117]
StyleMap: 0x0040
FSType: 0
OS2Version: 4
OS2_WeightWidthSlopeOnly: 1
OS2_UseTypoMetrics: 1
CreationTime: 1719086480
ModificationTime: 1719086765
PfmFamily: 17
TTFWeight: 400
TTFWidth: 5
LineGap: 94
VLineGap: 0
OS2TypoAscent: 0
OS2TypoAOffset: 1
OS2TypoDescent: 0
OS2TypoDOffset: 1
OS2TypoLinegap: 94
OS2WinAscent: 0
OS2WinAOffset: 1
OS2WinDescent: 0
OS2WinDOffset: 1
HheadAscent: 0
HheadAOffset: 1
HheadDescent: 0
HheadDOffset: 1
OS2FamilyClass: 256
OS2Vendor: 'ACW '
MarkAttachClasses: 1
DEI: 91125
LangName: 1033
Encoding: Custom
UnicodeInterp: none
NameList: AGL For New Fonts
DisplaySize: -48
AntiAlias: 1
FitToEm: 0
WinInfo: 78 26 9
BeginPrivate: 0
EndPrivate
BeginChars: 291 291

StartChar: u1B000
Encoding: 0 110592 0
Width: 1048
VWidth: 1048
Flags: W
LayerCount: 2
Fore
SplineSet
729 639 m 256,1,2
 745 648 745 648 767 629 c 0,3,4
 788 611 788 611 797 585 c 0,5,6
 806 561 806 561 786 550 c 0,7,8
 775 544 775 544 753 490 c 0,9,10
 710 394 710 394 648 300 c 1,11,-1
 618 260 l 1,12,13
 469.5 75.5 469.5 75.5 258 8 c 1,14,-1
 250 26 l 1,15,16
 294 46 294 46 360 84 c 1,17,18
 482 164 482 164 584 287 c 1,19,-1
 609 326 l 2,20,21
 679 434 679 434 720 550 c 0,22,23
 725 574 725 574 718 581 c 0,24,25
 709 590 709 590 674 584 c 0,26,27
 530 569 530 569 447 522 c 0,28,29
 419 506 419 506 400 521 c 0,30,31
 372 538 372 538 348 593 c 1,32,-1
 364 604 l 1,33,34
 393 569 393 569 447 581 c 0,35,36
 604 620 604 620 689 629 c 0,37,0
 715 631 715 631 729 639 c 256,1,2
608 724 m 0,39,40
 627 706 627 706 629 683 c 0,41,42
 627 664 627 664 622 659 c 0,43,44
 614.5 651.5 614.5 651.5 604 656 c 256,45,46
 593 661 593 661 572 683 c 0,47,48
 527 733 527 733 462 771 c 1,49,-1
 470 787 l 1,50,38
 573.5 754 573.5 754 608 724 c 0,39,40
EndSplineSet
EndChar

StartChar: u1B001
Encoding: 1 110593 1
Width: 1048
VWidth: 1048
Flags: W
LayerCount: 2
Fore
SplineSet
266 768 m 1,0,1
 358 702 358 702 358 651 c 0,2,3
 358 588 358 588 217 502 c 1,4,-1
 215 498 l 1,5,6
 215 489 215 489 258 440 c 1,7,8
 262 421 262 421 262 412 c 0,9,10
 253 337 253 337 248 225 c 0,11,12
 250 205 250 205 250 182 c 2,13,-1
 250 176 l 1,14,-1
 252 166 l 1,15,-1
 254 166 l 2,16,17
 257 166 257 166 319 276 c 0,18,19
 361 346 361 346 467 457 c 1,20,21
 622 600 622 600 758 600 c 0,22,23
 834 600 834 600 834 524 c 0,24,25
 834 428 834 428 604 160 c 1,26,-1
 604 156 l 1,27,-1
 606 156 l 1,28,29
 696 168 696 168 745 168 c 2,30,-1
 750 168 l 1,31,32
 864 160 864 160 864 125 c 1,33,34
 866 125 866 125 866 119 c 0,35,36
 866 96 866 96 838 96 c 1,37,38
 764 119 764 119 707 119 c 0,39,40
 644 119 644 119 563 100 c 0,41,42
 552 100 552 100 551 121 c 2,43,-1
 551 125 l 2,44,45
 551 155 551 155 580 176 c 1,46,47
 764 418 764 418 764 526 c 2,48,-1
 764 530 l 2,49,50
 764 563 764 563 719 563 c 0,51,52
 606 563 606 563 440 377 c 1,53,54
 308 209 308 209 283 98 c 0,55,56
 271 27 271 27 242 27 c 0,57,58
 197 27 197 27 197 193 c 0,59,60
 197 244 197 244 215 420 c 0,61,62
 215 455 215 455 184 492 c 1,63,64
 184 492 184 492 182 498 c 0,65,66
 182 507 182 507 258 573 c 1,67,68
 293 620 293 620 293 653 c 0,69,70
 293 706 293 706 246 756 c 1,71,72
 255 768 255 768 266 768 c 1,0,1
EndSplineSet
EndChar

StartChar: u1B002
Encoding: 2 110594 2
Width: 1048
VWidth: 1048
Flags: W
LayerCount: 2
Fore
SplineSet
358 802 m 0,0,1
 449 790 449 790 449 777 c 1,2,3
 459 777 459 777 469 751 c 1,4,-1
 444 677 l 1,5,-1
 446 677 l 1,6,7
 607 742 607 742 682 742 c 2,8,-1
 696 742 l 1,9,10
 795 728 795 728 795 677 c 1,11,12
 797 677 797 677 797 665 c 0,13,14
 797 591 797 591 674 570 c 0,15,16
 658 568 658 568 641 568 c 0,17,18
 600 568 600 568 565 595 c 1,19,-1
 565 597 l 1,20,21
 572 615 572 615 575 615 c 0,22,23
 599 601 599 601 627 601 c 0,24,25
 731 611 731 611 731 652 c 2,26,-1
 731 671 l 2,27,28
 731 710 731 710 680 710 c 0,29,30
 589 710 589 710 430 632 c 1,31,32
 397 533 397 533 397 437 c 1,33,-1
 399 437 l 1,34,35
 465 468 465 468 547 490 c 1,36,37
 554 523 554 523 563 523 c 1,38,39
 576 515 576 515 580 515 c 1,40,41
 580 513 580 513 575 495 c 1,42,-1
 578 495 l 1,43,44
 641 501 641 501 645 501 c 0,45,46
 817 501 817 501 874 378 c 0,47,48
 883 351 883 351 887 310 c 1,49,50
 887 95 887 95 541 -7 c 1,51,-1
 539 -7 l 2,52,53
 535 -7 535 -7 524 13 c 1,54,-1
 524 15 l 2,55,56
 524 17 524 17 594 44 c 1,57,58
 707 98 707 98 774 169 c 1,59,60
 819 228 819 228 819 302 c 2,61,-1
 819 321 l 2,62,63
 819 430 819 430 684 464 c 0,64,65
 657 468 657 468 639 468 c 0,66,67
 567 468 567 468 567 456 c 0,68,69
 547 309 547 309 547 204 c 2,70,-1
 547 155 l 2,71,72
 547 150 547 150 549 126 c 1,73,74
 538 81 538 81 506 81 c 2,75,-1
 504 81 l 2,76,77
 444 81 444 81 391 151 c 1,78,79
 299 71 299 71 260 71 c 2,80,-1
 254 71 l 2,81,82
 229 71 229 71 186 148 c 1,83,84
 162 172 162 172 162 202 c 0,85,86
 162 260.5 162 260.5 297 370 c 0,87,88
 350 408 350 408 350 415 c 0,89,90
 356 498 356 498 373 603 c 1,91,-1
 373 605 l 1,92,-1
 371 605 l 1,93,94
 319 585 319 585 266 536 c 1,95,96
 254 531 254 531 252 531 c 0,97,98
 219 531 219 531 199 585 c 0,99,100
 197 595 197 595 197 601 c 2,101,-1
 197 617 l 2,102,103
 197 656 197 656 223 714 c 1,104,105
 232 714 232 714 246 703 c 1,106,107
 236 664 236 664 236 630 c 0,108,109
 239 601 239 601 248 601 c 2,110,-1
 256 601 l 2,111,112
 272 601 272 601 385 656 c 1,113,114
 397 719 397 719 397 730 c 2,115,-1
 397 738 l 2,116,117
 397 771 397 771 346 777 c 1,118,-1
 346 779 l 1,119,120
 352 802 352 802 358 802 c 0,0,1
393 392 m 1,121,122
 398 299 398 299 408 245 c 1,123,-1
 410 245 l 1,124,125
 459 307 459 307 500 388 c 0,126,127
 526 443 526 443 526 450 c 2,128,-1
 526 452 l 1,129,130
 495 452 495 452 393 394 c 1,131,-1
 393 392 l 1,121,122
426 187 m 0,132,133
 457.5 136 457.5 136 492 136 c 2,134,-1
 494 136 l 2,135,136
 506 136 506 136 518 271 c 0,137,138
 519 271 519 271 530 366 c 1,139,140
 528 366 528 366 477 267 c 1,141,142
 426 192 426 192 426 187 c 0,132,133
221 187 m 2,143,-1
 221 169 l 1,144,145
 225 132 225 132 256 132 c 2,146,-1
 272 132 l 2,147,148
 308 132 308 132 371 198 c 1,149,-1
 371 200 l 1,150,151
 352 276 352 276 352 357 c 2,152,-1
 352 364 l 1,153,-1
 348 364 l 1,154,155
 221 265 221 265 221 187 c 2,143,-1
EndSplineSet
EndChar

StartChar: u1B003
Encoding: 3 110595 3
Width: 1048
VWidth: 1048
Flags: W
LayerCount: 2
Fore
SplineSet
459 815 m 1,0,1
 465 813 465 813 465 813 c 1,2,3
 567 813 567 813 567 764 c 1,4,5
 561 720 561 720 561 698 c 2,6,-1
 561 684 l 1,7,8
 565 684 565 684 565 682 c 1,9,10
 644 702 644 702 688 725 c 1,11,-1
 692 725 l 2,12,13
 713 725 713 725 719 696 c 1,14,15
 719 664 719 664 557 635 c 1,16,-1
 557 563 l 1,17,18
 675 600 675 600 733 600 c 0,19,20
 850 600 850 600 868 526 c 1,21,-1
 868 518 l 2,22,23
 868 440 868 440 623 322 c 1,24,25
 532 273 532 273 532 229 c 0,26,27
 532 195 532 195 586 176 c 1,28,29
 597 165 597 165 600 152 c 0,30,31
 600 128 600 128 543 104 c 1,32,33
 514 81 514 81 514 61 c 2,34,-1
 514 59 l 1,35,36
 533 37 533 37 573 37 c 2,37,-1
 614 37 l 2,38,39
 619 37 619 37 647 39 c 1,40,41
 686 31.5 686 31.5 686 6 c 0,42,43
 686 -20 686 -20 612 -20 c 1,44,45
 471 -8 471 -8 471 49 c 2,46,-1
 471 51 l 2,47,48
 471 91 471 91 532 143 c 1,49,-1
 532 145 l 1,50,51
 489 179 489 179 489 215 c 0,52,53
 490 247 490 247 526 287 c 1,54,-1
 526 291 l 1,55,56
 510 291 510 291 489 324 c 1,57,58
 356 420 356 420 334 420 c 1,59,60
 297 407 297 407 231 334 c 0,61,62
 227.039809821 333.434258546 227.039809821 333.434258546 222 332.483848767 c 0,63,64
 219.434258546 332 219.434258546 332 219 332 c 0,65,66
 180 345.5 180 345.5 180 389 c 2,67,-1
 180 399 l 2,68,69
 180 458 180 458 233 535 c 1,70,71
 244 535 244 535 252 524 c 1,72,73
 229 470 229 470 229 444 c 2,74,-1
 229 416 l 2,75,76
 230 412 230 412 233 412 c 2,77,-1
 236 412 l 2,78,79
 247 412 247 412 344 467 c 0,80,81
 417.5 506 417.5 506 512 545 c 1,82,-1
 512 629 l 1,83,-1
 496 629 l 2,84,85
 399 629 399 629 356 684 c 1,86,87
 356 684 356 684 369 702 c 1,88,89
 414 672 414 672 461 672 c 2,90,-1
 489 672 l 1,91,-1
 514 674 l 1,92,-1
 514 725 l 2,93,94
 514 772 514 772 469 786 c 0,95,96
 463 788 463 788 458.5 789.5 c 128,-1,97
 454 791 454 791 451.5 792 c 2,98,-1
 449 793 l 1,99,100
 449 808 449 808 459 815 c 1,0,1
555 377 m 2,101,102
 555 370 555 370 557 324 c 0,103,104
 555 320 555 320 555 313 c 1,105,106
 608 338 608 338 692 397 c 0,107,108
 797 474 797 474 797 510 c 2,109,-1
 797 526 l 2,110,111
 797 565 797 565 739 571 c 1,112,-1
 715 571 l 2,113,114
 657 571 657 571 555 528 c 1,115,-1
 555 377 l 2,101,102
360 436 m 1,116,117
 363 434 363 434 508 371 c 1,118,-1
 510 371 l 1,119,-1
 510 475 l 2,120,121
 510 478 510 478 512 510 c 1,122,123
 463 500 463 500 360 436 c 1,116,117
EndSplineSet
EndChar

StartChar: u1B004
Encoding: 4 110596 4
Width: 1048
VWidth: 1048
Flags: W
LayerCount: 2
Fore
SplineSet
568 801 m 1,0,1
 594 753 594 753 675 723 c 0,2,3
 702 713 702 713 792 705 c 1,4,5
 814 690 814 690 814 678 c 0,6,7
 814 647 814 647 773 647 c 0,8,9
 677 647 677 647 587 731 c 0,10,11
 548 772 548 772 546 788 c 1,12,13
 562 801 562 801 568 801 c 1,0,1
198 774 m 1,14,15
 219 727 219 727 269 727 c 2,16,-1
 280 727 l 2,17,18
 285 727 285 727 329 743 c 1,19,20
 368 726 368 726 368 707 c 0,21,22
 368 701 368 701 325 631 c 1,23,24
 253 482 253 482 253 291 c 2,25,-1
 253 289 l 2,26,27
 253 229 253 229 263 123 c 0,28,29
 263 93 263 93 241 86 c 1,30,31
 206 86 206 86 200 180 c 1,32,-1
 200 201 l 2,33,34
 200 446 200 446 288 682 c 1,35,-1
 286 682 l 2,36,37
 266 680 266 680 263 680 c 0,38,39
 207 680 207 680 177 760 c 1,40,41
 185 774 185 774 198 774 c 1,14,15
663 477 m 0,42,43
 814 477 814 477 865 362 c 1,44,45
 871 327 871 327 871 319 c 2,46,-1
 871 313 l 2,47,48
 871 118 871 118 513 -6 c 1,49,50
 513 -6 513 -6 497 16 c 1,51,-1
 497 23 l 1,52,53
 808 137 808 137 808 315 c 0,54,55
 808 444 808 444 658 444 c 1,56,57
 646 386 646 386 626 344 c 1,58,59
 556 242 556 242 495 242 c 0,60,61
 468 242 468 242 441 324 c 1,62,63
 415 360 415 360 415 377 c 0,64,65
 415 430 415 430 585 471 c 0,66,67
 615 475.5 615 475.5 663 477 c 0,42,43
468 354 m 0,68,69
 474 297 474 297 509 297 c 2,70,-1
 513 297 l 2,71,72
 552 297 552 297 605 389 c 1,73,74
 620 431 620 431 620 442 c 1,75,-1
 617 442 l 1,76,77
 532 427 532 427 488 389 c 0,78,79
 468 372 468 372 468 354 c 0,68,69
EndSplineSet
EndChar

StartChar: u1B005
Encoding: 5 110597 5
Width: 1048
VWidth: 1048
Flags: W
LayerCount: 2
Fore
SplineSet
463 804 m 1,0,-1
 469 804 l 1,1,2
 494 758 494 758 551 738 c 1,3,4
 621 721 621 721 631 714 c 0,5,6
 647 699 647 699 647 681 c 0,7,8
 647 660 647 660 586 660 c 0,9,10
 548 660 548 660 471 636 c 1,11,12
 461 649 461 649 461 656 c 1,13,14
 483 667 483 667 537 687 c 1,15,-1
 537 693 l 1,16,17
 492 708 492 708 457 763 c 0,18,19
 444 787 444 787 444 792 c 1,20,-1
 463 804 l 1,0,-1
358 605 m 1,21,-1
 360 605 l 1,22,23
 360 604 360 604 369 591 c 1,24,-1
 369 587 l 1,25,26
 332 572 332 572 332 542 c 0,27,28
 332 515 332 515 381 515 c 2,29,-1
 387 515 l 2,30,31
 430 515 430 515 477 544 c 1,32,-1
 483 544 l 1,33,34
 530 529 530 529 530 507 c 2,35,-1
 530 505 l 2,36,37
 530 495 530 495 483 456 c 0,38,39
 473 445 473 445 473 435 c 2,40,-1
 473 427 l 2,41,42
 473 415 473 415 524 409 c 1,43,44
 553 410 553 410 573 413 c 0,45,46
 605 413 605 413 623 355 c 1,47,48
 623 324 623 324 541 306 c 1,49,50
 426 258 426 258 297 171 c 0,51,52
 250 140 250 140 223 116 c 1,53,-1
 227 116 l 1,54,55
 322 169 322 169 375 169 c 0,56,57
 443 169 443 169 512 112 c 1,58,-1
 522 112 l 1,59,60
 613 206 613 206 707 206 c 2,61,-1
 709 206 l 2,62,63
 809.5 206 809.5 206 901 83 c 0,64,65
 922 53 922 53 922 28 c 0,66,67
 918 -9 918 -9 895 -9 c 2,68,-1
 891 -9 l 2,69,70
 873 -9 873 -9 834 73 c 1,71,72
 768 175 768 175 709 175 c 0,73,74
 606 175 606 175 532 34 c 1,75,76
 522 28 522 28 512 28 c 0,77,78
 492 28 492 28 455 93 c 1,79,80
 417.5 138 417.5 138 365 138 c 0,81,82
 294 138 294 138 162 -1 c 1,83,84
 154 -3 154 -3 154 -5 c 1,85,86
 130 -5 130 -5 127 52 c 0,87,88
 127 83.5 127 83.5 199 130 c 1,89,90
 363 258 363 258 543 359 c 1,91,-1
 543 364 l 1,92,93
 446 369 446 369 434 415 c 0,94,95
 434 419 434 419 433.5 423 c 128,-1,96
 433 427 433 427 432.5 429 c 2,97,-1
 432 431 l 2,98,99
 432 444 432 444 446 480 c 1,100,-1
 446 482 l 1,101,-1
 444 482 l 1,102,103
 392 468 392 468 365 468 c 2,104,-1
 352 468 l 1,105,106
 279 477 279 477 279 525 c 0,107,108
 279 574 279 574 358 605 c 1,21,-1
EndSplineSet
EndChar

StartChar: u1B006
Encoding: 6 110598 6
Width: 1048
VWidth: 1048
Flags: W
LayerCount: 2
Fore
SplineSet
715 723 m 0,0,1
 764 723 764 723 776 657 c 1,2,3
 776 588 776 588 745 360 c 1,4,5
 748 352 748 352 752 352 c 2,6,-1
 786 352 l 2,7,8
 878 352 878 352 903 293 c 0,9,10
 907 286 907 286 907 270 c 2,11,-1
 907 268 l 2,12,13
 907 152 907 152 535 72 c 0,14,15
 524 72 524 72 520 98 c 1,16,17
 842 190 842 190 842 266 c 2,18,-1
 842 281 l 1,19,20
 836 322 836 322 799 322 c 2,21,-1
 780 322 l 2,22,23
 760 322 760 322 711 299 c 1,24,25
 684 308 684 308 684 336 c 1,26,27
 717 535.5 717 535.5 717 633 c 2,28,-1
 717 666 l 2,29,30
 717 678 717 678 705 684 c 1,31,-1
 694 684 l 2,32,33
 619 684 619 684 487 442 c 0,34,35
 418 313 418 313 418 262 c 0,36,37
 418 227 418 227 383 227 c 0,38,39
 350 227 350 227 303 344 c 1,40,41
 298 375 298 375 291 375 c 2,42,-1
 289 375 l 1,43,44
 247 339 247 339 217 274 c 1,45,46
 204 260 204 260 188 260 c 0,47,48
 156 260 156 260 141 334 c 1,49,-1
 143 338 l 1,50,-1
 143 340 l 2,51,52
 143 433 143 433 231 524 c 1,53,54
 248 516 248 516 248 510 c 0,55,56
 199 439 199 439 199 379 c 2,57,-1
 199 354 l 2,58,59
 200.5 342 200.5 342 205 342 c 2,60,-1
 209 342 l 1,61,62
 273 414 273 414 303 418 c 0,63,64
 330 418 330 418 354 348 c 1,65,66
 368 331 368 331 377 322 c 1,67,68
 384 322 384 322 424 412 c 1,69,70
 476 514 476 514 571 629 c 1,71,72
 661 723 661 723 715 723 c 0,0,1
EndSplineSet
EndChar

StartChar: u1B007
Encoding: 7 110599 7
Width: 1048
VWidth: 1048
Flags: W
LayerCount: 2
Fore
SplineSet
745 795 m 1,0,1
 823 786 823 786 823 748 c 0,2,3
 823 727 823 727 782 727 c 1,4,5
 752 720 752 720 678 672 c 1,6,-1
 674 672 l 2,7,8
 671 672 671 672 662 684 c 1,9,10
 692 703 692 703 719 733 c 1,11,-1
 719 737 l 2,12,13
 719 743 719 743 696 745 c 0,14,15
 646 745 646 745 563 705 c 1,16,17
 553 716 553 716 553 721 c 1,18,19
 654 795 654 795 745 795 c 1,0,1
342 780 m 1,20,21
 354 750 354 750 354 717 c 0,22,23
 354 620 354 620 223 453 c 1,24,25
 221 443 221 443 221 438 c 0,26,27
 221 434 221 434 260 395 c 1,28,29
 287 362 287 362 287 305 c 0,30,31
 283 217 283 217 283 190 c 1,32,-1
 289 190 l 1,33,34
 315 247 315 247 362 324 c 1,35,-1
 365 324 l 1,36,37
 375 320 375 320 375 313 c 0,38,39
 293 131 293 131 293 88 c 0,40,41
 293 49 293 49 266 49 c 0,42,43
 236 49 236 49 227 104 c 1,44,45
 238 220 238 220 238 301 c 0,46,47
 238 409 238 409 203 424 c 1,48,49
 175 450 175 450 174 467 c 0,50,51
 174 492 174 492 256 584 c 1,52,53
 326 681 326 681 326 776 c 1,54,55
 335 780 335 780 342 780 c 1,20,21
711 621 m 0,56,57
 764 613 764 613 764 586 c 0,58,59
 764 570 764 570 711 541 c 1,60,61
 588 404 588 404 588 365 c 0,62,63
 588 361 588 361 594 358 c 2,64,-1
 614 358 l 2,65,66
 654.5 358 654.5 358 698 379 c 1,67,-1
 698 381 l 2,68,69
 698 476 698 476 731 500 c 0,70,71
 741 507 741 507 760 512 c 1,72,73
 776 512 776 512 825 473 c 1,74,75
 874 461 874 461 874 438 c 0,76,77
 874 396 874 396 760 352 c 0,78,79
 752 349 752 349 752 346 c 2,80,-1
 752 344 l 2,81,82
 752 120 752 120 604 29 c 0,83,84
 604 25 604 25 561 0 c 1,85,-1
 547 16 l 1,86,87
 646 85 646 85 680 186 c 1,88,89
 696 257 696 257 696 328 c 1,90,-1
 694 328 l 1,91,92
 613 305 613 305 588 305 c 0,93,94
 551 306 551 306 551 340 c 0,95,96
 553 397 553 397 688 561 c 1,97,-1
 688 565 l 1,98,99
 613 530 613 530 567 530 c 2,100,-1
 565 530 l 1,101,102
 497 535 497 535 485 569 c 1,103,-1
 485 571 l 1,104,105
 490 582 490 582 496 582 c 0,106,107
 516 569 516 569 561 569 c 0,108,109
 611 569 611 569 680 614 c 1,110,111
 699 621 699 621 711 621 c 0,56,57
754 406 m 2,112,-1
 754 397 l 1,113,-1
 756 397 l 1,114,115
 786 403 786 403 825 442 c 1,116,-1
 825 451 l 1,117,118
 789 483 789 483 770 483 c 0,119,120
 754 483 754 483 754 406 c 2,112,-1
EndSplineSet
EndChar

StartChar: u1B008
Encoding: 8 110600 8
Width: 1048
VWidth: 1048
Flags: W
LayerCount: 2
Fore
SplineSet
430 813 m 1,0,-1
 432 813 l 1,1,2
 471 772 471 772 565 772 c 2,3,-1
 584 772 l 2,4,5
 586 772 586 772 606 774 c 1,6,7
 651 760 651 760 651 731 c 0,8,9
 651 704 651 704 528 696 c 1,10,11
 440 681 440 681 438 678 c 0,12,13
 433 678 433 678 424 694 c 1,14,15
 450 709 450 709 539 729 c 1,16,-1
 539 731 l 1,17,18
 475 743 475 743 449 766 c 0,19,20
 424 793 424 793 420 799 c 1,21,-1
 420 803 l 2,22,23
 420 806 420 806 430 813 c 1,0,-1
352 668 m 1,24,-1
 358 657 l 1,25,-1
 358 655 l 1,26,27
 344 641 344 641 344 631 c 2,28,-1
 344 618 l 1,29,30
 353 596 353 596 416 596 c 2,31,-1
 453 596 l 2,32,33
 558 596 558 596 694 662 c 0,34,35
 701 662 701 662 705 664 c 0,36,37
 748 652 748 652 748 641 c 2,38,-1
 748 629 l 2,39,40
 748 604 748 604 612 571 c 0,41,42
 502 547 502 547 440 547 c 2,43,-1
 438 547 l 2,44,45
 328 547 328 547 305 594 c 0,46,47
 301 601 301 601 301 610 c 2,48,-1
 301 612 l 2,49,50
 301 651 301 651 348 668 c 1,51,-1
 352 668 l 1,24,-1
442 510 m 1,52,53
 454 510 454 510 457 502 c 1,54,55
 440 485 440 485 440 473 c 0,56,57
 440 457 440 457 475 455 c 2,58,-1
 477 455 l 2,59,60
 523 455 523 455 580 475 c 1,61,-1
 582 475 l 2,62,63
 600 475 600 475 610 453 c 1,64,65
 608.5 438 608.5 438 559 414 c 1,66,67
 520 387 520 387 520 358 c 0,68,69
 520 341 520 341 635 317 c 1,70,71
 705 293 705 293 705 262 c 1,72,73
 699 223 699 223 674 223 c 0,74,75
 621 231 621 231 573 231 c 0,76,77
 409 231 409 231 303 139 c 0,78,79
 285 120 285 120 285 104 c 2,80,-1
 285 96 l 2,81,82
 285 48 285 48 504 39 c 1,83,84
 629 39 629 39 764 70 c 1,85,-1
 770 70 l 2,86,87
 795 70 795 70 803 51 c 1,88,89
 803 -18 803 -18 516 -18 c 0,90,91
 315 -18 315 -18 256 57 c 0,92,93
 246 76 246 76 246 100 c 0,94,95
 246 161 246 161 399 233 c 1,96,97
 531 274 531 274 582 274 c 2,98,-1
 598 274 l 1,99,-1
 602 276 l 1,100,101
 602 287 602 287 510 317 c 1,102,103
 475 338 475 338 475 358 c 1,104,105
 481 386 481 386 492 399 c 1,106,-1
 492 403 l 1,107,-1
 489 403 l 2,108,109
 416 403 416 403 403 428 c 0,110,111
 397 443 397 443 397 444 c 0,112,113
 397 480 397 480 442 510 c 1,52,53
EndSplineSet
EndChar

StartChar: u1B009
Encoding: 9 110601 9
Width: 1048
VWidth: 1048
Flags: W
LayerCount: 2
Fore
SplineSet
267 803 m 1,0,1
 372 779 372 779 372 729 c 1,2,3
 353 683 353 683 335 397 c 1,4,-1
 341 397 l 1,5,6
 357 442 357 442 589 676 c 1,7,8
 674 756 674 756 726 756 c 1,9,10
 771 744 771 744 771 711 c 0,11,12
 773 707 773 707 773 696 c 0,13,14
 773 662 773 662 720 567 c 0,15,16
 710 541 710 541 710 532 c 0,17,18
 710 517 710 517 783 496 c 1,19,20
 914 430 914 430 914 299 c 0,21,22
 914 140 914 140 761 59 c 1,23,24
 701 35 701 35 654 35 c 0,25,26
 568 35 568 35 525 123 c 1,27,-1
 523 123 l 1,28,29
 474 111 474 111 454 111 c 0,30,31
 394 118 394 118 394 166 c 128,-1,32
 394 214 394 214 482 283 c 1,33,34
 503 290 503 290 503 317 c 1,35,36
 532 459 532 459 609 459 c 0,37,38
 657 459 657 459 675 406 c 0,39,40
 681 378 681 378 681 358 c 0,41,42
 677 325 677 325 677 307 c 1,43,44
 781 270 781 270 781 223 c 1,45,46
 775 199 775 199 757 199 c 0,47,48
 740 199 740 199 675 254 c 1,49,-1
 660 258 l 1,50,51
 624 195 624 195 560 147 c 0,52,53
 557 147 557 147 552 139 c 1,54,55
 579 76 579 76 658 76 c 2,56,-1
 669 76 l 2,57,58
 770 76 770 76 830 197 c 1,59,60
 849 248 849 248 849 297 c 0,61,62
 849 426 849 426 767 465 c 1,63,64
 748 481 748 481 685 496 c 0,65,66
 671 500 671 500 671 520 c 1,67,-1
 706 670 l 1,68,-1
 706 700 l 2,69,70
 706 711 706 711 697 715 c 1,71,-1
 695 715 l 2,72,73
 637 715 637 715 400 416 c 0,74,75
 333 328 333 328 333 307 c 0,76,77
 331 247 331 247 331 240 c 0,78,79
 331 174 331 174 339 76 c 1,80,81
 339 25 339 25 296 -6 c 1,82,-1
 292 -8 l 1,83,84
 273 2 273 2 273 18 c 0,85,86
 279 74 279 74 280 123 c 0,87,88
 279 160 279 160 277 211 c 2,89,-1
 275 262 l 1,90,-1
 271 262 l 1,91,92
 258 251 258 251 214 147 c 1,93,94
 196 129 196 129 183 129 c 0,95,96
 141 129 141 129 134 229 c 1,97,98
 134 400 134 400 191 440 c 0,99,100
 203 446 203 446 212 446 c 0,101,102
 253 446 253 446 284 342 c 1,103,-1
 288 342 l 2,104,105
 291 342 291 342 294 348 c 0,106,107
 308 578 308 578 308 711 c 0,108,109
 308 764 308 764 255 784 c 1,110,111
 255 798 255 798 267 803 c 1,0,1
529 309 m 1,112,-1
 531 309 l 1,113,114
 580 318 580 318 605 319 c 0,115,116
 609 317 609 317 615 317 c 1,117,118
 624 335 624 335 624 362 c 2,119,-1
 624 395 l 2,120,121
 621 424 621 424 601 424 c 2,122,-1
 587 424 l 2,123,124
 550 424 550 424 529 311 c 1,125,-1
 529 309 l 1,112,-1
185 262 m 1,126,-1
 185 248 l 2,127,128
 185 207 185 207 196 207 c 2,129,-1
 200 207 l 1,130,131
 209 213 209 213 261 307 c 1,132,133
 229.5 403 229.5 403 210 403 c 0,134,135
 188 403 188 403 185 262 c 1,126,-1
529 266 m 1,136,-1
 529 238 l 2,137,138
 529 219 529 219 538 176 c 1,139,-1
 544 176 l 1,140,141
 601 239 601 239 601 268 c 0,142,143
 601 272 601 272 597 272 c 2,144,-1
 574 272 l 2,145,146
 553 272 553 272 529 266 c 1,136,-1
423 174 m 2,147,-1
 423 162 l 2,148,149
 423 143 423 143 445 143 c 2,150,-1
 456 143 l 2,151,152
 498 143 498 143 509 160 c 1,153,154
 497 215.5 497 215.5 497 256 c 1,155,156
 458 243 458 243 427 195 c 1,157,158
 423 180 423 180 423 174 c 2,147,-1
EndSplineSet
EndChar

StartChar: u1B00A
Encoding: 10 110602 10
Width: 1048
VWidth: 1048
Flags: W
LayerCount: 2
Fore
SplineSet
455 818 m 1,0,1
 511 787 511 787 584 787 c 1,2,3
 643 772 643 772 643 746 c 128,-1,4
 643 720 643 720 582 720 c 1,5,6
 536 713 536 713 475 697 c 1,7,8
 467 705 467 705 467 714 c 1,9,10
 543 741 543 741 543 744 c 0,11,12
 471 764 471 764 442 804 c 1,13,-1
 442 806 l 2,14,15
 442 808 442 808 455 818 c 1,0,1
727 677 m 2,16,-1
 737 677 l 2,17,18
 831 677 831 677 831 626 c 0,19,20
 831 567 831 567 518 443 c 1,21,-1
 518 439 l 1,22,23
 570 414 570 414 582 402 c 0,24,25
 586 395 586 395 586 388 c 0,26,27
 580 337 580 337 580 275 c 2,28,-1
 580 218 l 1,29,30
 752 206 752 206 758 175 c 1,31,32
 764 167.5 764 167.5 764 157 c 2,33,-1
 764 151 l 1,34,35
 760 136 760 136 737 136 c 1,36,37
 647 163 647 163 580 163 c 1,38,39
 580 157 580 157 580.5 140.5 c 128,-1,40
 581 124 581 124 581.5 93.5 c 128,-1,41
 582 63 582 63 582 34 c 1,42,43
 573 -24 573 -24 543 -24 c 0,44,45
 530 -24 530 -24 498 17 c 1,46,47
 426 67 426 67 354 95 c 1,48,49
 340 110 340 110 336 124 c 1,50,51
 336 166 336 166 459 202 c 0,52,53
 490 211 490 211 532 216 c 1,54,-1
 535 220 l 1,55,-1
 535 286 l 2,56,57
 535 300 535 300 537 370 c 0,58,59
 537 380 537 380 475 413 c 1,60,-1
 469 421 l 1,61,-1
 469 427 l 2,62,63
 469 448 469 448 541 474 c 1,64,65
 754 582 754 582 754 622 c 2,66,-1
 754 632 l 1,67,68
 748 646 748 646 715 646 c 2,69,-1
 698 646 l 2,70,71
 568 646 568 646 385 529 c 1,72,73
 264 437 264 437 260 437 c 0,74,75
 256.039809821 436.434258546 256.039809821 436.434258546 251 435.483848767 c 0,76,77
 248.434258546 435 248.434258546 435 248 435 c 0,78,79
 217 446 217 446 217 482 c 2,80,-1
 217 488 l 2,81,82
 217 559 217 559 268 607 c 1,83,-1
 270 607 l 1,84,85
 283 600 283 600 283 595 c 0,86,87
 264 552 264 552 264 521 c 1,88,-1
 268 519 l 1,89,-1
 270 519 l 2,90,91
 275 519 275 519 465 611 c 1,92,93
 615 677 615 677 727 677 c 2,16,-1
389 120 m 0,94,95
 389 101 389 101 502 60 c 0,96,97
 518 50 518 50 528 50 c 1,98,-1
 530 54 l 1,99,-1
 530 163 l 1,100,-1
 522 163 l 1,101,102
 393 151 393 151 389 120 c 0,94,95
EndSplineSet
EndChar

StartChar: u1B00B
Encoding: 11 110603 11
Width: 1048
VWidth: 1048
Flags: W
LayerCount: 2
Fore
SplineSet
433 823 m 1,0,1
 462 801 462 801 531 801 c 2,2,-1
 536 801 l 2,3,4
 569 801 569 801 632 807 c 1,5,6
 679 799 679 799 679 764 c 0,7,8
 679 735 679 735 585 735 c 1,9,10
 523 723 523 723 427 696 c 1,11,-1
 425 696 l 2,12,13
 422 696 422 696 417 707 c 1,14,-1
 417 713 l 1,15,16
 478.5 735.5 478.5 735.5 531 752 c 1,17,-1
 531 758 l 1,18,19
 468 758 468 758 421 809 c 1,20,21
 424 819 424 819 433 823 c 1,0,1
730 666 m 0,22,23
 823 666 823 666 841 610 c 1,24,-1
 841 606 l 2,25,26
 841 573 841 573 783 567 c 1,27,28
 721 567 721 567 529 477 c 0,29,30
 519 470 519 470 519 461 c 2,31,-1
 519 459 l 2,32,33
 519 451 519 451 601 424 c 1,34,35
 617 412 617 412 617 395 c 0,36,37
 617 372 617 372 550 348 c 1,38,39
 494 316 494 316 490 305 c 1,40,-1
 490 301 l 2,41,42
 490 282 490 282 574 264 c 1,43,44
 656 234 656 234 656 178 c 0,45,46
 656 94 656 94 484 -18 c 0,47,48
 468 -29 468 -29 462 -29 c 1,49,50
 450 -14 450 -14 450 -12 c 0,51,52
 589 93 589 93 589 166 c 2,53,-1
 589 182 l 2,54,55
 589 213 589 213 495 240 c 1,56,57
 456 256.5 456 256.5 456 291 c 0,58,59
 456 325 456 325 544 385 c 1,60,-1
 544 389 l 2,61,62
 544 394 544 394 493 420 c 1,63,64
 474 437 474 437 474 451 c 0,65,66
 474 487 474 487 583 535 c 1,67,68
 634 564 634 564 753 614 c 1,69,-1
 757 621 l 1,70,-1
 757 623 l 2,71,72
 757 632 757 632 724 633 c 2,73,-1
 693 633 l 2,74,75
 550 633 550 633 364 510 c 1,76,77
 309 481 309 481 269 481 c 1,78,79
 208 490 208 490 208 543 c 2,80,-1
 208 545 l 2,81,82
 208 605 208 605 294 647 c 1,83,84
 294 647 294 647 302 637 c 1,85,-1
 302 631 l 1,86,87
 267 608 267 608 267 578 c 2,88,-1
 267 559 l 2,89,90
 270 549 270 549 294 549 c 2,91,-1
 300 549 l 2,92,93
 348 549 348 549 525 629 c 1,94,95
 642 666 642 666 730 666 c 0,22,23
EndSplineSet
EndChar

StartChar: u1B00C
Encoding: 12 110604 12
Width: 1048
VWidth: 1048
Flags: W
LayerCount: 2
Fore
SplineSet
333 793 m 1,0,-1
 339 793 l 1,1,2
 375 762 375 762 443 762 c 2,3,-1
 447 762 l 2,4,5
 493 762 493 762 585 778 c 1,6,7
 638 766 638 766 638 733 c 0,8,9
 638 713 638 713 564 702 c 1,10,11
 458 659 458 659 458 614 c 2,12,-1
 458 596 l 2,13,14
 458 574 458 574 476 508 c 1,15,16
 596 545 596 545 677 545 c 0,17,18
 803 545 803 545 869 459 c 1,19,20
 888 426 888 426 888 391 c 0,21,22
 888 235 888 235 634 172 c 1,23,24
 614 172 614 172 568 106 c 1,25,26
 554 93 554 93 554 82 c 2,27,-1
 554 68 l 1,28,29
 566 51 566 51 595 51 c 2,30,-1
 607 51 l 2,31,32
 629 51 629 51 695 66 c 1,33,34
 734 62 734 62 734 37 c 0,35,36
 734 6 734 6 636 2 c 1,37,-1
 615 2 l 2,38,39
 530 2 530 2 517 59 c 1,40,-1
 517 63 l 2,41,42
 517 90 517 90 568 160 c 1,43,-1
 568 164 l 1,44,-1
 554 164 l 2,45,46
 484 164 484 164 484 219 c 0,47,48
 484 277 484 277 593 322 c 1,49,50
 609 324 609 324 611 324 c 2,51,-1
 615 324 l 2,52,53
 671 324 671 324 671 276 c 2,54,-1
 671 272 l 2,55,56
 671 251 671 251 648 207 c 1,57,-1
 652 205 l 1,58,59
 716 229 716 229 765 264 c 1,60,61
 820 310 820 310 820 387 c 2,62,-1
 820 399 l 2,63,64
 820 514 820 514 681 514 c 2,65,-1
 669 514 l 2,66,67
 575 514 575 514 482 471 c 1,68,-1
 482 438 l 2,69,70
 482 244 482 244 294 156 c 0,71,72
 269 147 269 147 253 147 c 2,73,-1
 243 147 l 1,74,75
 161 154 161 154 161 225 c 0,76,77
 161 308 161 308 288 410 c 0,78,79
 348 455 348 455 423 492 c 1,80,-1
 423 494 l 2,81,82
 423 506 423 506 413 575 c 1,83,-1
 413 580 l 2,84,85
 413 662 413 662 515 713 c 1,86,-1
 515 719 l 1,87,88
 475 717 475 717 472 717 c 0,89,90
 375 717 375 717 325 776 c 1,91,-1
 325 778 l 1,92,93
 333 789 333 789 333 793 c 1,0,-1
218 225 m 2,94,-1
 218 207 l 2,95,96
 218 178 218 178 247 178 c 2,97,-1
 251 178 l 2,98,99
 315 178 315 178 380 270 c 1,100,101
 427 358 427 358 427 449 c 1,102,-1
 425 449 l 1,103,104
 273 377 273 377 226 262 c 0,105,106
 218 236 218 236 218 225 c 2,94,-1
534 209 m 2,107,108
 534 198 534 198 566 195 c 0,109,110
 603 195 603 195 603 221 c 1,111,112
 615 245 615 245 615 270 c 2,113,-1
 615 276 l 2,114,115
 615 291 615 291 601 291 c 2,116,-1
 599 291 l 2,117,118
 561 291 561 291 534 229 c 1,119,-1
 534 209 l 2,107,108
EndSplineSet
EndChar

StartChar: u1B00D
Encoding: 13 110605 13
Width: 1048
VWidth: 1048
Flags: W
LayerCount: 2
Fore
SplineSet
639 806 m 0,0,1
 673 806 673 806 707 751 c 1,2,-1
 709 740 l 2,3,4
 709 720 709 720 637 646 c 1,5,-1
 537 525 l 1,6,7
 563 490 563 490 563 441 c 2,8,-1
 563 431 l 2,9,10
 563 404 563 404 557 370 c 1,11,-1
 559 370 l 1,12,13
 626 390 626 390 664 390 c 2,14,-1
 680 390 l 2,15,16
 779 390 779 390 805 316 c 1,17,-1
 807 298 l 1,18,19
 807 202 807 202 588 146 c 1,20,21
 494 110 494 110 494 85 c 2,22,-1
 494 83 l 2,23,24
 494 52 494 52 571 48 c 1,25,-1
 573 48 l 1,26,27
 620 52 620 52 637 52 c 0,28,29
 686 43 686 43 686 19 c 2,30,-1
 686 11 l 1,31,32
 671 -11 671 -11 604 -11 c 0,33,34
 501 -11 501 -11 461 48 c 1,35,36
 455 73.5 455 73.5 455 81 c 0,37,38
 455 129 455 129 586 179 c 1,39,40
 710 231 710 231 729 273 c 0,41,42
 737 289 737 289 737 306 c 2,43,-1
 737 308 l 2,44,45
 737 366 737 366 668 366 c 0,46,47
 621 366 621 366 522 308 c 0,48,49
 516 306 516 306 516 306 c 1,50,51
 501 306 501 306 498 345 c 1,52,53
 510 380 510 380 510 409 c 2,54,-1
 510 450 l 2,55,56
 510 460 510 460 506 476 c 1,57,-1
 500 476 l 1,58,59
 395 355 395 355 307 355 c 1,60,61
 242 367 242 367 242 415 c 2,62,-1
 242 417 l 2,63,64
 242 480 242 480 348 538 c 1,65,66
 396 556 396 556 436 556 c 2,67,-1
 461 556 l 2,68,69
 475 556 475 556 504 548 c 1,70,71
 632 712 632 712 633 753 c 0,72,73
 633 756 633 756 627 759 c 0,74,75
 612 759 612 759 494 683 c 0,76,77
 436 644 436 644 408 644 c 2,78,-1
 399 644 l 2,79,80
 349 644 349 644 317 736 c 1,81,82
 332 749 332 749 336 749 c 0,83,84
 357 712 357 712 395 712 c 0,85,86
 466 712 466 712 621 802 c 0,87,88
 629 806 629 806 639 806 c 0,0,1
272 421 m 2,89,-1
 272 413 l 2,90,91
 272 384 272 384 301 384 c 2,92,-1
 324 384 l 1,93,94
 384 397 384 397 465 493 c 1,95,-1
 471 501 l 1,96,-1
 471 505 l 2,97,98
 469 514 469 514 428 515 c 0,99,100
 322 515 322 515 276 437 c 0,101,102
 272 430 272 430 272 421 c 2,89,-1
EndSplineSet
EndChar

StartChar: u1B00E
Encoding: 14 110606 14
Width: 1048
VWidth: 1048
Flags: W
LayerCount: 2
Fore
SplineSet
360 804 m 1,0,-1
 362 804 l 1,1,2
 433 773 433 773 526 773 c 2,3,-1
 528 773 l 2,4,5
 549 773 549 773 606 779 c 0,6,7
 642 779 642 779 659 738 c 1,8,9
 659 708 659 708 580 708 c 1,10,11
 457 681 457 681 356 642 c 1,12,-1
 346 656 l 1,13,-1
 346 663 l 1,14,15
 422 696 422 696 524 730 c 1,16,-1
 524 732 l 1,17,18
 459 732 459 732 379 769 c 1,19,20
 354 786 354 786 354 790 c 2,21,-1
 354 792 l 1,22,23
 360 799.5 360 799.5 360 804 c 1,0,-1
801 689 m 1,24,25
 932 674 932 674 932 585 c 0,26,27
 932 507 932 507 834 474 c 0,28,29
 813 468 813 468 788 468 c 0,30,31
 706 468 706 468 651 517 c 1,32,33
 656 536 656 536 659 536 c 0,34,35
 703 511 703 511 741 511 c 2,36,-1
 766 511 l 2,37,38
 838 511 838 511 862 566 c 1,39,-1
 862 599 l 2,40,41
 862 648 862 648 784 654 c 1,42,-1
 770 654 l 1,43,44
 647 642 647 642 473 548 c 1,45,46
 469 539 469 539 469 511 c 2,47,-1
 469 468 l 2,48,49
 469 456 469 456 571 431 c 1,50,51
 587 415 587 415 588 400 c 0,52,53
 588 377 588 377 469 333 c 1,54,55
 399 293 399 293 399 269 c 2,56,-1
 399 267 l 2,57,58
 399 236 399 236 543 224 c 1,59,60
 569 210 569 210 569 191 c 0,61,62
 569 162 569 162 489 132 c 1,63,64
 424 101 424 101 424 75 c 0,65,66
 424 44 424 44 569 44 c 0,67,68
 613 44 613 44 664 54 c 0,69,70
 679 54 679 54 690 34 c 1,71,72
 690 -4 690 -4 565 -9 c 1,73,-1
 555 -9 l 1,74,75
 387 3 387 3 387 67 c 0,76,77
 387 107.5 387 107.5 489 169 c 1,78,-1
 496 177 l 1,79,80
 496 185 496 185 426 196 c 1,81,82
 362 217 362 217 362 259 c 0,83,84
 362 304 362 304 473 372 c 1,85,86
 506 384 506 384 506 392 c 1,87,88
 449 414 449 414 430 425 c 0,89,90
 416 436 416 436 416 460 c 2,91,-1
 416 468 l 2,92,93
 416 473 416 473 418 523 c 1,94,-1
 416 523 l 1,95,96
 259 443 259 443 221 443 c 2,97,-1
 197 443 l 1,98,99
 117 451 117 451 117 511 c 0,100,101
 117 545 117 545 158 583 c 1,102,103
 165 580 165 580 170 572 c 1,104,105
 162 558 162 558 162 525 c 1,106,107
 166 501 166 501 193 501 c 2,108,-1
 215 501 l 2,109,110
 278 501 278 501 424 568 c 1,111,112
 446 619 446 619 483 638 c 1,113,114
 494 635 494 635 494 628 c 0,115,116
 477 597 477 597 477 587 c 1,117,-1
 479 587 l 1,118,119
 699 689 699 689 801 689 c 1,24,25
EndSplineSet
EndChar

StartChar: u1B00F
Encoding: 15 110607 15
Width: 1048
VWidth: 1048
Flags: W
LayerCount: 2
Fore
SplineSet
621 806 m 1,0,1
 676 788 676 788 676 763 c 0,2,3
 676 755 676 755 610 669 c 1,4,-1
 610 660 l 2,5,6
 610 655 610 655 676 640 c 1,7,8
 762 604 762 604 762 513 c 0,9,10
 762 407 762 407 612 359 c 1,11,12
 530 349 530 349 530 341 c 1,13,14
 429 275 429 275 338 232 c 1,15,-1
 338 230 l 1,16,-1
 344 230 l 1,17,18
 370 237 370 237 504 286 c 1,19,20
 730 359 730 359 817 359 c 1,21,22
 895 355 895 355 915 294 c 1,23,-1
 915 286 l 2,24,25
 915 243 915 243 754 222 c 1,26,27
 475 155 475 155 475 103 c 2,28,-1
 475 87 l 1,29,30
 490 42 490 42 598 42 c 2,31,-1
 614 42 l 2,32,33
 635 42 635 42 670 46 c 0,34,35
 696 46 696 46 698 15 c 0,36,37
 698 -7 698 -7 625 -11 c 1,38,-1
 596 -11 l 1,39,40
 460 -6 460 -6 436 67 c 0,41,42
 434 83 434 83 434 85 c 0,43,44
 434 181 434 181 770 261 c 1,45,46
 850 285 850 285 850 298 c 0,47,48
 850 319 850 319 815 325 c 1,49,-1
 791 325 l 2,50,51
 685 325 685 325 408 212 c 1,52,53
 297 146 297 146 272 146 c 0,54,55
 271 146 271 146 268 145.5 c 128,-1,56
 265 145 265 145 260 144.5 c 128,-1,57
 255 144 255 144 250 144 c 0,58,59
 195 144 195 144 133 208 c 0,60,61
 133 212 133 212 147 226 c 1,62,63
 167 210 167 210 207 210 c 2,64,-1
 217 210 l 2,65,66
 268 210 268 210 362 269 c 0,67,68
 432 310 432 310 489 351 c 1,69,-1
 489 357 l 1,70,71
 458 364 458 364 432 380 c 1,72,73
 360 335 360 335 281 335 c 1,74,75
 225 343 225 343 225 390 c 0,76,77
 225 447 225 447 348 513 c 1,78,79
 348 563 348 563 401 630 c 1,80,81
 444 667 444 667 479 667 c 2,82,-1
 483 667 l 1,83,84
 551 662 551 662 551 599 c 2,85,-1
 551 570 l 2,86,87
 554 568 554 568 598 556 c 1,88,89
 637 529 637 529 637 488 c 0,90,91
 637 450 637 450 596 392 c 1,92,93
 598 392 598 392 598 390 c 1,94,95
 698 432 698 432 698 507 c 2,96,-1
 698 521 l 2,97,98
 698 587 698 587 662 607 c 0,99,100
 643 620 643 620 588 640 c 1,101,102
 580 648 580 648 580 660 c 1,103,104
 606 732 606 732 606 755 c 0,105,106
 603 763 603 763 600 763 c 2,107,-1
 598 763 l 1,108,109
 424 685 424 685 389 685 c 0,110,111
 344 685 344 685 315 765 c 1,112,-1
 315 769 l 2,113,114
 315 772 315 772 332 781 c 1,115,-1
 334 781 l 1,116,117
 361 740 361 740 387 740 c 2,118,-1
 410 740 l 2,119,120
 461 740 461 740 588 792 c 1,121,122
 605 806 605 806 621 806 c 1,0,1
385 531 m 1,123,124
 452.5 553.5 452.5 553.5 496 564 c 1,125,-1
 496 595 l 2,126,127
 496 630 496 630 469 630 c 2,128,-1
 459 630 l 2,129,130
 412 630 412 630 385 542 c 1,131,-1
 385 531 l 1,123,124
543 531 m 1,132,133
 534 482 534 482 469 411 c 0,134,135
 466 411 466 411 463 404 c 2,136,-1
 463 400 l 1,137,138
 497 386 497 386 524 386 c 1,139,140
 556 403 556 403 578 472 c 1,141,-1
 578 499 l 1,142,143
 574 531 574 531 545 531 c 2,144,-1
 543 531 l 1,132,133
385 497 m 1,145,-1
 385 493 l 2,146,147
 385 463 385 463 426 425 c 1,148,-1
 428 425 l 1,149,150
 460 443 460 443 487 523 c 1,151,-1
 487 529 l 1,152,-1
 485 529 l 2,153,154
 450 529 450 529 385 497 c 1,145,-1
262 396 m 2,155,-1
 262 390 l 2,156,157
 265 364 265 364 283 364 c 2,158,-1
 299 364 l 2,159,160
 353 364 353 364 399 398 c 1,161,-1
 399 402 l 1,162,163
 360 442 360 442 350 482 c 1,164,-1
 348 482 l 1,165,166
 262 437 262 437 262 396 c 2,155,-1
EndSplineSet
EndChar

StartChar: u1B010
Encoding: 16 110608 16
Width: 1048
VWidth: 1048
Flags: W
LayerCount: 2
Fore
SplineSet
744 783 m 0,0,1
 808 783 808 783 830 718 c 0,2,3
 830 717 830 717 831 711 c 128,-1,4
 832 705 832 705 833 701 c 0,5,6
 833 610 833 610 732 566 c 1,7,8
 685 557 685 557 685 552 c 0,9,10
 661 514.5 661 514.5 646 495 c 1,11,-1
 646 490 l 2,12,13
 646 483 646 483 677 458 c 0,14,15
 677 456 677 456 708 427 c 1,16,17
 792 527 792 527 851 527 c 1,18,19
 906 515 906 515 906 472 c 0,20,21
 906 395 906 395 775 296 c 1,22,-1
 775 294 l 1,23,24
 827 257 827 257 910 167 c 0,25,26
 937 132 937 132 937 99 c 1,27,28
 931 62 931 62 912 62 c 0,29,30
 887 62 887 62 861 136 c 1,31,32
 825 203 825 203 769 255 c 1,33,-1
 765 255 l 1,34,35
 762 60 762 60 658 13 c 1,36,-1
 638 11 l 1,37,38
 591 11 591 11 534 91 c 1,39,-1
 531 91 l 1,40,41
 505 49 505 49 493 40 c 1,42,-1
 484 40 l 1,43,44
 464 57 464 57 464 91 c 0,45,46
 464 107 464 107 501 138 c 1,47,48
 556 215 556 215 556 249 c 2,49,-1
 556 255 l 2,50,51
 556 259 556 259 552 259 c 0,52,53
 545 259 545 259 525 245 c 1,54,55
 516 245 516 245 507 261 c 1,56,-1
 507 267 l 1,57,58
 536 342 536 342 536 380 c 1,59,60
 532 384 532 384 529 384 c 0,61,62
 516 384 516 384 474 316 c 1,63,-1
 468 304 l 1,64,65
 454 311 454 311 454 314 c 2,66,-1
 454 316 l 1,67,68
 504 441 504 441 552 441 c 0,69,70
 587 441 587 441 587 394 c 1,71,72
 582 362 582 362 568 318 c 1,73,74
 603 313 603 313 603 288 c 1,75,-1
 601 284 l 1,76,-1
 601 275 l 1,77,-1
 603 275 l 1,78,-1
 681 386 l 1,79,80
 671 420 671 420 607 488 c 1,81,82
 607 495 607 495 644 544 c 1,83,84
 648 556 648 556 648 562 c 1,85,86
 638 562 638 562 626 585 c 1,87,88
 642 634 642 634 667 634 c 0,89,90
 691 634 691 634 691 585 c 1,91,92
 730 585 730 585 763 652 c 1,93,94
 767 675 767 675 767 695 c 2,95,-1
 767 710 l 2,96,97
 767 753 767 753 732 753 c 0,98,99
 622 753 622 753 368 450 c 0,100,101
 337 411 337 411 337 407 c 0,102,103
 396 313 396 313 396 210 c 0,104,105
 396 124 396 124 318 52 c 1,106,107
 264 13 264 13 210 13 c 2,108,-1
 208 13 l 2,109,110
 131 13 131 13 122 103 c 1,111,112
 122 199 122 199 275 394 c 0,113,114
 284 399 284 399 284 407 c 1,115,-1
 234 486 l 1,116,-1
 232 495 l 2,117,118
 232 507 232 507 288 568 c 1,119,120
 347 665 347 665 347 689 c 2,121,-1
 347 693 l 2,122,123
 347 697 347 697 343 697 c 0,124,125
 313 697 313 697 196 587 c 1,126,127
 188 587 188 587 179 583 c 1,128,129
 142 583 142 583 118 644 c 0,130,131
 113 662 113 662 112 681 c 0,132,133
 112 690 112 690 132 697 c 1,134,135
 153 654 153 654 173 654 c 2,136,-1
 191 654 l 2,137,138
 211 654 211 654 314 722 c 0,139,140
 356 746 356 746 378 746 c 0,141,142
 399 746 399 746 421 703 c 0,143,144
 421 701 421 701 423 695 c 0,145,146
 423 679 423 679 337 579 c 0,147,148
 273 503 273 503 273 495 c 2,149,-1
 273 486 l 2,150,151
 273 485 273 485 314 439 c 1,152,153
 552 706 552 706 654 757 c 0,154,155
 709 783 709 783 744 783 c 0,0,1
722 402 m 1,156,157
 748 360 748 360 757 327 c 1,158,-1
 763 327 l 1,159,160
 847 402 847 402 847 462 c 2,161,-1
 847 478 l 2,162,163
 847 481 847 481 839 486 c 1,164,-1
 824 486 l 1,165,166
 785 482 785 482 722 402 c 1,156,157
173 110 m 2,167,-1
 173 83 l 2,168,169
 173 51 173 51 208 46 c 1,170,-1
 222 46 l 2,171,172
 268.5 46 268.5 46 318 124 c 1,173,174
 335 160 335 160 335 198 c 2,175,-1
 335 239 l 2,176,177
 335 322 335 322 306 368 c 1,178,-1
 302 368 l 1,179,180
 173 204.5 173 204.5 173 110 c 2,167,-1
548 118 m 1,181,182
 578 71 578 71 636 71 c 0,183,184
 676 71 676 71 703 183 c 1,185,186
 710 250 710 250 710 280 c 0,187,188
 710 322 710 322 695 357 c 1,189,190
 672 338 672 338 615 245 c 1,191,192
 550 128 550 128 548 118 c 1,181,182
EndSplineSet
EndChar

StartChar: u1B011
Encoding: 17 110609 17
Width: 1048
VWidth: 1048
Flags: W
LayerCount: 2
Fore
SplineSet
432 799 m 0,0,1
 463 775 463 775 487 774 c 2,2,-1
 500 774 l 2,3,4
 542 774 542 774 559 778 c 1,5,6
 610 769 610 769 610 741 c 0,7,8
 610 716 610 716 539 709 c 1,9,-1
 432 666 l 1,10,11
 416 678 416 678 416 680 c 2,12,-1
 416 682 l 1,13,14
 465 703 465 703 494 727 c 1,15,-1
 494 729 l 1,16,17
 455 729 455 729 422 778 c 0,18,19
 420 784 420 784 420 786 c 2,20,-1
 420 788 l 1,21,22
 426 799 426 799 432 799 c 0,0,1
606 633 m 1,23,24
 632 633 632 633 653 586 c 1,25,-1
 653 582 l 2,26,27
 653 569 653 569 600 537 c 1,28,29
 404 360 404 360 336 291 c 1,30,31
 338 291 338 291 338 289 c 1,32,33
 350 294 350 294 373 295 c 0,34,35
 433 295 433 295 451 178 c 0,36,37
 454 178 454 178 467 96 c 1,38,-1
 473 96 l 1,39,40
 656 281 656 281 731 281 c 0,41,42
 790 281 790 281 844 203 c 0,43,44
 858 181 858 181 864 139 c 1,45,46
 864 79 864 79 750 70 c 0,47,48
 714 68 714 68 711 68 c 0,49,50
 702 86 702 86 702 88 c 0,51,52
 797 103 797 103 797 135 c 2,53,-1
 797 137 l 2,54,55
 797 209 797 209 735 248 c 1,56,-1
 723 250 l 1,57,58
 655 250 655 250 496 45 c 1,59,60
 484 -4 484 -4 461 -4 c 0,61,62
 410 -4 410 -4 410 106 c 1,63,64
 392 258 392 258 367 258 c 2,65,-1
 360 258 l 2,66,67
 328 258 328 258 248 172 c 0,68,69
 229 148 229 148 211 141 c 1,70,71
 184 153 184 153 184 188 c 2,72,-1
 184 193 l 2,73,74
 184 219 184 219 254 262 c 1,75,76
 419 414 419 414 555 565 c 1,77,-1
 555 569 l 1,78,-1
 553 569 l 1,79,80
 488 550 488 550 387 510 c 1,81,82
 371 508 371 508 369 508 c 0,83,84
 327 508 327 508 303 592 c 1,85,86
 310 606 310 606 324 606 c 1,87,88
 342 565 342 565 387 565 c 0,89,90
 441 565 441 565 606 633 c 1,23,24
EndSplineSet
EndChar

StartChar: u1B012
Encoding: 18 110610 18
Width: 1048
VWidth: 1048
Flags: W
LayerCount: 2
Fore
SplineSet
318 775 m 1,0,-1
 325 775 l 1,1,2
 325 743 325 743 400 697 c 1,3,4
 450 683 450 683 450 654 c 0,5,6
 450 632 450 632 382 626 c 1,7,8
 318 591 318 591 318 570 c 2,9,-1
 318 562 l 1,10,-1
 364 472 l 1,11,12
 406 289 406 289 447 185 c 0,13,14
 494 77 494 77 572 77 c 0,15,16
 590 75 590 75 607 75 c 0,17,18
 659 75 659 75 722 95 c 1,19,-1
 724 95 l 2,20,21
 763 95 763 95 771 60 c 1,22,23
 753 19 753 19 620 19 c 0,24,25
 473 19 473 19 433 95 c 1,26,27
 397 152 397 152 370 241 c 0,28,29
 331 380 331 380 314 466 c 1,30,31
 278 532 278 532 278 554 c 0,32,33
 278 598 278 598 359 650 c 1,34,-1
 361 654 l 1,35,-1
 361 658 l 1,36,37
 302 717 302 717 302 759 c 1,38,-1
 300 759 l 1,39,40
 302 765 302 765 318 775 c 1,0,-1
EndSplineSet
EndChar

StartChar: u1B013
Encoding: 19 110611 19
Width: 1048
VWidth: 1048
Flags: W
LayerCount: 2
Fore
SplineSet
586 802 m 1,0,1
 633 791 633 791 633 767 c 2,2,-1
 633 763 l 2,3,4
 633 741 633 741 563 730 c 1,5,-1
 471 691 l 1,6,7
 461 702 461 702 461 703 c 2,8,-1
 461 706 l 1,9,10
 500 728 500 728 510 738 c 1,11,-1
 510 740 l 1,12,-1
 496 740 l 2,13,14
 489 740 489 740 485 738 c 0,15,16
 413 738 413 738 371 787 c 0,17,18
 371 789 371 789 379 800 c 1,19,20
 419 781 419 781 461 781 c 2,21,-1
 467 781 l 2,22,23
 502 781 502 781 586 802 c 1,0,1
393 675 m 1,24,25
 450 675 450 675 477 640 c 0,26,27
 477 638 477 638 477.5 635 c 128,-1,28
 478 632 478 632 478.5 630 c 128,-1,29
 479 628 479 628 479 626.5 c 128,-1,30
 479 625 479 625 479 624 c 0,31,32
 479 615 479 615 471 593 c 1,33,-1
 475 591 l 1,34,35
 582 637 582 637 664 640 c 0,36,37
 727 640 727 640 748 597 c 0,38,39
 752 588 752 588 752 581 c 0,40,41
 752 516 752 516 616 501 c 0,42,43
 595 497 595 497 555 497 c 0,44,45
 545 497 545 497 545 515 c 2,46,-1
 545 517 l 1,47,48
 688 532 688 532 688 581 c 2,49,-1
 688 585 l 2,50,51
 688 613 688 613 653 613 c 0,52,53
 598 613 598 613 459 542 c 1,54,55
 426 431 426 431 426 357 c 1,56,-1
 430 357 l 1,57,58
 510 383 510 383 567 394 c 1,59,-1
 567 402 l 2,60,61
 567 414 567 414 561 421 c 0,62,63
 561 427 561 427 584 427 c 1,64,65
 599 400 599 400 602 400 c 0,66,67
 616 400 616 400 629.5 400.5 c 128,-1,68
 643 401 643 401 650 401.5 c 128,-1,69
 657 402 657 402 659 402 c 0,70,71
 816 402 816 402 868 280 c 0,72,73
 874 256 874 256 874 243 c 0,74,75
 874 56 874 56 530 -7 c 0,76,77
 525 -7 525 -7 514 13 c 0,78,79
 515.5 16 515.5 16 592 34 c 1,80,81
 753 92 753 92 793 167 c 0,82,83
 809 203 809 203 809 245 c 0,84,85
 809 338 809 338 700 368 c 0,86,87
 672 372 672 372 639 372 c 2,88,-1
 625 372 l 2,89,90
 598 372 598 372 598 361 c 0,91,92
 594 346 594 346 594 341 c 0,93,94
 609 167 609 167 635 167 c 1,95,-1
 641 159 l 1,96,-1
 641 157 l 2,97,98
 641 123 641 123 571 114 c 1,99,-1
 565 114 l 2,100,101
 499 114 499 114 453 151 c 1,102,-1
 449 151 l 1,103,104
 329 58 329 58 254 58 c 0,105,106
 223 58 223 58 217 110 c 0,107,108
 217 131 217 131 176 187 c 1,109,-1
 174 198 l 1,110,111
 174 246 174 246 379 339 c 1,112,113
 379 379 379 379 408 536 c 1,114,-1
 406 536 l 1,115,116
 347 527 347 527 346 527 c 0,117,118
 275 527 275 527 248 597 c 1,119,-1
 248 599 l 2,120,121
 248 602 248 602 260 609 c 1,122,-1
 262 609 l 1,123,124
 293 572 293 572 334 572 c 2,125,-1
 354 572 l 2,126,127
 420 572 420 572 420 587 c 0,128,129
 422 613 422 613 422 624 c 0,130,131
 422 636 422 636 381 660 c 1,132,133
 385 671 385 671 393 675 c 1,24,25
426 306 m 2,134,135
 426 258 426 258 461 218 c 1,136,137
 533 285 533 285 561 351 c 0,138,139
 563 357 563 357 563 359 c 2,140,-1
 563 361 l 1,141,142
 521 361 521 361 426 318 c 1,143,-1
 426 306 l 2,134,135
487 185 m 1,144,145
 514 165 514 165 559 165 c 0,146,147
 575 165 575 165 575 191 c 2,148,-1
 575 265 l 2,149,150
 575 270 575 270 573 306 c 1,151,-1
 571 306 l 1,152,153
 537 247 537 247 487 187 c 1,154,-1
 487 185 l 1,144,145
223 185 m 2,155,-1
 223 175 l 1,156,157
 238 118 238 118 254 118 c 1,158,159
 254 116 254 116 256 116 c 2,160,-1
 274 116 l 2,161,162
 338 116 338 116 422 181 c 1,163,-1
 422 185 l 1,164,165
 391 226 391 226 379 296 c 1,166,-1
 375 296 l 1,167,168
 223 224 223 224 223 185 c 2,155,-1
EndSplineSet
EndChar

StartChar: u1B014
Encoding: 20 110612 20
Width: 1048
VWidth: 1048
Flags: W
LayerCount: 2
Fore
SplineSet
287 796 m 1,0,-1
 295 796 l 2,1,2
 369 796 369 796 399 751 c 0,3,4
 403 738 403 738 403 728 c 0,5,6
 392 650 392 650 387 579 c 1,7,-1
 451 609 l 1,8,-1
 459 609 l 2,9,10
 500 606 500 606 500 585 c 0,11,12
 500 559 500 559 385 523 c 1,13,-1
 385 521 l 2,14,15
 385 498 385 498 384.5 475.5 c 128,-1,16
 384 453 384 453 383.5 441.5 c 128,-1,17
 383 430 383 430 383 427 c 1,18,-1
 387 427 l 1,19,-1
 449 486 l 2,20,21
 452 486 452 486 459 472 c 1,22,23
 383 384 383 384 383 382 c 2,24,-1
 383 210 l 2,25,26
 383 174 383 174 387 71 c 1,27,28
 375 5 375 5 338 5 c 0,29,30
 324 5 324 5 279 105 c 1,31,32
 252 148 252 148 213 187 c 1,33,-1
 211 187 l 1,34,35
 174 128 174 128 160 128 c 2,36,-1
 158 128 l 2,37,38
 130 128 130 128 121 187 c 1,39,40
 121 222 121 222 145 261 c 1,41,42
 153 261 153 261 162 257 c 1,43,-1
 160 243 l 1,44,-1
 160 224 l 2,45,46
 160 221 160 221 166 218 c 0,47,48
 182 218 182 218 322 361 c 0,49,50
 340 374 340 374 340 386 c 2,51,-1
 340 431 l 2,52,53
 340 445 340 445 342 513 c 1,54,-1
 340 513 l 1,55,-1
 270 505 l 1,56,57
 194 505 194 505 160 566 c 1,58,59
 164 575 164 575 170 579 c 1,60,61
 204 550 204 550 250 550 c 2,62,-1
 266 550 l 2,63,64
 341 553 341 553 344 564 c 0,65,66
 344 570 344 570 344.5 582.5 c 128,-1,67
 345 595 345 595 345.5 619 c 128,-1,68
 346 643 346 643 346 665 c 0,69,70
 346 750 346 750 315 759 c 1,71,-1
 281 777 l 1,72,73
 287 795 287 795 287 796 c 1,0,-1
684 790 m 0,74,75
 731 790 731 790 731 753 c 1,76,-1
 733 753 l 1,77,78
 731 699 731 699 600 554 c 1,79,-1
 600 550 l 1,80,81
 642 550 642 550 825 589 c 1,82,-1
 836 589 l 2,83,84
 906 589 906 589 928 546 c 1,85,-1
 928 544 l 2,86,87
 928 529 928 529 897 521 c 1,88,89
 852 528 852 528 797 529 c 0,90,91
 661 529 661 529 553 505 c 0,92,93
 540 505 540 505 539 521 c 0,94,95
 539 536 539 536 588 579 c 1,96,97
 653 666 653 666 668 724 c 1,98,-1
 668 732 l 2,99,100
 668 735 668 735 659 740 c 1,101,-1
 643 740 l 2,102,103
 626 740 626 740 596 720 c 1,104,-1
 586 734 l 1,105,106
 634 790 634 790 684 790 c 0,74,75
668 409 m 1,107,108
 676 399 676 399 676 398 c 2,109,-1
 676 396 l 1,110,111
 664 381 664 381 664 370 c 2,112,-1
 664 355 l 2,113,114
 664 347 664 347 731 329 c 1,115,116
 754 309 754 309 754 298 c 0,117,118
 754 277 754 277 674 226 c 1,119,120
 631 190 631 190 631 179 c 1,121,122
 641 169 641 169 752 122 c 1,123,124
 844 72 844 72 844 28 c 0,125,126
 842 -1 842 -1 817 -1 c 0,127,128
 810 -1 810 -1 737 67 c 1,129,130
 669.5 113.5 669.5 113.5 608 148 c 1,131,132
 598 159 598 159 598 167 c 0,133,134
 598 196 598 196 688 278 c 1,135,-1
 688 280 l 2,136,137
 688 281 688 281 639 308 c 1,138,139
 626 321 626 321 623 345 c 0,140,141
 623 382 623 382 666 409 c 1,142,-1
 668 409 l 1,107,108
229 210 m 1,143,144
 237 196 237 196 330 105 c 1,145,-1
 334 105 l 1,146,147
 334 221 334 221 338 329 c 1,148,-1
 336 329 l 1,149,150
 235 226 235 226 229 210 c 1,143,144
EndSplineSet
EndChar

StartChar: u1B015
Encoding: 21 110613 21
Width: 1048
VWidth: 1048
Flags: W
LayerCount: 2
Fore
SplineSet
313 802 m 0,0,1
 389 802 389 802 416 759 c 0,2,3
 420 752 420 752 420 736 c 0,4,5
 406 638 406 638 406 583 c 1,6,-1
 408 583 l 2,7,8
 413 583 413 583 494 622 c 1,9,-1
 502 622 l 2,10,11
 526 619 526 619 526 601 c 0,12,13
 526 565 526 565 401 529 c 1,14,-1
 397 255 l 1,15,-1
 403 60 l 1,16,17
 391 -7 391 -7 356 -7 c 0,18,19
 334 -7 334 -7 324 60 c 1,20,21
 306 102 306 102 236 163 c 1,22,-1
 233 163 l 1,23,24
 194 95 194 95 180 91 c 1,25,26
 160 101 160 101 160 122 c 0,27,28
 160 153 160 153 231 249 c 1,29,30
 358 454 358 454 358 472 c 2,31,-1
 358 521 l 1,32,33
 327 517 327 517 305 517 c 0,34,35
 213.5 517 213.5 517 170 607 c 0,36,37
 170 611 170 611 184 622 c 1,38,-1
 188 622 l 1,39,40
 226 566 226 566 303 566 c 0,41,42
 332 566 332 566 360 570 c 1,43,-1
 360 714 l 2,44,45
 360 762 360 762 305 777 c 1,46,-1
 299 777 l 1,47,-1
 299 779 l 1,48,49
 304 802 304 802 313 802 c 0,0,1
733 644 m 0,50,51
 826 644 826 644 881 574 c 0,52,53
 884 568 884 568 889 550 c 1,54,55
 881 521 881 521 862 521 c 1,56,57
 829 534 829 534 825 534 c 2,58,-1
 811 534 l 1,59,60
 757 521 757 521 733 505 c 0,61,62
 730 505 730 505 717 521 c 1,63,64
 784 569 784 569 784 579 c 2,65,-1
 784 583 l 1,66,67
 772 604 772 604 705 607 c 1,68,69
 659 605 659 605 659 601 c 1,70,71
 651.5 601 651.5 601 647 622 c 1,72,73
 690 644 690 644 733 644 c 0,50,51
250 187 m 1,74,-1
 344 110 l 1,75,-1
 348 110 l 1,76,77
 354 293 354 293 354 376 c 1,78,-1
 352 376 l 1,79,-1
 250 189 l 1,80,-1
 250 187 l 1,74,-1
612 259 m 0,81,82
 627 256 627 256 637 249 c 1,83,-1
 635 245 l 1,84,-1
 635 230 l 2,85,86
 635 184 635 184 676 167 c 0,87,88
 732 146 732 146 836 146 c 1,89,90
 864 136 864 136 864 116 c 0,91,92
 864 89 864 89 819 89 c 2,93,-1
 795 89 l 2,94,95
 661 89 661 89 614 163 c 0,96,97
 602 186 602 186 602 212 c 2,98,-1
 602 220 l 1,99,100
 606 259 606 259 612 259 c 0,81,82
EndSplineSet
EndChar

StartChar: u1B016
Encoding: 22 110614 22
Width: 1048
VWidth: 1048
Flags: W
LayerCount: 2
Fore
SplineSet
753 798 m 1,0,1
 804 786 804 786 804 763 c 0,2,3
 804 744 804 744 716 701 c 1,4,5
 624.5 639.5 624.5 639.5 620 632 c 1,6,7
 622 632 622 632 622 630 c 1,8,9
 678 648 678 648 716 648 c 1,10,11
 757 643 757 643 757 613 c 0,12,13
 757 587 757 587 644 521 c 1,14,-1
 644 517 l 1,15,16
 710 540 710 540 742 540 c 0,17,18
 827 540 827 540 857 472 c 0,19,20
 865 450 865 450 865 435 c 2,21,-1
 865 417 l 2,22,23
 865 283.5 865 283.5 697 222 c 1,24,25
 643 217 643 217 581 163 c 1,26,27
 560 139 560 139 560 124 c 2,28,-1
 560 118 l 2,29,30
 560 71 560 71 681 71 c 0,31,32
 745 71 745 71 847 89 c 1,33,-1
 851 89 l 1,34,35
 880 84 880 84 880 67 c 2,36,-1
 880 62 l 2,37,38
 880 15 880 15 701 15 c 0,39,40
 557 15 557 15 527 89 c 0,41,42
 523 105 523 105 523 116 c 0,43,44
 523 160 523 160 593 206 c 1,45,-1
 593 208 l 1,46,-1
 591 208 l 2,47,48
 501 208 501 208 501 271 c 0,49,50
 501 332 501 332 630 374 c 1,51,52
 658 376 658 376 660 376 c 2,53,-1
 667 376 l 1,54,55
 730 372 730 372 730 321 c 2,56,-1
 730 318 l 2,57,58
 730 299 730 299 703 263 c 1,59,-1
 706 263 l 1,60,61
 756 284 756 284 783 347 c 0,62,63
 798 380 798 380 798 427 c 2,64,-1
 798 429 l 2,65,66
 798 483 798 483 771 501 c 1,67,68
 747 509 747 509 724 509 c 2,69,-1
 716 509 l 2,70,71
 665 509 665 509 493 411 c 0,72,73
 489 409 489 409 482 409 c 2,74,-1
 478 409 l 2,75,76
 470 412 470 412 470 427 c 0,77,78
 474.5 472 474.5 472 509 472 c 1,79,80
 588 497 588 497 648 556 c 0,81,82
 699 602 699 602 699 617 c 2,83,-1
 699 620 l 2,84,85
 699 624 699 624 695 624 c 2,86,-1
 683 624 l 2,87,88
 667 624 667 624 574 581 c 1,89,90
 557 581 557 581 550 609 c 1,91,92
 550 626 550 626 628 669 c 1,93,94
 677 707 677 707 699 736 c 1,95,-1
 695 738 l 1,96,97
 661 728 661 728 622 728 c 2,98,-1
 595 728 l 2,99,100
 546 728 546 728 519 765 c 1,101,102
 529 776 529 776 529 777 c 1,103,104
 547 765 547 765 583 765 c 2,105,-1
 591 765 l 2,106,107
 664 765 664 765 746 798 c 1,108,-1
 753 798 l 1,0,1
392 783 m 1,109,110
 443 768 443 768 443 740 c 0,111,112
 443 726 443 726 388 687 c 1,113,114
 347 637 347 637 347 615 c 0,115,116
 347 612 347 612 388 544 c 1,117,118
 398 511 398 511 398 486 c 1,119,120
 390 445 390 445 361 445 c 1,121,-1
 361 443 l 1,122,123
 350 443 350 443 296 488 c 0,124,125
 288 493 288 493 284 493 c 2,126,-1
 273 493 l 2,127,128
 246 493 246 493 241 212 c 1,129,130
 246 82 246 82 255 38 c 1,131,132
 255 11 255 11 224 -3 c 1,133,134
 185 -3 185 -3 185 171 c 0,135,136
 185 321 185 321 220 482 c 1,137,138
 241 531 241 531 273 531 c 0,139,140
 282 531 282 531 325 505 c 1,141,-1
 333 505 l 2,142,143
 341 508 341 508 341 523 c 0,144,145
 341 546 341 546 316 613 c 0,146,147
 316 622 316 622 314 626 c 0,148,149
 314 648 314 648 349 716 c 1,150,-1
 345 716 l 1,151,152
 271 660 271 660 239 660 c 0,153,154
 198 660 198 660 175 722 c 0,155,156
 169 743 169 743 169 763 c 0,157,158
 170 777 170 777 187 777 c 1,159,160
 214 720 214 720 243 720 c 2,161,-1
 265 720 l 2,162,163
 302 720 302 720 374 777 c 1,164,-1
 392 783 l 1,109,110
534 267 m 0,165,166
 534 237 534 237 593 237 c 0,167,168
 648 237 648 237 658 257 c 0,169,170
 673 280 673 280 673 294 c 2,171,-1
 673 318 l 2,172,173
 673 332 673 332 640 333 c 0,174,175
 566 333 566 333 536 278 c 0,176,177
 534 274 534 274 534 267 c 0,165,166
EndSplineSet
EndChar

StartChar: u1B017
Encoding: 23 110615 23
Width: 1048
VWidth: 1048
Flags: W
LayerCount: 2
Fore
SplineSet
571 800 m 0,0,1
 676 789.5 676 789.5 676 761 c 1,2,3
 680 761 680 761 680 744 c 0,4,5
 672 670 672 670 672 654 c 1,6,-1
 674 654 l 2,7,8
 710 656 710 656 717 656 c 2,9,-1
 760 656 l 2,10,11
 848 656 848 656 862 620 c 2,12,-1
 864 615 l 1,13,14
 857 595 857 595 825 595 c 0,15,16
 738 605 738 605 715 605 c 0,17,18
 670 605 670 605 670 599 c 0,19,20
 670 555.5 670 555.5 664 437 c 1,21,22
 702 411 702 411 702 386 c 0,23,24
 702 373 702 373 662 300 c 1,25,-1
 662 218 l 2,26,27
 662 189 662 189 639 177 c 1,28,-1
 635 177 l 2,29,30
 628 177 628 177 600 196 c 1,31,-1
 594 196 l 1,32,33
 506 133 506 133 506 97 c 2,34,-1
 506 89 l 2,35,36
 506 56 506 56 602 46 c 0,37,38
 622 44 622 44 641 44 c 0,39,40
 752 44 752 44 752 89 c 2,41,-1
 752 101 l 2,42,43
 752 142 752 142 735 255 c 1,44,-1
 741 259 l 1,45,-1
 754 259 l 2,46,47
 756 258 756 258 780 169 c 0,48,49
 803 94 803 94 829 75 c 0,50,51
 833 75 833 75 836 58 c 0,52,53
 836 25 836 25 729 1 c 0,54,55
 688 -5 688 -5 637 -5 c 0,56,57
 497 1 497 1 473 65 c 0,58,59
 467 84.5 467 84.5 467 89 c 0,60,61
 467 131 467 131 559 218 c 1,62,63
 553 230 553 230 477 267 c 1,64,65
 466 278 466 278 461 302 c 1,66,67
 461 355 461 355 610 431 c 1,68,69
 623 433 623 433 623 441 c 0,70,71
 623 457 623 457 625 597 c 1,72,-1
 618 597 l 1,73,74
 518 582 518 582 408 509 c 0,75,76
 405 509 405 509 393 527 c 1,77,78
 479 602 479 602 608 640 c 1,79,80
 625 640 625 640 625 669 c 0,81,82
 625 759 625 759 608 759 c 1,83,84
 603 765 603 765 563 779 c 1,85,-1
 563 781 l 1,86,87
 568 800 568 800 571 800 c 0,0,1
279 763 m 1,88,89
 293 736 293 736 293 699 c 0,90,91
 293 605 293 605 168 445 c 0,92,93
 160 432 160 432 160 427 c 2,94,-1
 160 417 l 1,95,96
 209 368 209 368 209 361 c 0,97,98
 225 316 225 316 225 255 c 2,99,-1
 219 142 l 1,100,-1
 223 142 l 1,101,102
 248 213 248 213 285 288 c 1,103,-1
 291 288 l 1,104,105
 303 280 303 280 303 278 c 0,106,107
 229 77 229 77 229 22 c 1,108,109
 221 3 221 3 201 3 c 0,110,111
 175 3 175 3 166 56 c 1,112,113
 174 174 174 174 174 224 c 2,114,-1
 174 304 l 2,115,116
 174 382 174 382 145 402 c 0,117,118
 113 428 113 428 113 450 c 0,119,120
 113 477 113 477 178 546 c 1,121,122
 262 657 262 657 262 734 c 2,123,-1
 262 749 l 2,124,125
 262 763 262 763 279 763 c 1,88,89
805 495 m 0,126,127
 888 448 888 448 924 376 c 1,128,-1
 936 327 l 1,129,130
 936 268 936 268 897 253 c 1,131,132
 882 253 882 253 874 282 c 1,133,134
 843 316 843 316 795 316 c 1,135,136
 791 323 791 323 791 339 c 1,137,-1
 795 341 l 1,138,139
 837 339 837 339 850 339 c 0,140,141
 868 339 868 339 868 364 c 0,142,143
 868 416 868 416 791 480 c 1,144,145
 800 495 800 495 805 495 c 0,126,127
504 296 m 0,146,147
 504 280 504 280 580 243 c 1,148,149
 621 287 621 287 621 327 c 2,150,-1
 621 386 l 1,151,-1
 618 386 l 1,152,153
 582 382 582 382 516 323 c 0,154,155
 504 309.5 504 309.5 504 296 c 0,146,147
EndSplineSet
EndChar

StartChar: u1B018
Encoding: 24 110616 24
Width: 1048
VWidth: 1048
Flags: W
LayerCount: 2
Fore
SplineSet
316 752 m 0,0,1
 429 734 429 734 429 688 c 0,2,3
 429 682 429 682 384 575 c 1,4,5
 382 559 382 559 382 557 c 1,6,-1
 384 557 l 1,7,8
 390 563 390 563 441 571 c 1,9,10
 520.5 571 520.5 571 534 463 c 1,11,12
 534 210 534 210 364 66 c 1,13,14
 323 43 323 43 298 43 c 0,15,16
 257 43 257 43 245 102 c 0,17,18
 242 107 242 107 241 125 c 0,19,20
 241 170 241 170 255 170 c 2,21,-1
 265 172 l 1,22,-1
 269 166 l 1,23,-1
 269 150 l 2,24,25
 269 100.5 269 100.5 302 96 c 1,26,27
 371 96 371 96 443 270 c 1,28,29
 476 361 476 361 476 442 c 2,30,-1
 476 483 l 2,31,32
 476 539 476 539 443 539 c 2,33,-1
 437 539 l 1,34,35
 355 524 355 524 355 498 c 1,36,37
 321 413 321 413 269 223 c 1,38,39
 260 207 260 207 247 207 c 1,40,41
 218 221 218 221 218 254 c 0,42,43
 218 272 218 272 269 389 c 0,44,45
 308 485 308 485 308 496 c 1,46,-1
 306 496 l 1,47,48
 178 432 178 432 173 432 c 0,49,50
 131 432 131 432 101 514 c 0,51,52
 101 519 101 519 118 528 c 1,53,-1
 122 528 l 1,54,55
 138 494 138 494 171 494 c 1,56,57
 327 538 327 538 327 547 c 0,58,59
 359 652 359 652 359 676 c 2,60,-1
 359 688 l 2,61,62
 359 712 359 712 300 731 c 1,63,-1
 300 733 l 1,64,65
 310 752 310 752 316 752 c 0,0,1
650 537 m 1,66,-1
 652 537 l 1,67,68
 691 515 691 515 706 467 c 0,69,70
 706 463 706 463 714 434 c 1,71,-1
 718 434 l 1,72,73
 794 512 794 512 853 512 c 128,-1,74
 912 512 912 512 941 444 c 0,75,76
 947 423 947 423 947 403 c 0,77,78
 947 286 947 286 732 152 c 0,79,80
 729 152 729 152 714 170 c 1,81,82
 833 246 833 246 873 340 c 0,83,84
 884 362 884 362 884 410 c 0,85,86
 884 457 884 457 855 475 c 1,87,-1
 843 477 l 1,88,-1
 835 477 l 2,89,90
 796 477 796 477 736 383 c 1,91,92
 731.5 326 731.5 326 712 326 c 0,93,94
 708 324 708 324 699 324 c 0,95,96
 670 324 670 324 660 395 c 1,97,98
 660 497 660 497 638 526 c 1,99,-1
 650 537 l 1,66,-1
EndSplineSet
EndChar

StartChar: u1B019
Encoding: 25 110617 25
Width: 1048
VWidth: 1048
Flags: W
LayerCount: 2
Fore
SplineSet
361 806 m 1,0,1
 477 693 477 693 630 693 c 2,2,-1
 648 693 l 2,3,4
 690 693 690 693 708 663 c 1,5,-1
 708 654 l 1,6,7
 704 630 704 630 667 630 c 0,8,9
 511 630 511 630 388 738 c 0,10,11
 354 771 354 771 345 787 c 1,12,-1
 345 790 l 2,13,14
 345 793 345 793 361 806 c 1,0,1
630 480 m 2,15,-1
 632 480 l 2,16,17
 756 480 756 480 802 374 c 1,18,19
 810 339 810 339 810 327 c 2,20,-1
 810 312 l 2,21,22
 810 142.5 810 142.5 546 9 c 0,23,24
 505 -11 505 -11 493 -11 c 1,25,26
 478 2 478 2 478 13 c 1,27,28
 655 93 655 93 718 204 c 1,29,30
 744 265 744 265 744 304 c 2,31,-1
 744 337 l 2,32,33
 744 418 744 418 654 445 c 1,34,35
 630 447 630 447 624 447 c 2,36,-1
 605 447 l 2,37,38
 509 447 509 447 509 429 c 0,39,40
 509 374 509 374 458 286 c 1,41,42
 375 183 375 183 318 183 c 0,43,44
 298 183 298 183 253 263 c 1,45,46
 239 277 239 277 239 300 c 2,47,-1
 239 302 l 2,48,49
 239 363 239 363 431 447 c 1,50,51
 526 480 526 480 630 480 c 2,15,-1
298 288 m 2,52,-1
 298 271 l 2,53,54
 301 241 301 241 329 241 c 0,55,56
 376 241 376 241 447 351 c 1,57,58
 472 410 472 410 472 421 c 2,59,-1
 472 425 l 1,60,61
 298 359 298 359 298 288 c 2,52,-1
EndSplineSet
EndChar

StartChar: u1B01A
Encoding: 26 110618 26
Width: 1048
VWidth: 1048
Flags: W
LayerCount: 2
Fore
SplineSet
437 801 m 0,0,1
 542 778 542 778 542 725 c 0,2,3
 542 707 542 707 456 582 c 0,4,5
 454 576 454 576 454 575 c 1,6,-1
 456 575 l 1,7,8
 519 602 519 602 585 602 c 0,9,10
 680 602 680 602 746 520 c 1,11,12
 777 464 777 464 777 410 c 2,13,-1
 777 403 l 2,14,15
 777 158 777 158 390 8 c 0,16,17
 371 -0 371 -0 343 -6 c 1,18,-1
 341 -6 l 1,19,20
 331 4 331 4 329 14 c 1,21,22
 708 162 708 162 708 401 c 0,23,24
 708 521 708 521 626 557 c 0,25,26
 600 567 600 567 566 567 c 2,27,-1
 536 567 l 2,28,29
 481 567 481 567 423 530 c 1,30,31
 320 412 320 412 288 412 c 0,32,33
 271 412 271 412 271 440 c 2,34,-1
 271 442 l 2,35,36
 271 512 271 512 394 553 c 1,37,38
 407 553 407 553 450 635 c 0,39,40
 472 676 472 676 472 727 c 0,41,42
 472 755 472 755 421 782 c 1,43,-1
 421 786 l 1,44,45
 432 801 432 801 437 801 c 0,0,1
EndSplineSet
EndChar

StartChar: u1B01B
Encoding: 27 110619 27
Width: 1048
VWidth: 1048
Flags: W
LayerCount: 2
Fore
SplineSet
441 796 m 0,0,1
 552 779.5 552 779.5 552 736 c 2,2,-1
 552 734 l 1,3,4
 544 686 544 686 544 663 c 1,5,6
 586 663 586 663 742 712 c 1,7,-1
 746 712 l 2,8,9
 776 712 776 712 787 683 c 1,10,11
 787 643 787 643 538 613 c 1,12,13
 536 563 536 563 536 558 c 2,14,-1
 536 525 l 2,15,16
 536 508 536 508 644 503 c 1,17,18
 673 489 673 489 673 464 c 0,19,20
 673 445 673 445 534 415 c 1,21,22
 413 375 413 375 396 364 c 1,23,-1
 378 318 l 1,24,-1
 380 318 l 1,25,26
 440 329 440 329 445 329 c 0,27,28
 508 329 508 329 527 269 c 0,29,30
 533 240 533 240 534 230 c 0,31,32
 534 102 534 102 419 19 c 0,33,34
 395 5 395 5 364 -1 c 1,35,36
 337 -1 337 -1 290 69 c 1,37,38
 269 93 269 93 263 93 c 1,39,40
 226 29 226 29 202 7 c 1,41,-1
 191 1 l 1,42,-1
 179 1 l 1,43,44
 163 14 163 14 163 32 c 0,45,46
 163 57 163 57 230 124 c 1,47,48
 272 184 272 184 300 253 c 1,49,-1
 300 255 l 1,50,-1
 298 255 l 1,51,52
 247 233 247 233 171 187 c 1,53,54
 161 186 161 186 161 183 c 1,55,56
 136 183 136 183 136 222 c 2,57,-1
 136 230 l 2,58,59
 136 279 136 279 173 316 c 0,60,61
 176 316 176 316 191 310 c 1,62,-1
 191 308 l 1,63,64
 181 282 181 282 181 273 c 2,65,-1
 181 261 l 2,66,67
 181 258 181 258 187 255 c 2,68,-1
 198 255 l 1,69,70
 323 299 323 299 323 304 c 0,71,72
 337 336 337 336 337 359 c 0,73,74
 337 389 337 389 282 396 c 1,75,76
 287 421 287 421 300 421 c 2,77,-1
 314 421 l 2,78,79
 382 421 382 421 400 392 c 1,80,-1
 402 392 l 1,81,82
 467 420 467 420 566 456 c 1,83,-1
 566 458 l 2,84,85
 566 462 566 462 562 462 c 2,86,-1
 554 462 l 2,87,88
 480 462 480 462 480 531 c 2,89,-1
 480 536 l 2,90,91
 482 606 482 606 482 607 c 1,92,-1
 480 607 l 1,93,94
 453 603 453 603 409 603 c 0,95,96
 326 603 326 603 278 669 c 1,97,-1
 278 671 l 2,98,99
 278 676 278 676 294 689 c 1,100,101
 333 648 333 648 380 648 c 2,102,-1
 413 648 l 2,103,104
 450 648 450 648 484 654 c 1,105,-1
 484 716 l 2,106,107
 484 755 484 755 447 767 c 0,108,109
 430 772 430 772 425 775 c 1,110,111
 437 796 437 796 441 796 c 0,0,1
810 308 m 0,112,113
 897 308 897 308 910 237 c 0,114,115
 912 227 912 227 912 218 c 0,116,117
 912 82 912 82 607 7 c 1,118,119
 595 25 595 25 595 32 c 2,120,-1
 595 34 l 1,121,122
 849 111 849 111 849 210 c 2,123,-1
 849 228 l 1,124,125
 843 275 843 275 802 275 c 2,126,-1
 800 275 l 2,127,128
 737 275 737 275 685 177 c 1,129,130
 671 163 671 163 663 163 c 0,131,132
 618 163 618 163 595 259 c 1,133,134
 593 285 593 285 593 296 c 1,135,136
 609 304 609 304 613 304 c 2,137,-1
 640 251 l 1,138,-1
 654 239 l 1,139,-1
 667 239 l 1,140,141
 750 308 750 308 810 308 c 0,112,113
278 116 m 1,142,143
 340 60 340 60 364 60 c 2,144,-1
 370 60 l 2,145,146
 410 60 410 60 460 146 c 1,147,148
 478 187 478 187 478 237 c 0,149,150
 478 298 478 298 443 298 c 2,151,-1
 433 298 l 1,152,153
 363 289 363 289 355 273 c 2,154,-1
 278 116 l 1,142,143
EndSplineSet
EndChar

StartChar: u1B01C
Encoding: 28 110620 28
Width: 1048
VWidth: 1048
Flags: W
LayerCount: 2
Fore
SplineSet
427 809 m 1,0,1
 527 782 527 782 527 758 c 1,2,3
 534 756 534 756 538 739 c 1,4,5
 538 719 538 719 447 705 c 1,6,7
 337 671 337 671 278 631 c 0,8,9
 234 599 234 599 234 584 c 2,10,-1
 234 569 l 1,11,12
 243 551 243 551 294 551 c 2,13,-1
 298 551 l 1,14,15
 409 555 409 555 425 578 c 0,16,17
 460 624 460 624 472 625 c 1,18,19
 525 604 525 604 525 586 c 0,20,21
 525 566 525 566 454 532 c 1,22,23
 388 452 388 452 388 436 c 0,24,25
 389 430 389 430 450 391 c 1,26,27
 465 373 465 373 472 373 c 0,28,29
 635 479 635 479 718 479 c 1,30,31
 769 474.5 769 474.5 769 434 c 2,32,-1
 769 432 l 2,33,34
 769 420 769 420 712 270 c 1,35,-1
 712 254 l 1,36,-1
 720 254 l 1,37,38
 777 272 777 272 808 272 c 0,39,40
 867 272 867 272 888 231 c 0,41,42
 892 223 892 223 892 213 c 0,43,44
 892 137 892 137 636 59 c 1,45,-1
 634 59 l 2,46,47
 629 59 629 59 620 82 c 1,48,49
 826 158 826 158 826 207 c 2,50,-1
 826 217 l 2,51,52
 826 237 826 237 798 240 c 2,53,-1
 777 240 l 2,54,55
 759 240 759 240 699 219 c 1,56,57
 673 219 673 219 667 264 c 0,58,59
 667 288 667 288 708 428 c 1,60,-1
 708 440 l 2,61,62
 708 444 708 444 699 449 c 1,63,-1
 691 449 l 2,64,65
 628 449 628 449 488 350 c 0,66,67
 486 346 486 346 486 342 c 0,68,69
 515 295 515 295 515 223 c 2,70,-1
 515 221 l 2,71,72
 515 64 515 64 402 -10 c 0,73,74
 397 -10 397 -10 384 -14 c 1,75,76
 367.5 -11 367.5 -11 312 70 c 1,77,78
 285 97 285 97 249 121 c 0,79,80
 245 121 245 121 206 78 c 1,81,82
 198 76 198 76 198 74 c 1,83,84
 157 88 157 88 157 117 c 0,85,86
 157 148 157 148 194 283 c 1,87,-1
 194 285 l 2,88,89
 194 304 194 304 163 326 c 1,90,-1
 159 326 l 1,91,-1
 159 330 l 1,92,93
 168 346 168 346 171 346 c 2,94,-1
 175 346 l 1,95,96
 230 328 230 328 230 293 c 2,97,-1
 230 289 l 1,98,99
 212 194.5 212 194.5 212 166 c 1,100,-1
 216 166 l 1,101,102
 330 269 330 269 431 344 c 1,103,-1
 431 348 l 1,104,105
 423 369 423 369 361 418 c 0,106,107
 361 422 361 422 357 430 c 1,108,109
 357 442 357 442 398 516 c 1,110,-1
 398 518 l 1,111,-1
 396 518 l 1,112,113
 366 510 366 510 304 506 c 1,114,115
 198 506 198 506 198 571 c 0,116,117
 198 650 198 650 443 756 c 1,118,-1
 445 766 l 2,119,120
 445 775 445 775 411 791 c 1,121,122
 419 807 419 807 427 809 c 1,0,1
267 141 m 1,123,124
 346 92 346 92 386 61 c 1,125,-1
 390 61 l 2,126,127
 422 61 422 61 454 170 c 0,128,129
 458.5 186.5 458.5 186.5 460 227 c 0,130,131
 460 276 460 276 447 313 c 1,132,-1
 441 313 l 1,133,134
 408 298 408 298 267 145 c 1,135,-1
 267 141 l 1,123,124
EndSplineSet
EndChar

StartChar: u1B01D
Encoding: 29 110621 29
Width: 1048
VWidth: 1048
Flags: W
LayerCount: 2
Fore
SplineSet
724 790 m 1,0,1
 769 775 769 775 769 749 c 0,2,3
 769 730 769 730 638 560 c 1,4,-1
 632 550 l 1,5,-1
 636 550 l 1,6,7
 748 626 748 626 810 626 c 2,8,-1
 826 626 l 1,9,10
 919 614 919 614 919 552 c 2,11,-1
 919 546 l 2,12,13
 919 455 919 455 787 419 c 1,14,15
 751 415 751 415 751 413 c 0,16,17
 739 306 739 306 650 167 c 1,18,19
 652 167 652 167 652 165 c 1,20,21
 682 177 682 177 708 177 c 0,22,23
 798 177 798 177 923 71 c 1,24,25
 935 48.5 935 48.5 935 32 c 0,26,27
 934 5 934 5 914 5 c 2,28,-1
 912 5 l 2,29,30
 888 5 888 5 841 65 c 1,31,32
 753 151 753 151 701 151 c 0,33,34
 642 151 642 151 550 48 c 0,35,36
 516 11 516 11 499 11 c 2,37,-1
 495 11 l 1,38,39
 484 16 484 16 484 32 c 0,40,41
 484 70 484 70 538 101 c 1,42,43
 608 155 608 155 634 222 c 1,44,45
 691 334.5 691 334.5 691 429 c 0,46,47
 691 439 691 439 681 445 c 1,48,-1
 671 445 l 1,49,-1
 660 443 l 1,50,51
 656 450 656 450 656 456 c 2,52,-1
 656 460 l 2,53,54
 656 470 656 470 714 478 c 0,55,56
 737 478 737 478 755 441 c 1,57,58
 809 441 809 441 847 499 c 0,59,60
 855 518 855 518 855 544 c 2,61,-1
 855 554 l 2,62,63
 855 601 855 601 810 601 c 0,64,65
 717 601 717 601 564 437 c 1,66,67
 542 437 542 437 542 480 c 0,68,69
 542 504 542 504 583 534 c 1,70,71
 665 646 665 646 689 734 c 0,72,73
 689 738 689 738 685 738 c 2,74,-1
 683 738 l 2,75,76
 658 738 658 738 611 703 c 1,77,78
 611 706 611 706 597 716 c 1,79,80
 666 790 666 790 724 790 c 1,0,1
384 769 m 0,81,82
 443 769 443 769 509 669 c 1,83,84
 517 643 517 643 517 634 c 0,85,86
 517 589 517 589 396 577 c 1,87,88
 344 577 344 577 308 603 c 1,89,-1
 302 603 l 1,90,91
 282 490 282 490 282 419 c 0,92,93
 282 408 282 408 345 404 c 1,94,95
 360 398 360 398 374 398 c 1,96,97
 436 457 436 457 482 513 c 0,98,99
 486 513 486 513 495 501 c 1,100,-1
 495 497 l 1,101,102
 461 445 461 445 409 378 c 1,103,104
 450 337 450 337 450 329 c 0,105,106
 468 287 468 287 468 255 c 2,107,-1
 468 228 l 2,108,109
 468 109 468 109 368 40 c 0,110,111
 360 37 360 37 327 30 c 1,112,113
 270 30 270 30 216 132 c 1,114,115
 167 67 167 67 159 67 c 2,116,-1
 155 67 l 2,117,118
 121 67 121 67 114 126 c 1,119,120
 114 179 114 179 140 224 c 1,121,-1
 146 224 l 1,122,-1
 161 220 l 1,123,124
 153 186 153 186 153 169 c 2,125,-1
 153 167 l 2,126,127
 153 164 153 164 159 161 c 2,128,-1
 163 161 l 2,129,130
 186 161 186 161 298 300 c 1,131,132
 342 348 342 348 349 359 c 1,133,-1
 349 364 l 2,134,135
 349 374 349 374 243 378 c 1,136,137
 226 387 226 387 226 413 c 0,138,139
 226 518 226 518 261 638 c 1,140,141
 317 769 317 769 384 769 c 0,81,82
312 638 m 2,142,143
 312 625 312 625 370 622 c 2,144,-1
 388 622 l 2,145,146
 464 622 464 622 464 648 c 2,147,-1
 464 660 l 2,148,149
 464 698 464 698 409 738 c 0,150,151
 402 742 402 742 392 742 c 0,152,153
 334 742 334 742 312 642 c 1,154,-1
 312 638 l 2,142,143
243 159 m 1,155,156
 267 102 267 102 308 85 c 1,157,-1
 318 85 l 2,158,159
 386 85 386 85 407 177 c 0,160,161
 411 197 411 197 411 228 c 2,162,-1
 411 245 l 1,163,164
 406 340 406 340 388 345 c 1,165,-1
 384 345 l 1,166,167
 243 178.5 243 178.5 243 159 c 1,155,156
EndSplineSet
EndChar

StartChar: u1B01E
Encoding: 30 110622 30
Width: 1048
VWidth: 1048
Flags: W
LayerCount: 2
Fore
SplineSet
338 827 m 0,0,1
 428 822 428 822 428 784 c 2,2,-1
 428 782 l 2,3,4
 428 770 428 770 410 727 c 1,5,-1
 410 725 l 1,6,7
 420 725 420 725 449 729 c 1,8,9
 520 729 520 729 528 645 c 1,10,11
 528 507 528 507 414 438 c 1,12,-1
 395 436 l 2,13,14
 386 436 386 436 322 498 c 1,15,16
 302.5 510 302.5 510 295 510 c 2,17,-1
 291 510 l 1,18,19
 272 469 272 469 244 455 c 1,20,21
 228 455 228 455 221 489 c 1,22,23
 221 511 221 511 264 555 c 1,24,25
 326 650 326 650 326 664 c 1,26,-1
 322 666 l 1,27,28
 250 633 250 633 233 633 c 0,29,30
 200 633 200 633 168 698 c 1,31,-1
 168 709 l 1,32,33
 171 709 171 709 182 717 c 1,34,-1
 186 717 l 1,35,36
 213 684 213 684 233 684 c 2,37,-1
 252 684 l 1,38,39
 352 708 352 708 352 717 c 0,40,41
 369 759 369 759 369 762 c 2,42,-1
 369 774 l 2,43,44
 369 795 369 795 322 807 c 1,45,46
 329 825 329 825 338 827 c 0,0,1
606 737 m 1,47,48
 625 735 625 735 625 731 c 0,49,50
 621 718 621 718 621 707 c 2,51,-1
 621 678 l 2,52,53
 621 675 621 675 629 670 c 1,54,-1
 631 670 l 2,55,56
 634 670 634 670 702 711 c 1,57,58
 745 731 745 731 782 731 c 1,59,60
 881 719 881 719 881 657 c 0,61,62
 881 586 881 586 627 455 c 0,63,64
 620 448 620 448 528 401 c 1,65,-1
 528 399 l 1,66,-1
 535 399 l 1,67,-1
 682 424 l 1,68,69
 717 419 717 419 717 393 c 0,70,71
 717 370 717 370 645 358 c 1,72,73
 508 311 508 311 455 270 c 1,74,-1
 455 264 l 1,75,-1
 463 262 l 1,76,77
 534 262 534 262 672 299 c 1,78,79
 709 292 709 292 709 262 c 0,80,81
 709 241 709 241 616 221 c 1,82,83
 518.5 182 518.5 182 385 104 c 0,84,85
 358 86 358 86 358 84 c 2,86,-1
 358 82 l 1,87,88
 476 133 476 133 561 133 c 0,89,90
 744 133 744 133 850 33 c 1,91,92
 860 13 860 13 860 2 c 0,93,94
 855 -27 855 -27 831 -27 c 1,95,96
 813 -22 813 -22 735 43 c 1,97,98
 659 98 659 98 545 98 c 128,-1,99
 431 98 431 98 233 -31 c 1,100,101
 233 -31 233 -31 231.5 -31.5 c 128,-1,102
 230 -32 230 -32 227 -32.5 c 128,-1,103
 224 -33 224 -33 221 -33 c 0,104,105
 205 -33 205 -33 205 -6 c 0,106,107
 205 49 205 49 287 82 c 1,108,109
 468 183 468 183 539 229 c 1,110,-1
 539 231 l 1,111,-1
 532 231 l 1,112,113
 428 205 428 205 401 205 c 0,114,115
 375 205 375 205 375 229 c 0,116,117
 375 267 375 267 539 344 c 0,118,119
 539 346 539 346 563 358 c 1,120,-1
 563 360 l 1,121,-1
 557 360 l 1,122,123
 470 340 470 340 449 340 c 0,124,125
 431 340 431 340 428 367 c 0,126,127
 428 392 428 392 506 416 c 1,128,129
 649 482 649 482 774 588 c 1,130,131
 815 635 815 635 815 657 c 2,132,-1
 815 674 l 1,133,134
 810 705 810 705 784 705 c 2,135,-1
 762 705 l 2,136,137
 707 705 707 705 633 602 c 0,138,139
 633 600 633 600 616 586 c 1,140,-1
 612 586 l 2,141,142
 586 586 586 586 582 641 c 1,143,-1
 582 645 l 2,144,145
 582 704 582 704 606 737 c 1,47,48
307 532 m 1,146,147
 386 494 386 494 395 494 c 2,148,-1
 399 494 l 2,149,150
 435 494 435 494 471 598 c 1,151,152
 475 623 475 623 475 649 c 0,153,154
 475 694 475 694 444 694 c 2,155,-1
 438 694 l 2,156,157
 378 694 378 694 371 664 c 1,158,159
 307 538 307 538 307 532 c 1,146,147
EndSplineSet
EndChar

StartChar: u1B01F
Encoding: 31 110623 31
Width: 1048
VWidth: 1048
Flags: W
LayerCount: 2
Fore
SplineSet
729 783 m 0,0,1
 814 783 814 783 848 744 c 0,2,3
 854 736 854 736 858 716 c 1,4,5
 858 660 858 660 698 603 c 1,6,7
 657 593 657 593 647 593 c 2,8,-1
 645 593 l 1,9,10
 639 605 639 605 639 609 c 0,11,12
 784 658 784 658 784 708 c 2,13,-1
 784 716 l 1,14,15
 778 753 778 753 735 753 c 2,16,-1
 713 753 l 2,17,18
 600 753 600 753 322 605 c 1,19,20
 301 599 301 599 283 599 c 0,21,22
 224 599 224 599 182 695 c 0,23,24
 182 698 182 698 195 708 c 1,25,-1
 197 708 l 1,26,27
 239 660 239 660 285 660 c 0,28,29
 329 660 329 660 498 730 c 1,30,31
 663 783 663 783 729 783 c 0,0,1
541 572 m 0,32,33
 548 572 548 572 647 521 c 1,34,35
 707 514 707 514 707 490 c 2,36,-1
 707 484 l 2,37,38
 707 426 707 426 569 376 c 0,39,40
 553 372 553 372 549 372 c 1,41,-1
 549 345 l 2,42,43
 549 184 549 184 553 65 c 1,44,45
 548 11 548 11 508 11 c 0,46,47
 498 11 498 11 471 67 c 1,48,49
 431 114 431 114 373 151 c 1,50,51
 380 169 380 169 383 169 c 0,52,53
 486 110 486 110 502 110 c 1,54,55
 498 174 498 174 498 341 c 2,56,-1
 498 368 l 1,57,58
 497 368 497 368 481 366 c 0,59,60
 366 366 366 366 328 441 c 1,61,-1
 328 443 l 2,62,63
 328 447 328 447 342 458 c 1,64,65
 369 417 369 417 440 417 c 2,66,-1
 483 417 l 2,67,68
 500 417 500 417 500 425 c 0,69,70
 500 541 500 541 520 564 c 1,71,72
 533 572 533 572 541 572 c 0,32,33
549 431 m 2,73,-1
 549 425 l 1,74,-1
 551 425 l 1,75,76
 653 449 653 449 653 478 c 2,77,-1
 653 482 l 2,78,79
 653 494 653 494 571 534 c 1,80,-1
 563 534 l 2,81,82
 549 534 549 534 549 431 c 2,73,-1
688 261 m 1,83,84
 773 245 773 245 819 200 c 1,85,86
 866 145 866 145 866 103 c 0,87,88
 866 62 866 62 834 62 c 0,89,90
 811 62 811 62 797 124 c 1,91,92
 760 203 760 203 684 239 c 0,93,94
 681.17129273 239.565741454 681.17129273 239.565741454 678.032302466 240.516151233 c 0,95,96
 676.434258546 241 676.434258546 241 676 241 c 1,97,98
 676 250 676 250 688 261 c 1,83,84
426 245 m 1,99,100
 430 238 430 238 430 228 c 1,101,102
 309 145 309 145 293 124 c 1,103,104
 280 89 280 89 272 79 c 1,105,106
 260 75 260 75 254 75 c 0,107,108
 213.5 75 213.5 75 203 144 c 1,109,110
 203 201 203 201 246 237 c 1,111,112
 258 232 258 232 258 228 c 0,113,114
 252 214 252 214 252 196 c 2,115,-1
 252 185 l 2,116,117
 252 169 252 169 262 165 c 1,118,-1
 266 165 l 1,119,120
 292 172 292 172 424 245 c 1,121,-1
 426 245 l 1,99,100
EndSplineSet
EndChar

StartChar: u1B020
Encoding: 32 110624 32
Width: 1048
VWidth: 1048
Flags: W
LayerCount: 2
Fore
SplineSet
521 811 m 0,0,1
 654 781 654 781 654 719 c 0,2,3
 654 697 654 697 601 688 c 0,4,5
 553 682 553 682 536 670 c 1,6,-1
 534 666 l 1,7,-1
 534 664 l 2,8,9
 534 659.5 534 659.5 564 604 c 1,10,11
 571 604 571 604 587 608 c 1,12,13
 617 600 617 600 617 582 c 0,14,15
 617 567 617 567 570 514 c 1,16,-1
 570 471 l 2,17,18
 570 433.5 570 433.5 558 387 c 1,19,20
 656 401 656 401 724 401 c 2,21,-1
 740 401 l 2,22,23
 874 401 874 401 935 324 c 0,24,25
 939 317 939 317 939 309 c 0,26,27
 939 298.5 939 298.5 927 291 c 1,28,-1
 919 291 l 1,29,-1
 818 340 l 1,30,31
 780.5 352 780.5 352 740 352 c 2,32,-1
 706 352 l 2,33,34
 605 352 605 352 404 209 c 1,35,-1
 396 201 l 1,36,-1
 400 201 l 1,37,38
 521 272 521 272 605 272 c 2,39,-1
 620 272 l 1,40,41
 740 257 740 257 740 162 c 0,42,43
 740 68 740 68 617 2 c 1,44,45
 561.5 -16 561.5 -16 515 -16 c 0,46,47
 426 -16 426 -16 411 51 c 1,48,-1
 411 57 l 2,49,50
 411 125 411 125 511 150 c 1,51,-1
 531 152 l 1,52,53
 596 152 596 152 654 96 c 1,54,-1
 658 96 l 1,55,56
 677 121 677 121 677 154 c 0,57,58
 677 244 677 244 599 244 c 0,59,60
 476 244 476 244 292 78 c 1,61,62
 292 78 292 78 290.5 77.5 c 128,-1,63
 289 77 289 77 286 76.5 c 128,-1,64
 283 76 283 76 280 76 c 0,65,66
 268 76 268 76 263 106 c 1,67,68
 263 147 263 147 329 180 c 1,69,70
 449 276 449 276 601 356 c 1,71,-1
 601 358 l 1,72,-1
 599 358 l 2,73,74
 491 358 491 358 282 264 c 0,75,76
 203 225 203 225 130 170 c 1,77,-1
 122 170 l 1,78,79
 110 176 110 176 110 197 c 0,80,81
 110 252 110 252 146 268 c 1,82,83
 161 268 161 268 407 455 c 1,84,85
 509 527 509 527 519 537 c 1,86,-1
 519 555 l 1,87,-1
 517 555 l 2,88,89
 492 555 492 555 378 498 c 1,90,91
 356 479 356 479 347 479 c 0,92,93
 293 479 293 479 263 573 c 1,94,-1
 275 582 l 1,95,-1
 278 582 l 1,96,97
 316 541 316 541 341 541 c 2,98,-1
 361 541 l 1,99,100
 412 553 412 553 519 592 c 1,101,102
 519 620 519 620 501 674 c 1,103,104
 501 691 501 691 566 713 c 1,105,106
 583 727 583 727 583 737 c 2,107,-1
 583 739 l 2,108,109
 583 766 583 766 509 795 c 1,110,-1
 509 799 l 1,111,112
 515 811 515 811 521 811 c 0,0,1
472 459 m 1,113,-1
 472 455 l 1,114,-1
 509 428 l 1,115,-1
 513 428 l 1,116,117
 517 448 517 448 517 479 c 2,118,-1
 517 483 l 1,119,-1
 511 483 l 1,120,121
 476.5 459 476.5 459 472 459 c 1,113,-1
200 262 m 1,122,-1
 202 262 l 1,123,124
 355 340 355 340 464 367 c 0,125,126
 505 378 505 378 505 381 c 2,127,-1
 505 383 l 1,128,129
 465 442 465 442 447 442 c 1,130,131
 278 329 278 329 200 264 c 1,132,-1
 200 262 l 1,122,-1
464 66 m 1,133,-1
 464 51 l 2,134,135
 464 14 464 14 517 14 c 0,136,137
 578 14 578 14 636 66 c 1,138,-1
 636 72 l 1,139,140
 592 111 592 111 542 111 c 0,141,142
 484 111 484 111 466 78 c 1,143,-1
 464 66 l 1,133,-1
EndSplineSet
EndChar

StartChar: u1B021
Encoding: 33 110625 33
Width: 1048
VWidth: 1048
Flags: W
LayerCount: 2
Fore
SplineSet
334 816 m 0,0,1
 413 816 413 816 422 781 c 1,2,-1
 424 777 l 1,3,-1
 401 720 l 1,4,-1
 401 718 l 1,5,6
 408 718 408 718 442 724 c 1,7,8
 516 724 516 724 516 652 c 0,9,10
 516 566 516 566 449 484 c 1,11,12
 410 445 410 445 385 445 c 0,13,14
 368 445 368 445 350 486 c 1,15,16
 318 517 318 517 307 523 c 1,17,-1
 303 523 l 1,18,19
 259 443 259 443 236 443 c 0,20,21
 221 443 221 443 215 470 c 1,22,23
 215 493 215 493 272 562 c 1,24,25
 317 630 317 630 317 650 c 1,26,27
 248 626 248 626 240 626 c 0,28,29
 199 626 199 626 172 706 c 1,30,31
 185 716 185 716 193 716 c 1,32,33
 220 679 220 679 242 679 c 2,34,-1
 262 679 l 1,35,36
 348 700 348 700 348 712 c 1,37,38
 365 751 365 751 365 763 c 0,39,40
 365 785 365 785 315 796 c 1,41,-1
 315 798 l 1,42,43
 320 816 320 816 334 816 c 0,0,1
788 744 m 2,44,-1
 795 744 l 1,45,46
 877 732 877 732 877 675 c 0,47,48
 877 611 877 611 776 570 c 1,49,50
 629 489 629 489 555 429 c 0,51,52
 551 422 551 422 551 417 c 0,53,54
 551 407 551 407 633 392 c 1,55,56
 651 377 651 377 651 359 c 0,57,58
 651 349 651 349 594 286 c 1,59,-1
 592 275 l 2,60,61
 593 271 593 271 596 271 c 2,62,-1
 664 278 l 1,63,64
 770 278 770 278 813 200 c 0,65,66
 823 180 823 180 823 155 c 0,67,68
 823 18 823 18 629 -15 c 0,69,70
 575 -22 575 -22 541 -22 c 0,71,72
 359 -22 359 -22 322 54 c 0,73,74
 317 62 317 62 317 77 c 2,75,-1
 317 83 l 2,76,77
 317 133 317 133 403 151 c 0,78,79
 417 153 417 153 428 153 c 0,80,81
 532 153 532 153 600 19 c 1,82,83
 680 31 680 31 731 77 c 1,84,85
 756 113 756 113 756 138 c 2,86,-1
 756 167 l 2,87,88
 756 220 756 220 705 241 c 0,89,90
 692 245 692 245 676 245 c 2,91,-1
 645 245 l 2,92,93
 635 245 635 245 586 232 c 1,94,95
 557 232 557 232 551 271 c 1,96,97
 552 298 552 298 580 339 c 1,98,-1
 580 345 l 2,99,100
 577 350 577 350 516 374 c 1,101,102
 502 388 502 388 502 404 c 0,103,104
 502 434 502 434 692 558 c 1,105,106
 813 627 813 627 813 656 c 2,107,-1
 815 677 l 2,108,109
 815 707 815 707 795 718 c 1,110,-1
 776 718 l 2,111,112
 728 718 728 718 676 624 c 0,113,114
 661 597 661 597 647 597 c 0,115,116
 623 597 623 597 602 689 c 1,117,118
 594 697 594 697 586 697 c 2,119,-1
 571 693 l 1,120,-1
 561 706 l 1,121,-1
 561 708 l 1,122,123
 565 718 565 718 598 728 c 1,124,125
 632 728 632 728 659 675 c 1,126,127
 729.5 744 729.5 744 788 744 c 2,44,-1
313 546 m 1,128,129
 375 511 375 511 389 511 c 2,130,-1
 391 511 l 2,131,132
 421 511 421 511 459 622 c 0,133,134
 463 637 463 637 463 663 c 0,135,136
 463 685 463 685 449 691 c 1,137,-1
 430 691 l 2,138,139
 381 691 381 691 369 656 c 1,140,-1
 313 546 l 1,128,129
356 81 m 2,141,-1
 356 71 l 2,142,143
 356 32 356 32 477 13 c 0,144,145
 478 13 478 13 518 11 c 0,146,147
 546 13 546 13 553 13 c 1,148,-1
 553 19 l 1,149,150
 496 108 496 108 432 108 c 2,151,-1
 399 108 l 2,152,153
 356 108 356 108 356 81 c 2,141,-1
EndSplineSet
EndChar

StartChar: u1B022
Encoding: 34 110626 34
Width: 1048
VWidth: 1048
Flags: W
LayerCount: 2
Fore
SplineSet
464 798 m 1,0,1
 542 788 542 788 542 749 c 1,2,3
 529 682 529 682 529 681 c 1,4,-1
 531 681 l 1,5,6
 620 724 620 724 693 724 c 1,7,8
 812 715 812 715 812 646 c 0,9,10
 812 580 812 580 656 562 c 1,11,12
 611 562 611 562 572 587 c 1,13,14
 572 603 572 603 581 603 c 0,15,16
 607 595 607 595 634 595 c 2,17,-1
 656 595 l 1,18,19
 738.5 602.5 738.5 602.5 749 640 c 1,20,-1
 751 652 l 1,21,22
 751 697 751 697 685 697 c 0,23,24
 601 697 601 697 519 644 c 1,25,26
 488 557 488 557 435 427 c 1,27,-1
 435 425 l 2,28,29
 435 417 435 417 488 409 c 1,30,31
 554 388 554 388 593 327 c 1,32,33
 622 271 622 271 622 208 c 0,34,35
 622 109 622 109 556 40 c 0,36,37
 510 -3 510 -3 464 -3 c 2,38,-1
 462 -3 l 2,39,40
 400 -3 400 -3 325 134 c 1,41,-1
 321 134 l 1,42,43
 282 104 282 104 200 30 c 1,44,45
 178 19 178 19 169 19 c 0,46,47
 138 19 138 19 132 83 c 1,48,49
 141 217 141 217 230 249 c 0,50,51
 240 251 240 251 247 251 c 2,52,-1
 249 251 l 2,53,54
 286.5 251 286.5 251 327 185 c 1,55,-1
 331 185 l 1,56,57
 407 248 407 248 454 280 c 1,58,-1
 460 280 l 1,59,60
 466 265 466 265 466 261 c 0,61,62
 388 204 388 204 345 157 c 1,63,-1
 345 155 l 1,64,65
 403 62 403 62 464 46 c 1,66,-1
 466 46 l 2,67,68
 517 46 517 46 550 140 c 1,69,70
 556 176 556 176 556 202 c 2,71,-1
 556 214 l 2,72,73
 556 351 556 351 470 378 c 1,74,75
 394 382 394 382 394 411 c 2,76,-1
 394 419 l 2,77,78
 394 426 394 426 443 570 c 1,79,-1
 454 613 l 1,80,-1
 450 615 l 1,81,82
 313 542 313 542 273 542 c 0,83,84
 221 542 221 542 194 632 c 1,85,-1
 210 646 l 1,86,87
 248 599 248 599 273 599 c 2,88,-1
 286 599 l 2,89,90
 354 599 354 599 464 654 c 1,91,92
 474 701 474 701 474 740 c 0,93,94
 474 761 474 761 443 761 c 0,95,96
 425 761 425 761 396 751 c 1,97,-1
 386 767 l 1,98,99
 413 791 413 791 464 798 c 1,0,1
769 441 m 2,100,-1
 771 441 l 2,101,102
 814 441 814 441 814 402 c 0,103,104
 814 377 814 377 749 232 c 0,105,106
 740 203 740 203 740 196 c 2,107,-1
 740 189 l 1,108,109
 759 155 759 155 841 155 c 2,110,-1
 876 155 l 2,111,112
 902 155 902 155 916 122 c 1,113,114
 916 96 916 96 867 93 c 0,115,116
 783 93 783 93 714 144 c 1,117,118
 701 170 701 170 701 181 c 0,119,120
 708.5 221.5 708.5 221.5 746 355 c 0,121,122
 746 361 746 361 747.5 372.5 c 128,-1,123
 749 384 749 384 749 388 c 0,124,125
 745 396 745 396 740 398 c 2,126,-1
 734 398 l 2,127,128
 716 398 716 398 677 368 c 1,129,-1
 673 368 l 2,130,131
 670 368 670 368 663 380 c 1,132,-1
 663 382 l 1,133,134
 721 441 721 441 769 441 c 2,100,-1
183 110 m 1,135,136
 184 83 184 83 191 83 c 2,137,-1
 196 83 l 2,138,139
 209 83 209 83 300 163 c 1,140,-1
 300 165 l 1,141,142
 269 224 269 224 237 224 c 0,143,144
 199.5 224 199.5 224 183 110 c 1,135,136
EndSplineSet
EndChar

StartChar: u1B023
Encoding: 35 110627 35
Width: 1048
VWidth: 1048
Flags: W
LayerCount: 2
Fore
SplineSet
437 801 m 1,0,1
 519 791 519 791 519 774 c 1,2,3
 531 768 531 768 531 748 c 1,4,5
 521 711 521 711 521 672 c 1,6,7
 523 672 523 672 523 670 c 1,8,9
 613 685 613 685 652 707 c 0,10,11
 656 713 656 713 689 721 c 1,12,13
 731 721 731 721 740 694 c 1,14,15
 740 659 740 659 519 623 c 1,16,-1
 517 618 l 1,17,-1
 517 575 l 2,18,19
 517 541 517 541 572 541 c 2,20,-1
 595 541 l 2,21,22
 612 541 612 541 650 547 c 1,23,24
 693 535 693 535 693 508 c 0,25,26
 693 489 693 489 603 477 c 1,27,28
 497 441 497 441 427 399 c 1,29,30
 474 358 474 358 474 340 c 2,31,-1
 474 338 l 2,32,33
 474 292 474 292 321 238 c 1,34,35
 308 238 308 238 308 162 c 2,36,-1
 308 154 l 2,37,38
 308 92 308 92 323 92 c 2,39,-1
 325 92 l 2,40,41
 336 92 336 92 437 180 c 1,42,-1
 570 272 l 1,43,44
 570 391 570 391 626 438 c 1,45,46
 638 442 638 442 644 442 c 2,47,-1
 646 442 l 2,48,49
 664 442 664 442 763 406 c 1,50,51
 830 397 830 397 830 375 c 2,52,-1
 830 373 l 2,53,54
 830 350 830 350 742 328 c 1,55,56
 658 290 658 290 622 262 c 1,57,-1
 622 231 l 2,58,59
 622 131 622 131 652 106 c 0,60,61
 680.5 82 680.5 82 757 82 c 0,62,63
 816 82 816 82 867 98 c 1,64,65
 906 92 906 92 906 61 c 1,66,67
 891 29 891 29 779 29 c 2,68,-1
 746 29 l 2,69,70
 632 29 632 29 593 96 c 0,71,72
 570 139 570 139 570 219 c 2,73,-1
 570 227 l 1,74,-1
 564 227 l 1,75,76
 494 184 494 184 392 82 c 1,77,78
 345 0 345 0 331 -4 c 2,79,80
 331 -4 331 -4 325 -6 c 0,81,82
 276 -6 276 -6 257 115 c 0,83,84
 257 126 257 126 255 152 c 2,85,-1
 259 221 l 1,86,87
 223 215 223 215 208 215 c 2,88,-1
 198 215 l 1,89,90
 142 220 142 220 142 258 c 0,91,92
 142 289 142 289 171 315 c 1,93,-1
 173 315 l 2,94,95
 187 314 187 314 189 307 c 1,96,97
 181 291 181 291 181 283 c 2,98,-1
 181 279 l 2,99,100
 181 264 181 264 198 264 c 0,101,102
 269 264 269 264 269 283 c 0,103,104
 276 343 276 343 325 412 c 1,105,106
 350 438 350 438 368 438 c 0,107,108
 383 438 383 438 404 420 c 0,109,110
 409 420 409 420 546 494 c 1,111,-1
 546 496 l 1,112,113
 470 511 470 511 470 543 c 1,114,115
 464 558 464 558 464 584 c 2,116,-1
 464 596 l 1,117,-1
 466 616 l 1,118,119
 465 616 465 616 461.5 615.5 c 128,-1,120
 458 615 458 615 451 614.5 c 128,-1,121
 444 614 444 614 437 614 c 0,122,123
 333 614 333 614 286 676 c 1,124,125
 295 692 295 692 300 694 c 1,126,127
 345 662 345 662 419 662 c 2,128,-1
 452 662 l 1,129,-1
 466 664 l 1,130,131
 468 704 468 704 468 709 c 2,132,-1
 468 735 l 2,133,134
 468 768 468 768 419 778 c 1,135,136
 419 798 419 798 437 801 c 1,0,1
624 305 m 1,137,138
 625 305 625 305 744 369 c 1,139,140
 730 386 730 386 673 406 c 1,141,-1
 658 406 l 1,142,143
 624 376 624 376 624 305 c 1,137,138
323 289 m 1,144,145
 427 323 427 323 427 350 c 2,146,-1
 427 354 l 1,147,148
 409 397 409 397 380 397 c 0,149,150
 353 397 353 397 323 289 c 1,144,145
EndSplineSet
EndChar

StartChar: u1B024
Encoding: 36 110628 36
Width: 1048
VWidth: 1048
Flags: W
LayerCount: 2
Fore
SplineSet
662 834 m 0,0,1
 696 834 696 834 711 782 c 0,2,3
 711 768 711 768 653 707 c 1,4,-1
 643 692 l 1,5,-1
 643 684 l 1,6,7
 655 684 655 684 707 721 c 0,8,9
 713 721 713 721 713 723 c 1,10,11
 764 712 764 712 764 686 c 0,12,13
 764 656 764 656 631 575 c 1,14,15
 488 479 488 479 477 479 c 1,16,17
 477 481 477 481 465 496 c 1,18,19
 578 572 578 572 694 666 c 0,20,21
 698 673 698 673 698 676 c 1,22,-1
 694 676 l 2,23,24
 685 676 685 676 606 645 c 1,25,-1
 604 645 l 2,26,27
 597 648 597 648 592 662 c 0,28,29
 592 667 592 667 631 727 c 1,30,31
 651 770 651 770 651 782 c 2,32,-1
 651 786 l 1,33,-1
 649 786 l 1,34,35
 614 774 614 774 559 725 c 1,36,-1
 545 741 l 1,37,38
 635 834 635 834 662 834 c 0,0,1
334 809 m 1,39,40
 375 777 375 777 375 752 c 0,41,42
 375 719 375 719 326 643 c 1,43,-1
 326 639 l 1,44,-1
 328 639 l 1,45,46
 353 647 353 647 399 678 c 0,47,48
 405 680 405 680 406 680 c 0,49,50
 413 680 413 680 432 655 c 1,51,-1
 432 649 l 2,52,53
 432 638 432 638 373 582 c 1,54,55
 303 499 303 499 293 481 c 1,56,-1
 297 481 l 1,57,58
 304 486 304 486 430 588 c 1,59,-1
 432 588 l 1,60,61
 432 584 432 584 442 571 c 1,62,-1
 442 569 l 1,63,64
 427 555 427 555 281 414 c 0,65,66
 280 414 280 414 274 412 c 0,67,68
 249 412 249 412 233 446 c 1,69,70
 233 462 233 462 309 553 c 1,71,72
 348 608 348 608 348 614 c 1,73,-1
 346 614 l 2,74,75
 334 614 334 614 252 559 c 1,76,-1
 242 557 l 1,77,78
 227 561.5 227 561.5 227 590 c 0,79,80
 227 609 227 609 268 633 c 1,81,82
 332 712 332 712 332 768 c 0,83,84
 332 780 332 780 317 795 c 0,85,86
 317 797 317 797 334 809 c 1,39,40
604 514 m 1,87,88
 663 488 663 488 670 481 c 0,89,90
 670 477 670 477 672 477 c 1,91,92
 672 458 672 458 616 422 c 1,93,94
 616 324 616 324 621 84 c 1,95,96
 610.5 -39 610.5 -39 561 -39 c 0,97,98
 545 -39 545 -39 504 29 c 1,99,100
 431 102 431 102 426 102 c 0,101,102
 364 48 364 48 313 2 c 1,103,-1
 307 2 l 1,104,105
 266 17 266 17 266 47 c 0,106,107
 266 58 266 58 315 106 c 1,108,109
 393 199 393 199 395 225 c 2,110,-1
 395 227 l 1,111,-1
 393 227 l 2,112,113
 377 227 377 227 279 150 c 1,114,-1
 270 150 l 2,115,116
 259 150 259 150 252 190 c 0,117,118
 252 212 252 212 301 231 c 1,119,120
 367 300 367 300 367 319 c 1,121,122
 268 283 268 283 233 283 c 2,123,-1
 225 283 l 2,124,125
 168 283 168 283 141 350 c 1,126,-1
 141 352 l 2,127,128
 141 358 141 358 156 365 c 1,129,-1
 158 365 l 1,130,131
 179 336 179 336 213 336 c 2,132,-1
 231 336 l 2,133,134
 330 336 330 336 567 449 c 1,135,136
 583 514 583 514 604 514 c 1,87,88
348 236 m 1,137,138
 410 279 410 279 420 279 c 0,139,140
 446 279 446 279 463 248 c 1,141,142
 463 239 463 239 414 186 c 1,143,144
 340 94 340 94 340 86 c 1,145,-1
 342 86 l 2,146,147
 346.5 86 346.5 86 483 197 c 1,148,149
 563 254 563 254 569 262 c 1,150,-1
 569 406 l 1,151,-1
 567 406 l 1,152,153
 403 337 403 337 403 330 c 0,154,155
 389 299 389 299 348 238 c 1,156,-1
 348 236 l 1,137,138
750 281 m 0,157,158
 810 281 810 281 885 195 c 0,159,160
 907 166 907 166 907 129 c 1,161,162
 898 82 898 82 874 82 c 2,163,-1
 870 82 l 2,164,165
 845 82 845 82 838 143 c 1,166,167
 817 211 817 211 766 246 c 1,168,-1
 733 260 l 1,169,170
 744 281 744 281 750 281 c 0,157,158
446 121 m 1,171,-1
 446 115 l 1,172,173
 533 51 533 51 557 51 c 2,174,-1
 561 51 l 2,175,176
 565.5 51 565.5 51 567 66 c 0,177,178
 569 176 569 176 569 199 c 2,179,-1
 569 225 l 1,180,-1
 565 225 l 1,181,182
 457 134 457 134 446 121 c 1,171,-1
EndSplineSet
EndChar

StartChar: u1B025
Encoding: 37 110629 37
Width: 1048
VWidth: 1048
Flags: W
LayerCount: 2
Fore
SplineSet
380 825 m 0,0,1
 427 825 427 825 462 739 c 1,2,-1
 466 737 l 1,3,4
 549 786 549 786 595 786 c 0,5,6
 651 786 651 786 660 739 c 1,7,-1
 660 735 l 2,8,9
 660 696 660 696 548 614 c 1,10,-1
 534 600 l 1,11,12
 534 589 534 589 581 512 c 1,13,14
 626 526 626 526 724 549 c 1,15,-1
 724 551 l 1,16,17
 672 594 672 594 663 606 c 1,18,19
 673.5 621 673.5 621 681 621 c 1,20,21
 741 567 741 567 806 567 c 0,22,23
 825 567 825 567 837 543 c 1,24,25
 837 510 837 510 749 506 c 0,26,27
 663 506 663 506 597 483 c 1,28,-1
 597 481 l 1,29,30
 621 424 621 424 632 424 c 0,31,32
 680 442 680 442 703 442 c 0,33,34
 775 442 775 442 775 387 c 0,35,36
 775 352 775 352 712 281 c 1,37,38
 763 189 763 189 876 35 c 0,39,40
 884 19 884 19 884 10 c 0,41,42
 884 -13 884 -13 855 -31 c 1,43,44
 842 -31 842 -31 796 18 c 1,45,46
 704 74 704 74 538 133 c 1,47,-1
 536 133 l 1,48,49
 424 53 424 53 331 0 c 1,50,-1
 327 0 l 2,51,52
 323 1 323 1 308 25 c 1,53,54
 430 96 430 96 562 203 c 1,55,56
 637 269 637 269 658 295 c 1,57,58
 618 368 618 368 605 381 c 1,59,-1
 603 381 l 1,60,61
 530 344 530 344 413 219 c 0,62,63
 368 167 368 167 351 109 c 1,64,65
 333 88 333 88 323 88 c 2,66,-1
 321 88 l 2,67,68
 306 88 306 88 294 117 c 1,69,-1
 296 137 l 1,70,-1
 296 160 l 2,71,72
 296 240 296 240 269 287 c 1,73,74
 284 299 284 299 290 299 c 1,75,76
 320 263 320 263 335 201 c 1,77,-1
 339 201 l 1,78,79
 447 316 447 316 509 356 c 2,80,-1
 591 408 l 1,81,82
 561 469 561 469 552 469 c 0,83,84
 421.5 419.5 421.5 419.5 282 334 c 0,85,86
 281 334 281 334 191 264 c 1,87,-1
 181 262 l 1,88,89
 165 266 165 266 165 287 c 2,90,-1
 165 293 l 2,91,92
 165 347 165 347 234 377 c 1,93,94
 478 606 478 606 478 608 c 2,95,-1
 478 612 l 1,96,97
 474 613 474 613 439 680 c 1,98,-1
 437 680 l 2,99,100
 425 680 425 680 325 588 c 1,101,102
 312 584 312 584 306 584 c 0,103,104
 259 584 259 584 251 676 c 1,105,-1
 251 686 l 2,106,107
 251 702 251 702 271 705 c 1,108,109
 288 653 288 653 300 653 c 2,110,-1
 314 653 l 2,111,112
 321 653 321 653 417 711 c 1,113,-1
 419 715 l 1,114,-1
 419 717 l 1,115,116
 386 791 386 791 337 791 c 2,117,-1
 321 791 l 1,118,-1
 310 788 l 1,119,-1
 306 795 l 1,120,-1
 306 815 l 1,121,122
 346 824 346 824 380 825 c 0,0,1
478 711 m 1,123,124
 478 703 478 703 513 639 c 1,125,126
 589 699 589 699 589 729 c 2,127,-1
 589 739 l 2,128,129
 589 754 589 754 574 754 c 2,130,-1
 560 754 l 2,131,132
 534 754 534 754 478 711 c 1,123,124
286 387 m 1,133,-1
 288 387 l 1,134,135
 422 455 422 455 540 496 c 1,136,-1
 540 500 l 1,137,138
 506 566 506 566 497 571 c 1,139,140
 389 486 389 486 286 389 c 1,141,-1
 286 387 l 1,133,-1
644 401 m 1,142,-1
 644 397 l 2,143,144
 644 386 644 386 685 328 c 1,145,146
 709 355 709 355 712 381 c 2,147,-1
 712 399 l 1,148,149
 706 412 706 412 693 412 c 2,150,-1
 689 412 l 2,151,152
 672 412 672 412 644 401 c 1,142,-1
568 158 m 1,153,-1
 568 154 l 1,154,155
 629 134 629 134 785 76 c 1,156,-1
 787 76 l 1,157,158
 784 89.5 784 89.5 685 250 c 1,159,-1
 679 250 l 1,160,-1
 568 158 l 1,153,-1
EndSplineSet
EndChar

StartChar: u1B026
Encoding: 38 110630 38
Width: 1048
VWidth: 1048
Flags: W
LayerCount: 2
Fore
SplineSet
583 768 m 0,0,1
 597 768 597 768 640 731 c 1,2,3
 681 713 681 713 681 694 c 0,4,5
 681 637 681 637 544 602 c 1,6,7
 538 551 538 551 538 506 c 2,8,-1
 538 498 l 2,9,10
 538 424 538 424 579 266 c 0,11,12
 583 235 583 235 583 209 c 2,13,-1
 583 184 l 1,14,15
 588 179 588 179 652 156 c 1,16,17
 767 95 767 95 767 53 c 0,18,19
 767 35 767 35 742 27 c 1,20,21
 722 27 722 27 685 70 c 1,22,23
 624 121 624 121 572 133 c 1,24,-1
 570 133 l 1,25,26
 522 37 522 37 407 37 c 2,27,-1
 396 37 l 2,28,29
 300 37 300 37 282 117 c 1,30,31
 282 178 282 178 392 199 c 0,32,33
 425 203 425 203 445 203 c 0,34,35
 461.5 203 461.5 203 523 197 c 1,36,-1
 523 211 l 2,37,38
 523 257.5 523 257.5 493 424 c 1,39,40
 488 477 488 477 488 498 c 0,41,42
 488 544 488 544 497 600 c 1,43,44
 439 600 439 600 372 637 c 0,45,46
 355 649 355 649 355 651 c 2,47,-1
 355 653 l 1,48,49
 360 672 360 672 364 672 c 0,50,51
 423 647 423 647 495 647 c 2,52,-1
 503 647 l 2,53,54
 506 648 506 648 527 715 c 1,55,56
 557 768 557 768 583 768 c 0,0,1
556 655 m 1,57,-1
 556 651 l 1,58,59
 560 651 560 651 560 649 c 1,60,61
 610 664 610 664 632 690 c 1,62,-1
 632 702 l 1,63,64
 614 725 614 725 599 725 c 2,65,-1
 587 725 l 2,66,67
 573 725 573 725 556 655 c 1,57,-1
325 111 m 2,68,69
 325 77 325 77 411 72 c 1,70,71
 484 72 484 72 517 143 c 0,72,73
 519 147 519 147 519 154 c 1,74,75
 489 164 489 164 458 164 c 2,76,-1
 415 164 l 1,77,78
 325 158 325 158 325 127 c 2,79,-1
 325 111 l 2,68,69
EndSplineSet
EndChar

StartChar: u1B027
Encoding: 39 110631 39
Width: 1048
VWidth: 1048
Flags: W
LayerCount: 2
Fore
SplineSet
447 804 m 2,0,-1
 454 804 l 1,1,2
 562 796 562 796 562 751 c 1,3,4
 554 725 554 725 554 595 c 1,5,6
 556 595 556 595 556 593 c 1,7,8
 672 611 672 611 749 638 c 0,9,10
 766 647 766 647 794 652 c 1,11,12
 822 648 822 648 822 630 c 0,13,14
 822 583 822 583 550 540 c 1,15,16
 548 490 548 490 548 263 c 1,17,18
 695 251 695 251 873 151 c 1,19,20
 906 126 906 126 906 95 c 0,21,22
 906 71 906 71 886 62 c 1,23,24
 873 69 873 69 796 128 c 1,25,26
 717 179 717 179 613 214 c 0,27,28
 560 228 560 228 546 228 c 1,29,-1
 546 226 l 2,30,31
 546 162 546 162 552 105 c 1,32,33
 552 26 552 26 488 -9 c 1,34,35
 471 -9 471 -9 411 93 c 0,36,37
 392 131 392 131 329 191 c 1,38,-1
 325 191 l 1,39,40
 286 186 286 186 171 52 c 1,41,-1
 157 46 l 1,42,43
 142 50.5 142 50.5 142 73 c 0,44,45
 142 132 142 132 198 161 c 1,46,47
 316.5 252.5 316.5 252.5 366 341 c 1,48,49
 404 398 404 398 404 421 c 0,50,51
 404 443 404 443 372 458 c 1,52,-1
 372 460 l 1,53,54
 376 474 376 474 388 474 c 0,55,56
 457 474 457 474 466 433 c 0,57,58
 466 431 466 431 468 425 c 0,59,60
 468 384 468 384 327 228 c 1,61,62
 329 228 329 228 329 226 c 1,63,64
 439 261 439 261 499 261 c 1,65,-1
 499 263 l 2,66,67
 499 270 499 270 499.5 302 c 128,-1,68
 500 334 500 334 500.5 399 c 128,-1,69
 501 464 501 464 501 534 c 1,70,-1
 499 534 l 1,71,72
 448 527 448 527 384 527 c 2,73,-1
 364 527 l 2,74,75
 260 527 260 527 204 595 c 0,76,77
 205 600 205 600 216 611 c 1,78,79
 266 572 266 572 361 572 c 1,80,81
 454 576 454 576 501 583 c 1,82,-1
 501 726 l 2,83,84
 501 759 501 759 431 783 c 1,85,-1
 431 787 l 1,86,87
 436 804 436 804 447 804 c 2,0,-1
353 202 m 1,88,89
 353 197 353 197 413 146 c 1,90,91
 478 77 478 77 484 77 c 2,92,-1
 486 77 l 2,93,94
 497 77 497 77 497 159 c 2,95,-1
 497 226 l 1,96,-1
 480 226 l 2,97,98
 416 226 416 226 353 202 c 1,88,89
EndSplineSet
EndChar

StartChar: u1B028
Encoding: 40 110632 40
Width: 1048
VWidth: 1048
Flags: W
LayerCount: 2
Fore
SplineSet
304 800 m 1,0,1
 348 744 348 744 443 716 c 1,2,3
 488 707 488 707 488 671 c 1,4,5
 480 636 480 636 456 636 c 1,6,7
 416 646 416 646 388 646 c 2,8,-1
 366 646 l 2,9,10
 314 646 314 646 314 642 c 1,11,12
 309 642 309 642 302 656 c 0,13,14
 302 660 302 660 394 681 c 1,15,-1
 394 683 l 1,16,17
 350 703 350 703 316 742 c 0,18,19
 305 756 305 756 290 785 c 1,20,21
 292 792 292 792 304 800 c 1,0,1
730 697 m 0,22,23
 776 697 776 697 798 638 c 1,24,-1
 798 632 l 2,25,26
 798 611 798 611 736 484 c 1,27,-1
 736 480 l 2,28,29
 736 477 736 477 785 462 c 1,30,31
 888 418 888 418 888 321 c 0,32,33
 888 145.5 888 145.5 531 -3 c 1,34,-1
 519 -5 l 1,35,-1
 517 -5 l 1,36,37
 505 2 505 2 505 15 c 1,38,39
 822 151 822 151 822 321 c 0,40,41
 822 417 822 417 742 447 c 1,42,43
 699 456 699 456 699 476 c 1,44,45
 732 572 732 572 732 613 c 2,46,-1
 732 632 l 2,47,48
 732 654 732 654 714 654 c 2,49,-1
 712 654 l 2,50,51
 668 654 668 654 456 435 c 0,52,53
 413 386 413 386 402 372 c 1,54,55
 403 234 403 234 409 159 c 1,56,57
 409 108 409 108 361 69 c 1,58,59
 345 67 345 67 343 67 c 0,60,61
 333 67 333 67 273 103 c 1,62,63
 165 153 165 153 163 165 c 0,64,65
 161 171 161 171 161 171 c 1,66,67
 161 201 161 201 353 384 c 1,68,-1
 353 484 l 2,69,70
 353 489 353 489 343 490 c 1,71,72
 280 468 280 468 243 468 c 1,73,74
 173 476 173 476 173 523 c 2,75,-1
 173 527 l 2,76,77
 173 564 173 564 212 585 c 1,78,-1
 216 585 l 1,79,80
 220 581 220 581 224 581 c 1,81,-1
 224 574 l 1,82,83
 214 563 214 563 214 548 c 2,84,-1
 214 529 l 2,85,86
 214 516 214 516 259 515 c 2,87,-1
 261 515 l 2,88,89
 299 515 299 515 368 554 c 1,90,-1
 372 554 l 2,91,92
 396 554 396 554 417 519 c 1,93,94
 402 484 402 484 402 427 c 1,95,-1
 407 427 l 1,96,97
 650 675 650 675 714 693 c 0,98,99
 723 697 723 697 730 697 c 0,22,23
226 175 m 1,100,-1
 226 165 l 2,101,102
 226 149 226 149 333 128 c 1,103,-1
 341 128 l 1,104,105
 353 134 353 134 353 146 c 2,106,-1
 353 327 l 1,107,-1
 351 327 l 1,108,109
 245 224 245 224 226 175 c 1,100,-1
EndSplineSet
EndChar

StartChar: u1B029
Encoding: 41 110633 41
Width: 1048
VWidth: 1048
Flags: W
LayerCount: 2
Fore
SplineSet
529 792 m 0,0,1
 557.5 792 557.5 792 568 753 c 1,2,3
 536 584 536 584 536 566 c 1,4,-1
 538 566 l 1,5,6
 590 589 590 589 665 656 c 0,7,8
 671 666.5 671 666.5 671 677 c 2,9,-1
 671 679 l 2,10,11
 671 700 671 700 628 706 c 1,12,-1
 628 708 l 2,13,14
 628 720 628 720 636 730 c 1,15,16
 742 720 742 720 742 679 c 0,17,18
 742 646 742 646 667 603 c 1,19,-1
 667 599 l 1,20,21
 751 532 751 532 839 517 c 1,22,23
 863 500 863 500 863 488 c 0,24,25
 863 462 863 462 794 462 c 0,26,27
 676 462 676 462 507 404 c 1,28,-1
 505 390 l 1,29,-1
 505 359 l 2,30,31
 505 344 505 344 613 329 c 1,32,33
 640 317 640 317 640 288 c 0,34,35
 640 269 640 269 587 202 c 1,36,37
 536 125 536 125 536 99 c 2,38,-1
 536 95 l 2,39,40
 536 62 536 62 665 62 c 0,41,42
 694 62 694 62 773 73 c 1,43,44
 812 64 812 64 812 40 c 2,45,-1
 812 38 l 2,46,47
 812 3 812 3 669 3 c 0,48,49
 490 3 490 3 490 77 c 0,50,51
 490 130 490 130 568 265 c 1,52,-1
 568 275 l 2,53,54
 568 283 568 283 495 296 c 1,55,56
 458 312 458 312 458 349 c 1,57,58
 462 378 462 378 462 386 c 1,59,60
 455 386 455 386 296 323 c 0,61,62
 248 308 248 308 220 308 c 0,63,64
 185 311 185 311 185 337 c 0,65,66
 185 371 185 371 245 425 c 1,67,68
 255 421 255 421 261 415 c 1,69,70
 245 392 245 392 245 384 c 2,71,-1
 245 378 l 2,72,73
 245 375 245 375 253 370 c 1,74,-1
 267 370 l 2,75,76
 319 370 319 370 466 425 c 1,77,-1
 503 730 l 1,78,-1
 503 734 l 1,79,80
 499 744 499 744 488 744 c 2,81,-1
 480 744 l 2,82,83
 468 744 468 744 447 732 c 1,84,-1
 445 732 l 1,85,86
 433 740 433 740 433 749 c 1,87,88
 489 792 489 792 529 792 c 0,0,1
310 671 m 1,89,-1
 312 671 l 2,90,91
 322 671 322 671 333 660 c 1,92,93
 324 631 324 631 323 587 c 0,94,95
 325 568 325 568 331 568 c 2,96,-1
 341 568 l 1,97,98
 378 589 378 589 417 620 c 1,99,100
 429 608 429 608 429 599 c 1,101,102
 358 539 358 539 341 501 c 1,103,104
 328 493 328 493 321 493 c 0,105,106
 278 506 278 506 278 556 c 0,107,108
 278 608 278 608 310 671 c 1,89,-1
513 441 m 1,109,-1
 515 441 l 1,110,111
 642 476 642 476 753 497 c 1,112,-1
 753 503 l 1,113,114
 712.5 527 712.5 527 642 587 c 1,115,-1
 638 587 l 1,116,-1
 527 529 l 1,117,-1
 513 441 l 1,109,-1
EndSplineSet
EndChar

StartChar: u1B02A
Encoding: 42 110634 42
Width: 1048
VWidth: 1048
Flags: W
LayerCount: 2
Fore
SplineSet
431 784 m 0,0,1
 457 784 457 784 478 735 c 1,2,3
 531 667 531 667 531 657 c 0,4,5
 531 605 531 605 357 575 c 1,6,7
 318 575 318 575 318 565 c 1,8,9
 299 522 299 522 280 453 c 1,10,-1
 280 449 l 1,11,12
 314 463 314 463 335 463 c 0,13,14
 371 463 371 463 386 424 c 0,15,16
 390 411 390 411 390 395 c 0,17,18
 390 358 390 358 372 307 c 1,19,20
 374 307 374 307 374 305 c 1,21,22
 663.5 590 663.5 590 746 590 c 0,23,24
 817 590 817 590 843 516 c 0,25,26
 849 488 849 488 849 469 c 2,27,-1
 849 455 l 2,28,29
 849 352 849 352 773 315 c 0,30,31
 757 311 757 311 746 311 c 0,32,33
 730 311 730 311 679 332 c 0,34,35
 671 336 671 336 658 336 c 0,36,37
 630 336 630 336 630 227 c 2,38,-1
 630 201 l 2,39,40
 630 113 630 113 660 113 c 1,41,42
 684 98 684 98 728 98 c 2,43,-1
 757 98 l 2,44,45
 780 98 780 98 869 119 c 1,46,47
 900 114 900 114 900 96 c 0,48,49
 900 64 900 64 845 55 c 0,50,51
 804 45 804 45 753 45 c 2,52,-1
 732 45 l 2,53,54
 604 45 604 45 583 139 c 0,55,56
 575 184 575 184 574 213 c 0,57,58
 574 305 574 305 607 362 c 1,59,60
 622 374 622 374 636 377 c 1,61,-1
 714 352 l 1,62,-1
 736 352 l 2,63,64
 782 352 782 352 794 459 c 1,65,66
 794 557 794 557 740 557 c 0,67,68
 664 557 664 557 388 264 c 0,69,70
 344 221 344 221 278 66 c 1,71,72
 240 10 240 10 214 10 c 0,73,74
 194 10 194 10 194 45 c 0,75,76
 194 79 194 79 263 154 c 1,77,78
 339 279 339 279 339 395 c 2,79,-1
 339 397 l 2,80,81
 339 414 339 414 327 422 c 1,82,-1
 314 422 l 2,83,84
 296 422 296 422 255 385 c 1,85,-1
 253 385 l 1,86,87
 224 396 224 396 224 428 c 0,88,89
 224 458 224 458 273 575 c 1,90,-1
 273 578 l 1,91,92
 219 578 219 578 155 643 c 1,93,-1
 148 651 l 1,94,-1
 148 653 l 1,95,96
 153 664 153 664 165 672 c 1,97,98
 221 623 221 623 296 623 c 1,99,100
 376 784 376 784 431 784 c 0,0,1
347 623 m 1,101,102
 478 638 478 638 478 672 c 2,103,-1
 478 674 l 1,104,105
 448 748 448 748 431 748 c 2,106,-1
 429 748 l 1,107,108
 395 719 395 719 364 659 c 0,109,110
 347 630 347 630 347 623 c 1,101,102
EndSplineSet
EndChar

StartChar: u1B02B
Encoding: 43 110635 43
Width: 1048
VWidth: 1048
Flags: W
LayerCount: 2
Fore
SplineSet
439 776 m 1,0,1
 470 754 470 754 470 719 c 0,2,3
 470 669 470 669 411 598 c 1,4,-1
 411 594 l 1,5,-1
 413 594 l 1,6,7
 473 615 473 615 550 653 c 0,8,9
 560 655 560 655 564 655 c 0,10,11
 601 655 601 655 628 596 c 1,12,-1
 628 592 l 1,13,14
 613 539 613 539 417 313 c 0,15,16
 407 303 407 303 407 295 c 1,17,-1
 409 295 l 1,18,19
 424 302.5 424 302.5 460 307 c 1,20,21
 599 295 599 295 787 168 c 1,22,23
 898 85 898 85 898 47 c 0,24,25
 898 26 898 26 867 18 c 1,26,27
 841.5 18 841.5 18 792 84 c 1,28,29
 635 226 635 226 531 254 c 1,30,31
 480 274 480 274 443 274 c 2,32,-1
 439 274 l 2,33,34
 389 274 389 274 308 174 c 1,35,36
 218 72 218 72 187 72 c 2,37,-1
 179 72 l 2,38,39
 151 75 151 75 151 94 c 2,40,-1
 151 98 l 2,41,42
 151 104 151 104 177 147 c 1,43,44
 183 178 183 178 196 178 c 0,45,46
 200 178 200 178 204 180 c 1,47,48
 205 176 205 176 208 176 c 1,49,50
 205 173 205 173 204 141 c 1,51,-1
 206 141 l 2,52,53
 219 141 219 141 331 268 c 1,54,55
 496 475 496 475 544 573 c 0,56,57
 556 591 556 591 556 604 c 2,58,-1
 556 608 l 1,59,-1
 548 608 l 1,60,61
 516 603 516 603 333 496 c 1,62,63
 315 496 315 496 310 537 c 0,64,65
 310 547 310 547 374 614 c 1,66,67
 435 700 435 700 435 737 c 1,68,69
 430 761 430 761 425 766 c 1,70,-1
 425 768 l 2,71,72
 428 776 428 776 439 776 c 1,0,1
EndSplineSet
EndChar

StartChar: u1B02C
Encoding: 44 110636 44
Width: 1048
VWidth: 1048
Flags: W
LayerCount: 2
Fore
SplineSet
497 814 m 1,0,1
 574 786 574 786 574 746 c 0,2,3
 574 716 574 716 501 644 c 0,4,5
 498 638 498 638 447 583 c 1,6,-1
 447 579 l 1,7,-1
 450 579 l 1,8,9
 484 593 484 593 544 628 c 0,10,11
 554 630 554 630 560 630 c 0,12,13
 595 630 595 630 622 574 c 1,14,-1
 622 572 l 2,15,16
 622 561 622 561 589 540 c 1,17,18
 468 384 468 384 361 232 c 1,19,-1
 361 230 l 1,20,21
 467 197 467 197 546 165 c 1,22,23
 753 62 753 62 753 11 c 1,24,25
 747 -19 747 -19 726 -19 c 0,26,27
 712 -16 712 -16 636 48 c 1,28,29
 499 153 499 153 374 185 c 1,30,-1
 345 185 l 2,31,32
 333 185 333 185 312 179 c 1,33,34
 296 183 296 183 296 214 c 0,35,36
 296 226 296 226 341 257 c 1,37,38
 542 555.5 542 555.5 542 581 c 2,39,-1
 542 583 l 1,40,-1
 540 583 l 1,41,42
 510 577 510 577 409 509 c 0,43,44
 403 507 403 507 402 507 c 0,45,46
 389 507 389 507 384 536 c 1,47,48
 384 579 384 579 427 609 c 1,49,50
 515 713 515 713 515 744 c 2,51,-1
 515 753 l 2,52,53
 515 774 515 774 482 794 c 1,54,-1
 482 800 l 2,55,56
 482 802 482 802 497 814 c 1,0,1
EndSplineSet
EndChar

StartChar: u1B02D
Encoding: 45 110637 45
Width: 1048
VWidth: 1048
Flags: W
LayerCount: 2
Fore
SplineSet
375 736 m 1,0,-1
 387 736 l 2,1,2
 481 736 481 736 481 671 c 0,3,4
 479 624 479 624 475 579 c 1,5,-1
 477 579 l 1,6,7
 584 599 584 599 616 599 c 0,8,9
 657 599 657 599 682 534 c 1,10,-1
 682 527 l 2,11,12
 682 519 682 519 633 384 c 1,13,14
 602 279 602 279 602 183 c 0,15,16
 602 144 602 144 637 130 c 0,17,18
 692.5 112 692.5 112 754 112 c 0,19,20
 829 112 829 112 883 132 c 1,21,22
 918 124 918 124 918 103 c 0,23,24
 918 76 918 76 870 67 c 0,25,26
 807 58 807 58 788 58 c 2,27,-1
 741 58 l 2,28,29
 641 58 641 58 578 103 c 1,30,31
 549 135 549 135 549 177 c 2,32,-1
 549 189 l 2,33,34
 549 291 549 291 616 519 c 1,35,-1
 616 538 l 1,36,37
 608 550 608 550 594 550 c 0,38,39
 536 549 536 549 469 521 c 1,40,41
 439 350 439 350 358 239 c 1,42,43
 227 75 227 75 162 75 c 0,44,45
 146 75 146 75 133 93 c 1,46,-1
 133 97 l 1,47,48
 145 134 145 134 145 183 c 2,49,-1
 145 198 l 2,50,51
 146 204 146 204 162 204 c 1,52,53
 176 137 176 137 180 130 c 1,54,-1
 184 130 l 1,55,56
 317 222 317 222 383 394 c 1,57,58
 406 474 406 474 406 497 c 2,59,-1
 406 499 l 1,60,-1
 403 499 l 1,61,62
 312 472 312 472 193 368 c 1,63,64
 155 320 155 320 150 300 c 1,65,-1
 143 300 l 2,66,67
 131 300 131 300 131 308 c 0,68,69
 166 411 166 411 266 476 c 0,70,71
 319 508 319 508 414 550 c 1,72,73
 420 588 420 588 420 669 c 1,74,75
 416 712 416 712 377 712 c 1,76,-1
 367 714 l 1,77,-1
 367 716 l 2,78,79
 367 720 367 720 375 736 c 1,0,-1
EndSplineSet
EndChar

StartChar: u1B02E
Encoding: 46 110638 46
Width: 1048
VWidth: 1048
Flags: W
LayerCount: 2
Fore
SplineSet
745 796 m 1,0,1
 801 788 801 788 801 746 c 0,2,3
 801 716 801 716 743 615 c 1,4,-1
 743 609 l 1,5,6
 771 613 771 613 805 613 c 2,7,-1
 817 613 l 2,8,9
 875 613 875 613 899 570 c 1,10,-1
 899 566 l 2,11,12
 899 549 899 549 874 546 c 2,13,-1
 870 546 l 1,14,15
 766.5 564 766.5 564 717 564 c 1,16,17
 704 556 704 556 606 437 c 1,18,-1
 606 433 l 1,19,-1
 614 433 l 2,20,21
 641 433 641 433 692 441 c 1,22,23
 739 426 739 426 739 404 c 0,24,25
 739 395 739 395 690 325 c 1,26,27
 608 187 608 187 602 124 c 1,28,-1
 602 112 l 1,29,30
 606 103 606 103 621 103 c 0,31,32
 848 103 848 103 848 42 c 0,33,34
 848 28 848 28 821 22 c 1,35,36
 732 52 732 52 727 52 c 0,37,38
 704 59 704 59 592 65 c 1,39,40
 563 79 563 79 563 103 c 0,41,42
 563 152 563 152 670 390 c 1,43,-1
 670 394 l 1,44,-1
 666 396 l 1,45,-1
 664 396 l 1,46,47
 595 384 595 384 578 384 c 0,48,49
 543 384 543 384 543 417 c 0,50,51
 543 428 543 428 592 464 c 1,52,53
 657 548 657 548 657 560 c 1,54,55
 571 560 571 560 428 495 c 1,56,-1
 416 511 l 1,57,-1
 416 513 l 1,58,59
 442 536 442 536 535 572 c 1,60,-1
 535 574 l 1,61,62
 485 612 485 612 485 671 c 0,63,64
 485 726 485 726 528 781 c 1,65,66
 541 779 541 779 541 775 c 2,67,-1
 541 773 l 1,68,69
 530 731 530 731 530 699 c 0,70,71
 535 646 535 646 549 646 c 0,72,73
 552 646 552 646 612 712 c 1,74,75
 623 707 623 707 623 695 c 1,76,77
 588 660 588 660 569 591 c 1,78,79
 562 587 562 587 559 579 c 1,80,81
 561 579 561 579 561 577 c 1,82,83
 600 589 600 589 682 601 c 1,84,85
 731 675 731 675 731 734 c 2,86,-1
 731 751 l 2,87,88
 728 759 728 759 717 759 c 2,89,-1
 713 759 l 2,90,91
 699 759 699 759 680 742 c 1,92,-1
 676 742 l 1,93,94
 676 745 676 745 670 757 c 1,95,96
 697 796 697 796 745 796 c 1,0,1
207 779 m 1,97,98
 281 725 281 725 281 677 c 2,99,-1
 281 673 l 2,100,101
 281 666 281 666 229 499 c 1,102,103
 193 326 193 326 193 208 c 1,104,105
 197.5 130 197.5 130 205 130 c 1,106,107
 253 268 253 268 297 353 c 0,108,109
 300 353 300 353 315 335 c 1,110,111
 240 144 240 144 240 28 c 0,112,113
 240 11 240 11 213 -1 c 1,114,115
 177 -1 177 -1 162 110 c 1,116,117
 150 162 150 162 150 226 c 0,118,119
 150 402 150 402 215 644 c 0,120,121
 219 659 219 659 219 683 c 2,122,-1
 219 703 l 2,123,124
 219 732 219 732 193 765 c 1,125,-1
 193 767 l 1,126,127
 194 767 194 767 207 779 c 1,97,98
EndSplineSet
EndChar

StartChar: u1B02F
Encoding: 47 110639 47
Width: 1048
VWidth: 1048
Flags: W
LayerCount: 2
Fore
SplineSet
565 798 m 1,0,1
 627 760 627 760 627 701 c 0,2,3
 627 679 627 679 586 577 c 1,4,-1
 586 574 l 1,5,6
 589 574 589 574 616 607 c 0,7,8
 685 683 685 683 762 683 c 0,9,10
 850 683 850 683 877 599 c 1,11,12
 883 562 883 562 883 556 c 0,13,14
 883 453 883 453 756 384 c 1,15,16
 700 372 700 372 700 359 c 2,17,-1
 680 278 l 2,18,19
 680 262 680 262 745 234 c 1,20,21
 758 221 758 221 758 210 c 0,22,23
 758 194 758 194 694 138 c 1,24,25
 676 114 676 114 676 101 c 2,26,-1
 676 97 l 2,27,28
 676 62 676 62 807 50 c 0,29,30
 824 50 824 50 836 26 c 1,31,32
 836 2 836 2 791 -3 c 1,33,34
 713 -3 713 -3 655 44 c 1,35,36
 635 67 635 67 635 87 c 0,37,38
 635 124 635 124 694 196 c 1,39,-1
 694 200 l 2,40,41
 694 203 694 203 651 237 c 0,42,43
 637 252 637 252 637 265 c 0,44,45
 657 344 657 344 657 366 c 1,46,47
 599 366 599 366 578 394 c 1,48,-1
 578 400 l 2,49,50
 578 436 578 436 664 486 c 0,51,52
 671 486 671 486 680 490 c 1,53,54
 706 490 706 490 713 441 c 1,55,56
 711 409 711 409 711 404 c 1,57,-1
 713 404 l 1,58,59
 819 446 819 446 819 556 c 0,60,61
 819 621 819 621 784 642 c 1,62,63
 769 646 769 646 764 646 c 2,64,-1
 745 646 l 2,65,66
 665 646 665 646 563 495 c 1,67,68
 538 429 538 429 516 429 c 1,69,70
 489 435 489 435 489 472 c 2,71,-1
 489 480 l 2,72,73
 489 509 489 509 535 560 c 1,74,75
 575 644 575 644 575 712 c 2,76,-1
 575 720 l 2,77,78
 575 755 575 755 545 785 c 1,79,-1
 545 787 l 1,80,-1
 565 798 l 1,0,1
311 779 m 1,81,-1
 313 779 l 1,82,83
 393 735 393 735 393 687 c 0,84,85
 390 655.5 390 655.5 348 603 c 1,86,87
 296 549 296 549 203 464 c 0,88,89
 201 460 201 460 201 456 c 2,90,-1
 201 450 l 1,91,-1
 252 394 l 1,92,93
 262 374 262 374 262 345 c 0,94,95
 242 194 242 194 242 165 c 2,96,-1
 242 134 l 2,97,98
 242 108 242 108 248 108 c 1,99,100
 279 192 279 192 336 306 c 1,101,102
 355 302 355 302 356 296 c 0,103,104
 281 121 281 121 281 24 c 1,105,106
 266 3 266 3 262 3 c 2,107,-1
 256 3 l 2,108,109
 206 3 206 3 195 105 c 1,110,-1
 195 146 l 1,111,-1
 215 349 l 1,112,113
 215 404 215 404 168 443 c 0,114,115
 168 448 168 448 166 452 c 0,116,117
 166 463 166 463 233 531 c 1,118,119
 328 639 328 639 332 689 c 1,120,-1
 332 708 l 2,121,122
 332 728 332 728 299 763 c 1,123,124
 306 777 306 777 311 779 c 1,81,-1
625 402 m 0,125,126
 625 396 625 396 662 396 c 1,127,128
 664 402 664 402 664 404 c 2,129,-1
 664 447 l 1,130,-1
 655 447 l 1,131,132
 625 426 625 426 625 402 c 0,125,126
EndSplineSet
EndChar

StartChar: u1B030
Encoding: 48 110640 48
Width: 1048
VWidth: 1048
Flags: W
LayerCount: 2
Fore
SplineSet
406 788 m 2,0,-1
 408 788 l 1,1,2
 483 762 483 762 483 727 c 0,3,4
 483 705 483 705 434 588 c 1,5,-1
 436 588 l 1,6,7
 556 690 556 690 641 690 c 2,8,-1
 645 690 l 2,9,10
 732 690 732 690 762 612 c 0,11,12
 768 589.5 768 589.5 768 573 c 0,13,14
 768 421.5 768 421.5 621 360 c 1,15,16
 567 351 567 351 567 330 c 1,17,18
 546 292 546 292 498 223 c 1,19,-1
 498 219 l 1,20,21
 503 214 503 214 569 195 c 1,22,23
 578 184 578 184 578 176 c 0,24,25
 575 161 575 161 537 143 c 1,26,27
 516 121 516 121 516 96 c 0,28,29
 516 68 516 68 606 63 c 1,30,-1
 686 63 l 2,31,32
 722 63 722 63 729 41 c 1,33,34
 717 6 717 6 676 6 c 2,35,-1
 664 6 l 2,36,37
 548 6 548 6 479 63 c 1,38,39
 471 79 471 79 471 88 c 0,40,41
 471 118 471 118 518 162 c 1,42,-1
 518 164 l 2,43,44
 518 167 518 167 469 180 c 1,45,46
 459 190 459 190 459 203 c 2,47,-1
 459 205 l 2,48,49
 459 212 459 212 494 270 c 1,50,51
 522 326 522 326 522 340 c 2,52,-1
 522 342 l 1,53,54
 436 353 436 353 436 385 c 2,55,-1
 436 389 l 2,56,57
 436 439 436 439 526 496 c 0,58,59
 541 502 541 502 549 502 c 2,60,-1
 551 502 l 2,61,62
 573 502 573 502 584 477 c 0,63,64
 594 453 594 453 594 424 c 0,65,66
 594 420 594 420 588 381 c 1,67,-1
 590 381 l 2,68,69
 625 381 625 381 674 446 c 1,70,71
 698 491 698 491 698 539 c 2,72,-1
 698 573 l 2,73,74
 698 657 698 657 625 657 c 0,75,76
 524 657 524 657 385 494 c 0,77,78
 372 480 372 480 342 403 c 1,79,80
 312 369 312 369 297 369 c 128,-1,81
 282 369 282 369 281 397 c 0,82,83
 281 459 281 459 348 514 c 1,84,85
 405 599 405 599 432 702 c 0,86,87
 434 702 434 702 434 717 c 2,88,-1
 434 723 l 2,89,90
 434 748 434 748 393 772 c 1,91,92
 402 788 402 788 406 788 c 2,0,-1
485 399 m 1,93,-1
 485 385 l 1,94,95
 493 371 493 371 512 371 c 2,96,-1
 537 371 l 1,97,98
 549 408.5 549 408.5 549 449 c 0,99,100
 548 469 548 469 541 469 c 0,101,102
 508 456 508 456 487 412 c 1,103,-1
 485 399 l 1,93,-1
EndSplineSet
EndChar

StartChar: u1B031
Encoding: 49 110641 49
Width: 1048
VWidth: 1048
Flags: W
LayerCount: 2
Fore
SplineSet
514 803 m 0,0,1
 621 785 621 785 621 745 c 0,2,3
 621 690 621 690 401 580 c 1,4,5
 395 430 395 430 395 375 c 1,6,-1
 399 375 l 1,7,8
 559 512 559 512 653 512 c 0,9,10
 722 512 722 512 780 459 c 1,11,12
 827 397 827 397 827 311 c 0,13,14
 827 244 827 244 791 168 c 1,15,16
 906 95 906 95 915 49 c 1,17,18
 915 24 915 24 885 20 c 1,19,-1
 883 20 l 1,20,-1
 797 104 l 1,21,22
 766 127 766 127 762 127 c 0,23,24
 688 53 688 53 604 53 c 2,25,-1
 602 53 l 2,26,27
 518 53 518 53 489 115 c 1,28,29
 488 131 488 131 485 131 c 1,30,31
 485 193 485 193 547 217 c 0,32,33
 576 227 576 227 604 227 c 0,34,35
 659 227 659 227 745 193 c 1,36,37
 768 244 768 244 768 309 c 0,38,39
 768 430 768 430 700 469 c 1,40,41
 674 477 674 477 664 477 c 2,42,-1
 643 477 l 2,43,44
 542 477 542 477 393 322 c 1,45,-1
 389 125 l 1,46,47
 393 77 393 77 393 61 c 0,48,49
 378 -8 378 -8 342 -8 c 0,50,51
 327 -8 327 -8 309 51 c 1,52,53
 292 89 292 89 233 139 c 1,54,55
 225 136 225 136 176 66 c 1,56,57
 166 66 166 66 166 61 c 1,58,59
 141 61 141 61 133 119 c 1,60,-1
 133 121 l 2,61,62
 133 140 133 140 168 184 c 1,63,64
 252 342 252 342 252 401 c 0,65,66
 252 442 252 442 193 442 c 1,67,-1
 193 444 l 1,68,69
 197.5 465 197.5 465 211 465 c 2,70,-1
 225 465 l 2,71,72
 309 465 309 465 309 418 c 2,73,-1
 309 414 l 1,74,75
 303 355 303 355 193 162 c 1,76,77
 195 162 195 162 348 330 c 1,78,-1
 354 559 l 1,79,-1
 352 559 l 1,80,81
 271 537 271 537 236 537 c 0,82,83
 184 537 184 537 172 582 c 1,84,85
 172 604.5 172 604.5 256 672 c 1,86,87
 312 731 312 731 334 731 c 0,88,89
 361 731 361 731 393 651 c 0,90,91
 399 629 399 629 399 623 c 1,92,-1
 401 623 l 1,93,94
 441 631 441 631 537 719 c 0,95,96
 537 722 537 722 547 735 c 1,97,-1
 547 750 l 1,98,99
 543 764 543 764 496 782 c 1,100,101
 506 802 506 802 514 803 c 0,0,1
215 590 m 1,102,-1
 215 582 l 2,103,104
 215 574 215 574 238 571 c 2,105,-1
 248 571 l 2,106,107
 275 571 275 571 354 600 c 1,108,109
 348 694 348 694 324 694 c 2,110,-1
 319 694 l 2,111,112
 315 694 315 694 215 590 c 1,102,-1
731 676 m 1,113,-1
 733 676 l 1,114,115
 852 635 852 635 895 555 c 1,116,-1
 901 528 l 1,117,118
 894 492 894 492 870 492 c 0,119,120
 852 492 852 492 821 567 c 1,121,122
 769 635 769 635 719 653 c 1,123,-1
 719 655 l 2,124,125
 719 667 719 667 731 676 c 1,113,-1
250 160 m 1,126,-1
 338 84 l 1,127,-1
 342 84 l 1,128,129
 342 123 342 123 346 268 c 1,130,-1
 342 268 l 1,131,132
 250 168 250 168 250 160 c 1,126,-1
528 145 m 2,133,-1
 528 125 l 2,134,135
 528 95 528 95 592 90 c 1,136,-1
 600 90 l 2,137,138
 671 90 671 90 719 150 c 1,139,-1
 719 154 l 1,140,141
 664 190 664 190 598 190 c 0,142,143
 528 190 528 190 528 145 c 2,133,-1
EndSplineSet
EndChar

StartChar: u1B032
Encoding: 50 110642 50
Width: 1048
VWidth: 1048
Flags: W
LayerCount: 2
Fore
SplineSet
419 824 m 2,0,-1
 421 824 l 2,1,2
 509 824 509 824 525 798 c 0,3,4
 529 787 529 787 529 777 c 0,5,6
 529 756 529 756 470 628 c 1,7,-1
 474 628 l 1,8,9
 582 658 582 658 658 658 c 2,10,-1
 660 658 l 2,11,12
 807 658 807 658 873 589 c 1,13,14
 880 568 880 568 880 566 c 0,15,16
 880 525 880 525 790 525 c 1,17,18
 663 502 663 502 591 472 c 0,19,20
 458 409 458 409 419 306 c 0,21,22
 407 267 407 267 407 241 c 2,23,-1
 407 216 l 1,24,-1
 413 216 l 1,25,26
 482 338 482 338 579 382 c 0,27,28
 593 386 593 386 620 392 c 1,29,30
 682 392 682 392 697 294 c 0,31,32
 701 275 701 275 701 249 c 0,33,34
 701 85 701 85 505 -30 c 1,35,-1
 501 -30 l 2,36,37
 498 -30 498 -30 484 -11 c 1,38,39
 602 78 602 78 628 155 c 0,40,41
 640 195 640 195 640 226 c 2,42,-1
 640 253 l 2,43,44
 640 340 640 340 609 355 c 1,45,-1
 593 355 l 1,46,47
 518 328 518 328 456 208 c 1,48,49
 443 173 443 173 431 130 c 0,50,51
 423 116 423 116 400 116 c 1,52,53
 355 132 355 132 355 191 c 0,54,55
 355 349 355 349 527 466 c 0,56,57
 588 504 588 504 703 542 c 1,58,59
 789 565 789 565 796 568 c 1,60,-1
 796 574 l 2,61,62
 796 592 796 592 693 615 c 0,63,64
 671 621 671 621 622 622 c 0,65,66
 523 622 523 622 445 583 c 1,67,68
 376 441 376 441 267 288 c 1,69,70
 232 247 232 247 204 247 c 0,71,72
 169 247 169 247 169 312 c 0,73,74
 169 401 169 401 275 511 c 1,75,76
 325 555 325 555 400 597 c 1,77,78
 444 695 444 695 462 761 c 1,79,-1
 462 777 l 2,80,81
 462 790 462 790 400 802 c 1,82,-1
 400 804 l 1,83,84
 407 824 407 824 419 824 c 2,0,-1
212 331 m 2,85,-1
 212 312 l 2,86,87
 213 308 213 308 216 308 c 2,88,-1
 218 308 l 2,89,90
 242 308 242 308 318 441 c 0,91,92
 365 522 365 522 374 548 c 1,93,94
 276 503 276 503 228 396 c 0,95,96
 212 354 212 354 212 331 c 2,85,-1
EndSplineSet
EndChar

StartChar: u1B033
Encoding: 51 110643 51
Width: 1048
VWidth: 1048
Flags: W
LayerCount: 2
Fore
SplineSet
443 782 m 1,0,-1
 447 782 l 1,1,2
 542 749 542 749 542 702 c 0,3,4
 542 689 542 689 462 535 c 0,5,6
 460 533 460 533 435 492 c 1,7,-1
 437 492 l 1,8,9
 570 599 570 599 683 614 c 1,10,-1
 689 614 l 2,11,12
 771 614 771 614 822 545 c 1,13,14
 831 525 831 525 835 504 c 1,15,16
 835 444 835 444 718 326 c 1,17,-1
 628 227 l 1,18,-1
 628 223 l 1,19,-1
 630 223 l 1,20,21
 676 231 676 231 695 231 c 2,22,-1
 710 231 l 2,23,24
 781 231 781 231 808 180 c 1,25,-1
 812 160 l 1,26,27
 812 82 812 82 587 14 c 0,28,29
 583 12 583 12 577 12 c 2,30,-1
 574 12 l 1,31,32
 574 17 574 17 560 35 c 1,33,34
 566 41 566 41 646 70 c 1,35,36
 742 118 742 118 742 162 c 2,37,-1
 742 164 l 2,38,39
 742 193 742 193 706 193 c 0,40,41
 633 193 633 193 560 150 c 1,42,-1
 558 150 l 2,43,44
 544 150 544 150 540 190 c 0,45,46
 540 201 540 201 595 244 c 1,47,48
 758 429 758 429 759 475 c 0,49,50
 763 491 763 491 763 506 c 0,51,52
 763 557 763 557 708 575 c 0,53,54
 690 580 690 580 681 580 c 0,55,56
 566 580 566 580 366 362 c 0,57,58
 310 296 310 296 263 221 c 1,59,60
 247 205 247 205 237 203 c 1,61,62
 214 209 214 209 214 244 c 2,63,-1
 214 250 l 2,64,65
 214 280 214 280 257 313 c 1,66,67
 346 412 346 412 388 487 c 1,68,69
 476 663 476 663 476 709 c 0,70,71
 476 742 476 742 431 762 c 1,72,73
 441 777 441 777 443 782 c 1,0,-1
EndSplineSet
EndChar

StartChar: u1B034
Encoding: 52 110644 52
Width: 1048
VWidth: 1048
Flags: W
LayerCount: 2
Fore
SplineSet
450 830 m 0,0,1
 488 830 488 830 513 755 c 1,2,3
 529.5 728 529.5 728 531 728 c 0,4,5
 545 728 545 728 622 781 c 1,6,7
 632 783 632 783 638 783 c 2,8,-1
 640 783 l 1,9,10
 683 779 683 779 683 763 c 0,11,12
 683 735 683 735 562 687 c 1,13,-1
 562 681 l 1,14,15
 583 652 583 652 601 634 c 1,16,17
 654 679 654 679 675 679 c 0,18,19
 712.5 679 712.5 679 720 583 c 0,20,21
 726 555 726 555 744 509 c 1,22,23
 744 484 744 484 714 480 c 1,24,25
 675 480 675 480 595 566 c 1,26,27
 571 552 571 552 513 497 c 1,28,-1
 513 493 l 1,29,30
 561 493 561 493 591 452 c 1,31,-1
 603 421 l 1,32,33
 652 433 652 433 683 433 c 0,34,35
 793 433 793 433 818 339 c 1,36,37
 820 315 820 315 820 312 c 0,38,39
 820 210 820 210 720 173 c 0,40,41
 688 165 688 165 671 165 c 0,42,43
 634 165 634 165 591 183 c 1,44,-1
 589 183 l 1,45,46
 589 103.5 589 103.5 538 -36 c 1,47,-1
 536 -36 l 2,48,49
 526 -36 526 -36 513 -28 c 1,50,51
 546 106 546 106 546 316 c 0,52,53
 544 366 544 366 544 372 c 1,54,-1
 540 372 l 1,55,56
 440 339 440 339 294 206 c 0,57,58
 272 181 272 181 259 181 c 1,59,60
 228 196 228 196 228 226 c 0,61,62
 228 245.5 228 245.5 294 310 c 0,63,64
 294 312 294 312 562 599 c 1,65,-1
 562 601 l 1,66,67
 512 669 512 669 507 669 c 0,68,69
 442 652 442 652 411 652 c 2,70,-1
 394 652 l 2,71,72
 331 652 331 652 294 701 c 1,73,74
 300 711.5 300 711.5 300 716 c 1,75,-1
 304 716 l 1,76,77
 339 693 339 693 382 693 c 0,78,79
 471 699 471 699 482 712 c 1,80,81
 445 794 445 794 415 794 c 2,82,-1
 378 794 l 1,83,84
 378 808 378 808 374 808 c 1,85,86
 374 823 374 823 450 830 c 0,0,1
642 595 m 1,87,88
 681 550 681 550 695 550 c 2,89,-1
 697 550 l 1,90,-1
 697 558 l 1,91,92
 688 632 688 632 681 632 c 0,93,94
 642 611 642 611 642 595 c 1,87,88
318 288 m 1,95,96
 424 355 424 355 515 394 c 0,97,98
 542 402 542 402 542 407 c 2,99,-1
 542 423 l 2,100,101
 542 464 542 464 499 474 c 1,102,-1
 497 474 l 2,103,104
 483 474 483 474 400 382 c 1,105,106
 316 296 316 296 316 288 c 1,107,-1
 318 288 l 1,95,96
601 386 m 1,108,-1
 601 335 l 2,109,110
 601 268 601 268 595 216 c 1,111,112
 618 200 618 200 656 200 c 2,113,-1
 677 200 l 2,114,115
 710 200 710 200 746 255 c 1,116,117
 757 285 757 285 757 310 c 2,118,-1
 757 325 l 2,119,120
 757 388 757 388 691 402 c 1,121,-1
 652 402 l 2,122,123
 605 399 605 399 601 386 c 1,108,-1
EndSplineSet
EndChar

StartChar: u1B035
Encoding: 53 110645 53
Width: 1048
VWidth: 1048
Flags: W
LayerCount: 2
Fore
SplineSet
383 824 m 1,0,1
 434 773 434 773 532 773 c 2,2,-1
 549 773 l 2,3,4
 563 773 563 773 610 777 c 0,5,6
 633 777 633 777 643 751 c 1,7,8
 643 719 643 719 573 714 c 1,9,-1
 569 714 l 2,10,11
 467 714 467 714 399 773 c 1,12,13
 371 807 371 807 371 814 c 1,14,-1
 383 824 l 1,0,1
356 716 m 1,15,16
 365 707 365 707 365 703 c 0,17,18
 356 689 356 689 356 685 c 2,19,-1
 356 677 l 2,20,21
 356 654 356 654 379 654 c 2,22,-1
 403 654 l 2,23,24
 434 654 434 654 475 663 c 1,25,26
 502 663 502 663 520 620 c 1,27,28
 516 607 516 607 455 581 c 1,29,30
 362 525 362 525 319 493 c 1,31,-1
 319 490 l 1,32,-1
 322 490 l 1,33,34
 516 566 516 566 659 566 c 2,35,-1
 686 566 l 1,36,37
 869 555 869 555 887 495 c 1,38,39
 887 444 887 444 778 423 c 0,40,41
 778 419 778 419 705 404 c 1,42,-1
 707 386 l 1,43,44
 707 336 707 336 573 298 c 1,45,-1
 573 267 l 1,46,47
 573 267 573 267 575 267.5 c 128,-1,48
 577 268 577 268 581.5 268.5 c 128,-1,49
 586 269 586 269 590 269 c 0,50,51
 625 269 625 269 629 247 c 1,52,53
 627.5 230.5 627.5 230.5 569 196 c 1,54,-1
 569 181 l 1,55,56
 774 138 774 138 774 60 c 0,57,58
 774 40 774 40 750 40 c 0,59,60
 738 40 738 40 659 103 c 1,61,62
 597 134 597 134 571 134 c 2,63,-1
 569 134 l 1,64,-1
 569 132 l 1,65,66
 573 56 573 56 573 40 c 0,67,68
 573 -9 573 -9 522 -30 c 1,69,70
 506 -30 506 -30 436 32 c 0,71,72
 404 57 404 57 319 114 c 1,73,74
 311 135 311 135 311 140 c 0,75,76
 311 188 311 188 494 253 c 1,77,78
 524 258 524 258 524 263 c 2,79,-1
 524 288 l 1,80,-1
 522 288 l 1,81,82
 449 279 449 279 420 278 c 0,83,84
 366 278 366 278 344 308 c 0,85,86
 340 315 340 315 340 327 c 0,87,88
 340 365 340 365 412 392 c 0,89,90
 415 392 415 392 422 382 c 1,91,-1
 422 378 l 1,92,93
 387 364 387 364 387 347 c 2,94,-1
 387 345 l 2,95,96
 387 325 387 325 422 325 c 2,97,-1
 442 325 l 1,98,99
 524 329 524 329 524 339 c 2,100,-1
 524 349 l 2,101,102
 524 472 524 472 596 472 c 0,103,104
 624.5 472 624.5 472 686 427 c 1,105,-1
 690 427 l 1,106,107
 809 457 809 457 809 490 c 2,108,-1
 809 497 l 2,109,110
 809 530 809 530 674 536 c 1,111,-1
 635 536 l 2,112,113
 460 536 460 536 186 372 c 1,114,-1
 178 370 l 2,115,116
 162 370 162 370 162 415 c 0,117,118
 162 450 162 450 213 456 c 0,119,120
 230 457 230 457 387 583 c 0,121,122
 410 597 410 597 410 605 c 1,123,-1
 406 607 l 1,124,-1
 403 607 l 2,125,126
 315 607 315 607 315 665 c 1,127,128
 334 716 334 716 356 716 c 1,15,16
573 351 m 2,129,-1
 573 349 l 1,130,131
 578 349 578 349 578 347 c 1,132,133
 662 368 662 368 662 386 c 2,134,-1
 662 390 l 2,135,136
 662 421 662 421 608 443 c 1,137,-1
 594 443 l 2,138,139
 573 443 573 443 573 351 c 2,129,-1
362 132 m 0,140,141
 362 100.5 362 100.5 512 36 c 1,142,-1
 516 36 l 2,143,144
 520 36 520 36 520 40 c 2,145,-1
 520 58 l 2,146,147
 520 72 520 72 522 140 c 1,148,149
 483 140 483 140 475 161 c 1,150,151
 475 176 475 176 510 196 c 0,152,153
 524 203 524 203 524 208 c 2,154,-1
 524 232 l 1,155,-1
 522 232 l 2,156,157
 491 232 491 232 399 181 c 1,158,159
 362 154 362 154 362 132 c 0,140,141
EndSplineSet
EndChar

StartChar: u1B036
Encoding: 54 110646 54
Width: 1048
VWidth: 1048
Flags: W
LayerCount: 2
Fore
SplineSet
332 813 m 1,0,1
 359 752 359 752 383 752 c 1,2,3
 434 734 434 734 434 723 c 1,4,5
 438 723 438 723 442 702 c 0,6,7
 442 681 442 681 401 676 c 1,8,-1
 389 678 l 1,9,10
 366 675 366 675 322 637 c 1,11,12
 311 641 311 641 307 649 c 1,13,-1
 354 698 l 1,14,15
 313 754 313 754 313 803 c 0,16,17
 313 807 313 807 332 813 c 1,0,1
731 799 m 256,18,19
 745 799 745 799 786 729 c 1,20,21
 844 648 844 648 913 629 c 1,22,23
 938 607 938 607 938 594 c 0,24,25
 927 553 927 553 864 553 c 0,26,27
 786 553 786 553 739 541 c 1,28,29
 743 446 743 446 743 336 c 0,30,31
 743 118.5 743 118.5 659 -18 c 1,32,33
 643 -10 643 -10 641 -10 c 1,34,35
 690 128 690 128 690 328 c 0,36,37
 690 392 690 392 686 520 c 0,38,39
 684 532 684 532 682 532 c 0,40,41
 561 505 561 505 465 432 c 0,42,43
 462 432 462 432 453 444 c 1,44,45
 518 529 518 529 682 578 c 1,46,-1
 682 635 l 2,47,48
 682 654 682 654 680 682 c 0,49,50
 680 771 680 771 700 784 c 1,51,52
 715 799 715 799 731 799 c 256,18,19
739 729 m 0,53,54
 739 726 739 726 738.5 715.5 c 128,-1,55
 738 705 738 705 737.5 685 c 128,-1,56
 737 665 737 665 737 645 c 0,57,58
 739 591 739 591 739 590 c 1,59,60
 866 597 866 597 866 602 c 0,61,62
 866 612 866 612 823 649 c 0,63,64
 796 676 796 676 748 737 c 1,65,-1
 745 737 l 2,66,67
 742 737 742 737 739 729 c 0,53,54
307 532 m 1,68,69
 328 532 328 532 346 498 c 0,70,71
 346 490 346 490 324 446 c 1,72,73
 281 332 281 332 281 254 c 2,74,-1
 281 227 l 2,75,76
 281 198 281 198 289 158 c 1,77,-1
 291 158 l 1,78,79
 349 276 349 276 379 322 c 1,80,81
 393 315 393 315 393 309 c 2,82,-1
 393 307 l 1,83,84
 326 152 326 152 326 88 c 0,85,86
 326 75 326 75 303 63 c 1,87,88
 249 63 249 63 238 233 c 1,89,90
 238 316 238 316 272 473 c 1,91,-1
 270 473 l 1,92,93
 171 430 171 430 164 430 c 0,94,95
 126 430 126 430 111 500 c 1,96,97
 121 510 121 510 129 510 c 1,98,99
 141 483 141 483 172 483 c 128,-1,100
 203 483 203 483 307 532 c 1,68,69
EndSplineSet
EndChar

StartChar: u1B037
Encoding: 55 110647 55
Width: 1048
VWidth: 1048
Flags: W
LayerCount: 2
Fore
SplineSet
376 810 m 2,0,1
 429 810 429 810 429 796 c 0,2,3
 427 779 427 779 421 779 c 2,4,-1
 398 779 l 2,5,6
 374 778 374 778 374 757 c 1,7,8
 389 691 389 691 396 685 c 1,9,-1
 398 685 l 1,10,11
 472 734 472 734 509 734 c 1,12,13
 574 719 574 719 574 681 c 0,14,15
 574 645 574 645 464 554 c 0,16,17
 447 539 447 539 447 536 c 2,18,-1
 480 445 l 1,19,-1
 484 445 l 1,20,21
 541 470 541 470 595 503 c 1,22,23
 603 503 603 503 603 505 c 1,24,25
 628 502 628 502 628 480 c 0,26,27
 628 453 628 453 503 400 c 1,28,-1
 503 396 l 1,29,30
 526 327 526 327 534 327 c 0,31,32
 756 439 756 439 763 447 c 0,33,34
 765 453 765 453 765 456 c 2,35,-1
 765 464 l 2,36,37
 765 476 765 476 722 488 c 1,38,-1
 722 493 l 1,39,40
 726.5 506.5 726.5 506.5 734 511 c 1,41,42
 837 493 837 493 837 447 c 0,43,44
 837 410 837 410 714 368 c 1,45,46
 585 309 585 309 546 288 c 1,47,-1
 546 286 l 1,48,49
 577 204 577 204 581 204 c 2,50,-1
 583 204 l 1,51,52
 589 232 589 232 597 253 c 1,53,54
 610 249 610 249 615 241 c 1,55,-1
 603 134 l 1,56,57
 597 124 597 124 585 124 c 0,58,59
 552 124 552 124 525 222 c 0,60,61
 510 267 510 267 503 267 c 0,62,63
 381 207 381 207 331 163 c 1,64,65
 310 133 310 133 310 116 c 2,66,-1
 310 99 l 2,67,68
 310 42 310 42 466 42 c 0,69,70
 514 42 514 42 585 58 c 1,71,72
 626 50 626 50 626 26 c 0,73,74
 626 -2.5 626 -2.5 515 -13 c 0,75,76
 499 -15 499 -15 486 -15 c 0,77,78
 322 -15 322 -15 278 60 c 1,79,80
 269 91 269 91 269 99 c 2,81,-1
 269 108 l 2,82,83
 269 190 269 190 431 269 c 1,84,-1
 493 306 l 1,85,86
 476 363 476 363 462 384 c 1,87,88
 332 339 332 339 265 339 c 0,89,90
 218 339 218 339 218 376 c 0,91,92
 218 400 218 400 290 445 c 1,93,94
 372 517 372 517 398 546 c 1,95,-1
 370 622 l 1,96,-1
 364 622 l 1,97,98
 306 571 306 571 275 525 c 1,99,100
 261 521 261 521 261 519 c 1,101,102
 214 537 214 537 214 589 c 1,103,-1
 212 601 l 1,104,105
 216 677 216 677 228 677 c 2,106,-1
 249 673 l 1,107,108
 249 595 249 595 269 595 c 0,109,110
 282 595 282 595 353 656 c 1,111,-1
 353 658 l 1,112,113
 312 745 312 745 312 767 c 0,114,115
 312 802 312 802 372 810 c 1,116,-1
 376 810 l 2,0,1
404 654 m 1,117,118
 428 579 428 579 433 579 c 2,119,-1
 435 579 l 1,120,121
 513 651 513 651 513 677 c 2,122,-1
 513 679 l 2,123,124
 513 698 513 698 486 699 c 2,125,-1
 482 699 l 2,126,127
 456 699 456 699 404 654 c 1,117,118
269 394 m 1,128,129
 270 390 270 390 273 390 c 0,130,131
 347 390 347 390 445 427 c 1,132,-1
 445 429 l 1,133,-1
 417 507 l 1,134,-1
 415 507 l 2,135,136
 407 507 407 507 343 452 c 2,137,-1
 269 394 l 1,128,129
EndSplineSet
EndChar

StartChar: u1B038
Encoding: 56 110648 56
Width: 1048
VWidth: 1048
Flags: W
LayerCount: 2
Fore
SplineSet
451 798 m 1,0,1
 563 780 563 780 563 732 c 1,2,3
 555 694 555 694 551 605 c 1,4,5
 590 605 590 605 680 648 c 0,6,7
 684 650 684 650 690 650 c 0,8,9
 727 646 727 646 727 626 c 2,10,-1
 727 622 l 2,11,12
 727 581 727 581 549 556 c 1,13,-1
 549 503 l 2,14,15
 549 439 549 439 555 388 c 1,16,17
 555 334 555 334 506 310 c 1,18,-1
 500 310 l 2,19,20
 488 310 488 310 420 353 c 1,21,22
 372 376 372 376 324 376 c 0,23,24
 219 376 219 376 186 263 c 0,25,26
 182 255 182 255 182 230 c 2,27,-1
 182 226 l 2,28,29
 182 140 182 140 272 87 c 0,30,31
 290 79 290 79 299 79 c 2,32,-1
 309 79 l 2,33,34
 322 79 322 79 379 146 c 0,35,36
 429 199 429 199 440 206 c 1,37,-1
 442 206 l 2,38,39
 445 206 445 206 459 189 c 1,40,-1
 459 187 l 1,41,42
 360 76 360 76 360 13 c 1,43,44
 351 -3 351 -3 330 -3 c 0,45,46
 263 -3 263 -3 178 101 c 1,47,48
 141 160 141 160 141 222 c 2,49,-1
 141 226 l 2,50,51
 141 346 141 346 266 400 c 1,52,53
 307 411 307 411 328 411 c 0,54,55
 399 411 399 411 489 376 c 1,56,-1
 496 376 l 2,57,58
 502 377.5 502 377.5 502 388 c 2,59,-1
 502 554 l 1,60,61
 398 554 398 554 319 624 c 1,62,-1
 319 626 l 1,63,64
 330 642 330 642 330 644 c 1,65,-1
 334 644 l 1,66,67
 398 603 398 603 500 603 c 1,68,-1
 500 701 l 2,69,70
 500 761 500 761 438 773 c 1,71,72
 438 792 438 792 451 798 c 1,0,1
727 353 m 1,73,74
 907 315.5 907 315.5 907 179 c 2,75,-1
 907 169 l 1,76,77
 895 85 895 85 856 85 c 1,78,-1
 817 108 l 1,79,80
 791.5 114 791.5 114 772 114 c 0,81,82
 731 110 731 110 711 110 c 1,83,84
 706.5 128 706.5 128 705 128 c 1,85,86
 705 141 705 141 836 159 c 1,87,88
 844 167 844 167 844 179 c 2,89,-1
 844 181 l 2,90,91
 844 280 844 280 745 321 c 1,92,93
 717 328 717 328 717 335 c 0,94,95
 718 346 718 346 727 353 c 1,73,74
EndSplineSet
EndChar

StartChar: u1B039
Encoding: 57 110649 57
Width: 1048
VWidth: 1048
Flags: W
LayerCount: 2
Fore
SplineSet
308 802 m 1,0,1
 413 784 413 784 413 749 c 1,2,-1
 372 626 l 1,3,-1
 374 626 l 2,4,5
 400 626 400 626 476 681 c 1,6,-1
 497 683 l 1,7,8
 534 680 534 680 534 658 c 0,9,10
 534 625 534 625 353 568 c 1,11,12
 312 435 312 435 282 302 c 1,13,-1
 288 302 l 1,14,15
 391 441 391 441 460 441 c 0,16,17
 486 441 486 441 513 417 c 1,18,-1
 517 417 l 1,19,20
 625 501 625 501 681 505 c 0,21,22
 723 505 723 505 738 472 c 0,23,24
 746 445 746 445 746 443 c 2,25,-1
 722 296 l 1,26,-1
 724 296 l 1,27,28
 764 306 764 306 800 306 c 1,29,30
 894 294 894 294 894 212 c 0,31,32
 894 71 894 71 615 -7 c 1,33,-1
 611 -7 l 1,34,35
 601 6 601 6 601 15 c 1,36,37
 772 68 772 68 818 148 c 0,38,39
 830 176 830 176 830 210 c 0,40,41
 830 278 830 278 794 278 c 2,42,-1
 783 278 l 2,43,44
 764 278 764 278 718 245 c 1,45,46
 718 245 718 245 712 243 c 0,47,48
 677 251 677 251 677 273 c 0,49,50
 683 352.5 683 352.5 683 390 c 2,51,-1
 683 427 l 2,52,53
 682 464 682 464 669 464 c 2,54,-1
 652 464 l 2,55,56
 623 464 623 464 534 390 c 0,57,58
 534 386 534 386 531 386 c 1,59,60
 564 326 564 326 564 259 c 0,61,62
 564 130 564 130 439 40 c 0,63,64
 409 22 409 22 376 22 c 2,65,-1
 374 22 l 2,66,67
 328 22 328 22 308 69 c 0,68,69
 300 95 300 95 300 118 c 0,70,71
 300 211 300 211 443 353 c 0,72,73
 472 377 472 377 472 378 c 2,74,-1
 472 382 l 1,75,76
 460 398 460 398 441 398 c 2,77,-1
 437 398 l 2,78,79
 378 398 378 398 267 226 c 1,80,81
 230 67 230 67 208 38 c 0,82,83
 205 35 205 35 191 30 c 1,84,85
 172 30 172 30 155 87 c 0,86,87
 155 98 155 98 210 214 c 1,88,89
 304 503 304 503 304 560 c 1,90,91
 302 560 302 560 302 562 c 1,92,93
 300 562 300 562 300 560 c 1,94,95
 196 560 196 560 169 615 c 1,96,97
 175 624 175 624 175 628 c 1,98,-1
 181 628 l 1,99,100
 211 603 211 603 257 603 c 0,101,102
 323 603 323 603 323 620 c 1,103,104
 345 709 345 709 345 726 c 2,105,-1
 345 730 l 2,106,107
 345 761 345 761 296 779 c 1,108,-1
 296 783 l 1,109,110
 301 798 301 798 308 802 c 1,0,1
355 124 m 2,111,-1
 355 101 l 2,112,113
 355 56 355 56 386 56 c 0,114,115
 440 56 440 56 490 159 c 1,116,117
 509 214 509 214 509 253 c 0,118,119
 509 317.5 509 317.5 488 355 c 1,120,121
 422 292 422 292 388 230 c 0,122,123
 355 166 355 166 355 124 c 2,111,-1
EndSplineSet
EndChar

StartChar: u1B03A
Encoding: 58 110650 58
Width: 1048
VWidth: 1048
Flags: W
LayerCount: 2
Fore
SplineSet
583 816 m 0,0,1
 634 798 634 798 634 767 c 0,2,3
 634 753 634 753 591 652 c 1,4,-1
 591 650 l 1,5,-1
 593 650 l 1,6,7
 619 656 619 656 722 724 c 1,8,9
 738 728 738 728 742 728 c 0,10,11
 783 722 783 722 783 697 c 0,12,13
 783 685 783 685 746 663 c 1,14,15
 699 622 699 622 699 585 c 0,16,17
 698 398 698 398 695 327 c 1,18,19
 855 315 855 315 873 267 c 1,20,21
 878 267 878 267 878 253 c 0,22,23
 878 234 878 234 851 230 c 1,24,25
 768 275 768 275 697 275 c 1,26,-1
 697 234 l 2,27,28
 697 141 697 141 706 40 c 1,29,30
 694 -22 694 -22 663 -22 c 0,31,32
 642 -22 642 -22 607 50 c 1,33,34
 561 119 561 119 458 224 c 0,35,36
 454 231 454 231 454 239 c 0,37,38
 454 280 454 280 630 321 c 0,39,40
 639 321 639 321 652 325 c 1,41,42
 652 414 652 414 656 597 c 0,43,44
 656 604 656 604 675 648 c 1,45,46
 648 640 648 640 554 564 c 1,47,48
 554 564 554 564 548 562 c 1,49,50
 509 583 509 583 509 605 c 2,51,-1
 509 607 l 2,52,53
 509 614 509 614 546 663 c 1,54,55
 591 748 591 748 591 775 c 0,56,57
 591 785.5 591 785.5 570 802 c 1,58,59
 577 816 577 816 583 816 c 0,0,1
202 761 m 1,60,61
 284 724 284 724 284 663 c 0,62,63
 284 657 284 657 232 452 c 0,64,65
 214 368 214 368 214 292 c 2,66,-1
 214 257 l 1,67,68
 218 172 218 172 228 169 c 1,69,70
 280 271 280 271 325 386 c 1,71,-1
 329 386 l 1,72,73
 342 373 342 373 343 368 c 0,74,75
 267 171 267 171 267 85 c 0,76,77
 267 48 267 48 241 48 c 0,78,79
 188 48 188 48 171 290 c 1,80,-1
 171 292 l 2,81,82
 171 409 171 409 220 663 c 1,83,-1
 220 679 l 2,84,85
 220 714 220 714 185 746 c 1,86,-1
 202 761 l 1,60,61
488 230 m 2,87,-1
 488 228 l 2,88,89
 488 216 488 216 568 142 c 1,90,91
 618 87 618 87 646 60 c 1,92,-1
 650 60 l 1,93,-1
 650 275 l 1,94,-1
 638 275 l 1,95,96
 488 261.5 488 261.5 488 230 c 2,87,-1
EndSplineSet
EndChar

StartChar: u1B03B
Encoding: 59 110651 59
Width: 1048
VWidth: 1048
Flags: W
LayerCount: 2
Fore
SplineSet
298 770 m 0,0,1
 302 766 302 766 321 725 c 1,2,3
 377 670 377 670 425 670 c 1,4,5
 464 652 464 652 464 616 c 1,6,7
 458 598 458 598 413 598 c 0,8,9
 384 598 384 598 288 555 c 1,10,-1
 286 555 l 1,11,12
 286 558 286 558 278 569 c 1,13,-1
 278 571 l 1,14,15
 349 615 349 615 349 627 c 2,16,-1
 349 629 l 2,17,18
 349 632 349 632 316 659 c 1,19,20
 280 702 280 702 280 764 c 1,21,22
 293.5 770 293.5 770 298 770 c 0,0,1
712 731 m 1,23,24
 749 727 749 727 749 694 c 1,25,26
 751 694 751 694 751 692 c 0,27,28
 751 654 751 654 699 510 c 1,29,-1
 699 508 l 1,30,31
 762 524 762 524 790 524 c 0,32,33
 868 524 868 524 900 461 c 0,34,35
 912 433 912 433 912 403 c 0,36,37
 912 290 912 290 734 143 c 1,38,39
 701 109 701 109 701 98 c 2,40,-1
 701 96 l 2,41,42
 701 76 701 76 755 76 c 0,43,44
 788 76 788 76 835 88 c 1,45,46
 859 88 859 88 873 55 c 1,47,48
 873 29 873 29 802 29 c 1,49,50
 802 26 802 26 765 25 c 0,51,52
 686 25 686 25 660 66 c 0,53,54
 656 74 656 74 656 84 c 0,55,56
 656 101 656 101 744 186 c 0,57,58
 843 285 843 285 843 399 c 2,59,-1
 843 401 l 2,60,61
 843 465 843 465 816 483 c 0,62,63
 798 492 798 492 779 492 c 2,64,-1
 767 492 l 2,65,66
 730 492 730 492 663 449 c 1,67,68
 653 449 653 449 644 475 c 1,69,70
 685 557 685 557 685 649 c 2,71,-1
 685 670 l 2,72,73
 685 673 685 673 677 678 c 1,74,-1
 665 678 l 2,75,76
 649 678 649 678 613 637 c 1,77,78
 601 644 601 644 601 647 c 2,79,-1
 601 649 l 1,80,81
 658 731 658 731 712 731 c 1,23,24
388 467 m 0,82,83
 402 467 402 467 443 426 c 1,84,-1
 443 416 l 1,85,86
 427 393 427 393 368 358 c 1,87,88
 349 271 349 271 349 193 c 2,89,-1
 349 182 l 2,90,91
 350 178 350 178 353 178 c 0,92,93
 362 183 362 183 394 252 c 1,94,95
 441 339 441 339 450 340 c 1,96,97
 459 334 459 334 462 334 c 1,98,-1
 462 332 l 1,99,100
 378 162 378 162 372 94 c 0,101,102
 365 57 365 57 339 57 c 0,103,104
 306 57 306 57 294 135 c 1,105,-1
 294 160 l 2,106,107
 294 214 294 214 306 332 c 1,108,-1
 304 332 l 1,109,110
 260 322 260 322 224 322 c 0,111,112
 156 322 156 322 140 365 c 0,113,114
 136 378 136 378 136 385 c 0,115,116
 136 411 136 411 163 432 c 1,117,-1
 165 432 l 2,118,119
 179 431 179 431 179 428 c 0,120,121
 173 410 173 410 173 403 c 0,122,123
 173 379 173 379 212 373 c 1,124,-1
 245 373 l 2,125,126
 323 373 323 373 335 420 c 1,127,128
 370 467 370 467 388 467 c 0,82,83
EndSplineSet
EndChar

StartChar: u1B03C
Encoding: 60 110652 60
Width: 1048
VWidth: 1048
Flags: W
LayerCount: 2
Fore
SplineSet
639 780 m 0,0,1
 714 780 714 780 745 723 c 1,2,-1
 748 711 l 2,3,4
 748 700 748 700 694 641 c 1,5,6
 641 574 641 574 641 565 c 2,7,-1
 641 559 l 2,8,9
 641 553 641 553 711 535 c 1,10,11
 758 517 758 517 758 483 c 0,12,13
 758 437 758 437 510 338 c 1,14,-1
 506 338 l 1,15,16
 498 351 498 351 498 356 c 1,17,18
 582 391 582 391 674 477 c 1,19,-1
 678 483 l 1,20,-1
 678 494 l 2,21,22
 678 499 678 499 604 532 c 1,23,24
 604 538 604 538 600 543 c 1,25,26
 603 554 603 554 651 643 c 0,27,28
 660 662 660 662 674 711 c 1,29,-1
 674 727 l 2,30,31
 674 744 674 744 606 762 c 1,32,-1
 606 766 l 2,33,34
 606 780 606 780 639 780 c 0,0,1
342 686 m 0,35,36
 384 686 384 686 442 629 c 1,37,38
 453 599 453 599 455 594 c 0,39,40
 455 586 455 586 403 465 c 1,41,42
 328 264 328 264 328 129 c 0,43,44
 328 84 328 84 406 76 c 0,45,46
 437.5 70 437.5 70 487 70 c 2,47,-1
 494 70 l 2,48,49
 615 70 615 70 666 109 c 0,50,51
 674 117 674 117 674 129 c 2,52,-1
 674 137 l 2,53,54
 674 160 674 160 625 338 c 1,55,-1
 625 340 l 1,56,-1
 641 344 l 1,57,58
 717 151 717 151 760 119 c 0,59,60
 764 119 764 119 764 109 c 0,61,62
 764 29 764 29 498 14 c 1,63,64
 335 14 335 14 297 82 c 0,65,66
 289 102 289 102 285 137 c 1,67,68
 285 237 285 237 387 586 c 1,69,-1
 387 610 l 2,70,71
 387 629 387 629 332 672 c 1,72,-1
 332 674 l 1,73,74
 340 686 340 686 342 686 c 0,35,36
EndSplineSet
EndChar

StartChar: u1B03D
Encoding: 61 110653 61
Width: 1048
VWidth: 1048
Flags: W
LayerCount: 2
Fore
SplineSet
272 803 m 1,0,1
 346 768 346 768 346 725 c 0,2,3
 346 676 346 676 188 500 c 1,4,-1
 188 494 l 1,5,6
 226 479 226 479 244 442 c 1,7,8
 256 408 256 408 256 373 c 2,9,-1
 256 295 l 2,10,11
 256 206 256 206 250 117 c 1,12,-1
 252 117 l 1,13,14
 270 144 270 144 348 303 c 1,15,-1
 350 303 l 2,16,17
 357 303 357 303 369 285 c 1,18,19
 272 85 272 85 272 14 c 1,20,21
 260 -8 260 -8 248 -8 c 0,22,23
 209 -8 209 -8 195 84 c 1,24,25
 209 350 209 350 209 397 c 0,26,27
 209 456 209 456 154 481 c 1,28,-1
 150 492 l 2,29,30
 150 496 150 496 197 557 c 1,31,32
 285 699 285 699 285 741 c 0,33,34
 285 772 285 772 258 784 c 1,35,-1
 258 788 l 2,36,37
 258 792 258 792 272 803 c 1,0,1
676 776 m 0,38,39
 715 776 715 776 750 741 c 1,40,41
 738 723 738 723 735 723 c 0,42,43
 715 739 715 739 700 739 c 2,44,-1
 690 739 l 2,45,46
 659 739 659 739 659 635 c 2,47,-1
 659 618 l 1,48,-1
 662 618 l 2,49,50
 721 618 721 618 854 664 c 1,51,-1
 856 664 l 1,52,53
 899 657 899 657 899 635 c 0,54,55
 899 607 899 607 764 586 c 2,56,-1
 664 573 l 1,57,58
 664 504 664 504 682 504 c 1,59,-1
 772 477 l 1,60,61
 788 465 788 465 788 449 c 0,62,63
 788 422 788 422 705 410 c 1,64,65
 670 395 670 395 629 367 c 1,66,-1
 627 367 l 1,67,68
 617 372 617 372 614 381 c 1,69,70
 668 428 668 428 707 440 c 1,71,-1
 707 446 l 1,72,73
 621 464 621 464 621 506 c 1,74,75
 613 543 613 543 612 569 c 1,76,-1
 578 569 l 2,77,78
 490 569 490 569 414 612 c 1,79,-1
 414 614 l 2,80,81
 416 629 416 629 426 639 c 1,82,83
 480 612 480 612 553 612 c 2,84,-1
 608 612 l 1,85,-1
 608 614 l 2,86,87
 608 628 608 628 606 670 c 0,88,89
 606 776 606 776 676 776 c 0,38,39
578 338 m 1,90,91
 594 331 594 331 594 324 c 0,92,93
 586 310 586 310 586 297 c 0,94,95
 586 273 586 273 690 270 c 1,96,97
 706 257 706 257 707 246 c 0,98,99
 707 232 707 232 645 190 c 1,100,101
 623 165 623 165 623 145 c 2,102,-1
 623 135 l 2,103,104
 623 94.5 623 94.5 707 84 c 2,105,-1
 727 82 l 1,106,-1
 805 88 l 1,107,108
 846 80 846 80 846 59 c 2,109,-1
 846 51 l 1,110,111
 833 25 833 25 745 25 c 0,112,113
 634 25 634 25 594 104 c 0,114,115
 588 117 588 117 588 133 c 2,116,-1
 588 141 l 2,117,118
 588 181.5 588 181.5 621 219 c 1,119,-1
 621 223 l 1,120,121
 553 241 553 241 553 285 c 0,122,123
 553 316 553 316 578 338 c 1,90,91
EndSplineSet
EndChar

StartChar: u1B03E
Encoding: 62 110654 62
Width: 1048
VWidth: 1048
Flags: W
LayerCount: 2
Fore
SplineSet
505 795 m 0,0,1
 556 795 556 795 605 754 c 1,2,3
 612 742 612 742 617 725 c 1,4,5
 599 653 599 653 599 616 c 1,6,-1
 601 616 l 2,7,8
 653 616 653 616 757 662 c 1,9,-1
 767 662 l 2,10,11
 802 662 802 662 808 639 c 1,12,13
 808 591 808 591 597 573 c 1,14,-1
 595 573 l 1,15,-1
 595 571 l 1,16,-1
 577 336 l 1,17,-1
 579 336 l 1,18,19
 661 410 661 410 744 410 c 0,20,21
 834 410 834 410 878 307 c 1,22,23
 886 278 886 278 886 258 c 0,24,25
 886 75 886 75 540 0 c 0,26,27
 538 0 538 0 527 18 c 1,28,29
 824 117 824 117 824 248 c 2,30,-1
 824 274 l 2,31,32
 824 344 824 344 771 371 c 0,33,34
 758 375 758 375 746 375 c 2,35,-1
 728 375 l 2,36,37
 660 375 660 375 603 293 c 0,38,39
 591 274 591 274 583 184 c 1,40,41
 567 164 567 164 556 164 c 1,42,43
 521 185 521 185 521 221 c 2,44,-1
 521 223 l 1,45,46
 546 510 546 510 546 569 c 1,47,48
 540 571 540 571 540 571 c 1,49,50
 454.5 571 454.5 571 396 616 c 1,51,-1
 396 618 l 1,52,53
 402 628.5 402 628.5 402 633 c 1,54,-1
 407 633 l 1,55,56
 461 612 461 612 511 612 c 2,57,-1
 548 612 l 1,58,-1
 550 623 l 1,59,-1
 550 625 l 2,60,61
 550 648 550 648 552 668 c 0,62,63
 552 758 552 758 529 758 c 1,64,65
 529 761 529 761 493 778 c 1,66,-1
 493 780 l 1,67,68
 499 793.5 499 793.5 505 795 c 0,0,1
191 768 m 1,69,70
 275 736.5 275 736.5 275 672 c 0,71,72
 275 662 275 662 222 455 c 1,73,74
 206 375 206 375 206 307 c 2,75,-1
 206 266 l 1,76,77
 210 182 210 182 220 178 c 1,78,79
 253 237 253 237 314 393 c 1,80,-1
 316 393 l 2,81,82
 320 393 320 393 333 377 c 1,83,84
 259 172 259 172 259 104 c 0,85,86
 259 59 259 59 239 59 c 1,87,88
 239 57 239 57 230 57 c 0,89,90
 183 57 183 57 165 268 c 0,91,92
 165 271 165 271 163 299 c 0,93,94
 163 411 163 411 212 674 c 1,95,-1
 212 684 l 2,96,97
 212 726 212 726 177 756 c 1,98,-1
 191 768 l 1,69,70
EndSplineSet
EndChar

StartChar: u1B03F
Encoding: 63 110655 63
Width: 1048
VWidth: 1048
Flags: W
LayerCount: 2
Fore
SplineSet
555 784 m 0,0,1
 600 784 600 784 627 748 c 1,2,3
 623 743 623 743 623 737 c 1,4,-1
 618 737 l 1,5,6
 599 748 599 748 588 748 c 2,7,-1
 584 748 l 1,8,9
 547 742 547 742 547 711 c 0,10,11
 547 688 547 688 546.5 667 c 128,-1,12
 546 646 546 646 545.5 635.5 c 128,-1,13
 545 625 545 625 545 623 c 1,14,15
 547 623 547 623 547 621 c 1,16,17
 706 638 706 638 737 659 c 1,18,-1
 770 670 l 1,19,20
 829 663 829 663 829 639 c 2,21,-1
 829 637 l 2,22,23
 829 609 829 609 662 588 c 0,24,25
 610 578 610 578 553 573 c 1,26,-1
 553 557 l 2,27,28
 553 489 553 489 575 489 c 1,29,30
 586 478 586 478 674 463 c 1,31,32
 683 454 683 454 688 440 c 1,33,34
 688 414 688 414 592 391 c 1,35,-1
 487 348 l 1,36,-1
 485 348 l 2,37,38
 482 348 482 348 475 358 c 1,39,40
 526 395.5 526 395.5 610 436 c 1,41,42
 610 445 610 445 545 449 c 1,43,44
 500 464 500 464 500 506 c 0,45,46
 496 563 496 563 489 563 c 2,47,-1
 485 561 l 2,48,49
 484 561 484 561 426 559 c 0,50,51
 277 559 277 559 219 635 c 1,52,-1
 219 637 l 1,53,-1
 227 651 l 1,54,55
 291 608 291 608 424 608 c 0,56,57
 472 609 472 609 489 614 c 1,58,59
 487 672 487 672 487 680 c 2,60,-1
 487 682 l 2,61,62
 487 784 487 784 555 784 c 0,0,1
442 324 m 1,63,64
 450 319 450 319 453 319 c 1,65,-1
 453 313 l 1,66,67
 444 299 444 299 444 295 c 2,68,-1
 444 283 l 2,69,70
 444 264 444 264 559 264 c 1,71,72
 598 253 598 253 598 227 c 0,73,74
 598 216 598 216 551 201 c 1,75,76
 481 157 481 157 481 125 c 2,77,-1
 481 117 l 2,78,79
 481 72 481 72 588 72 c 2,80,-1
 629 72 l 2,81,82
 644 72 644 72 686 78 c 1,83,84
 739 69 739 69 739 41 c 1,85,86
 727 10 727 10 647 10 c 2,87,-1
 639 10 l 2,88,89
 496 10 496 10 461 68 c 0,90,91
 450 84 450 84 444 113 c 1,92,93
 444 147 444 147 502 211 c 1,94,-1
 502 217 l 1,95,96
 410 225 410 225 410 272 c 2,97,-1
 410 276 l 1,98,99
 418 324 418 324 442 324 c 1,63,64
EndSplineSet
EndChar

StartChar: u1B040
Encoding: 64 110656 64
Width: 1048
VWidth: 1048
Flags: W
LayerCount: 2
Fore
SplineSet
634 820 m 1,0,1
 675 812 675 812 675 783 c 0,2,3
 675 749 675 749 517 650 c 0,4,5
 476 623 476 623 474 617 c 2,6,-1
 474 615 l 1,7,8
 530 633 530 633 624 669 c 1,9,-1
 636 669 l 2,10,11
 664.5 669 664.5 669 675 630 c 0,12,13
 675 622 675 622 613 542 c 1,14,-1
 613 538 l 1,15,16
 628 518.5 628 518.5 628 505 c 0,17,18
 628 454 628 454 511 421 c 1,19,20
 421 362 421 362 421 357 c 1,21,-1
 425 357 l 1,22,23
 460 367 460 367 607 419 c 1,24,25
 677 435 677 435 720 435 c 0,26,27
 810 435 810 435 845 384 c 0,28,29
 849 377 849 377 849 361 c 0,30,31
 849 310 849 310 663 280 c 0,32,33
 615 275 615 275 587 275 c 0,34,35
 572 275 572 275 572 294 c 0,36,37
 572 298 572 298 579 298 c 0,38,39
 754 311 754 311 769 368 c 1,40,-1
 769 374 l 2,41,42
 769 402 769 402 708 402 c 0,43,44
 597 402 597 402 335 280 c 1,45,46
 319 278 319 278 316 278 c 2,47,-1
 308 278 l 2,48,49
 257 278 257 278 200 323 c 1,50,-1
 200 325 l 1,51,52
 207 341 207 341 214 341 c 0,53,54
 231 331 231 331 251 331 c 2,55,-1
 280 331 l 2,56,57
 360 331 360 331 452 413 c 1,58,-1
 452 417 l 1,59,-1
 413 435 l 1,60,61
 398 450 398 450 398 466 c 0,62,63
 398 520 398 520 527 552 c 1,64,-1
 556 554 l 2,65,66
 572 552 572 552 574 552 c 0,67,68
 595 598 595 598 595 622 c 1,69,-1
 591 624 l 1,70,-1
 587 624 l 2,71,72
 575 624 575 624 333 509 c 0,73,74
 325 509 325 509 325 507 c 1,75,76
 312 507 312 507 308 523 c 1,77,78
 308 583 308 583 357 583 c 1,79,80
 416 594 416 594 503 673 c 0,81,82
 591 757 591 757 591 771 c 0,83,84
 591 774 591 774 585 777 c 2,85,-1
 581 777 l 2,86,87
 563 777 563 777 529 769 c 1,88,-1
 527 773 l 1,89,-1
 527 781 l 1,90,91
 557 805 557 805 634 820 c 1,0,1
329 806 m 1,92,93
 343 803 343 803 343 800 c 0,94,95
 339 773 339 773 339 757 c 0,96,97
 339 722 339 722 361 722 c 2,98,-1
 376 722 l 2,99,100
 400 722 400 722 458 763 c 1,101,-1
 462 763 l 1,102,-1
 464 749 l 1,103,104
 358 660 358 660 337 660 c 0,105,106
 300 664 300 664 300 712 c 0,107,108
 300 765 300 765 329 806 c 1,92,93
456 480 m 1,109,-1
 456 466 l 2,110,111
 456 454 456 454 495 450 c 1,112,113
 554 487 554 487 554 513 c 2,114,-1
 554 515 l 1,115,-1
 544 517 l 1,116,117
 480 517 480 517 456 480 c 1,109,-1
470 247 m 128,-1,119
 528 247 528 247 544 202 c 1,120,121
 544 190 544 190 499 122 c 1,122,123
 482 82 482 82 482 60 c 0,124,125
 482 32 482 32 558 32 c 2,126,-1
 585 32 l 2,127,128
 622 32 622 32 687 54 c 1,129,130
 746 41 746 41 746 22 c 0,131,132
 746 -4 746 -4 693 -15 c 0,133,134
 646 -26 646 -26 607 -26 c 0,135,136
 447 -26 447 -26 447 60 c 1,137,138
 462 168 462 168 462 194 c 0,139,140
 462 202 462 202 450 210 c 1,141,-1
 433 210 l 2,142,143
 411 210 411 210 357 189 c 0,144,145
 354 189 354 189 345 206 c 1,146,118
 412 247 412 247 470 247 c 128,-1,119
EndSplineSet
EndChar

StartChar: u1B041
Encoding: 65 110657 65
Width: 1048
VWidth: 1048
Flags: W
LayerCount: 2
Fore
SplineSet
517 792 m 0,0,1
 541 792 541 792 554 749 c 1,2,-1
 523 640 l 1,3,-1
 523 636 l 1,4,-1
 525 636 l 1,5,6
 591 669 591 669 595 669 c 0,7,8
 636 660 636 660 636 642 c 0,9,10
 636 617 636 617 511 579 c 1,11,-1
 466 443 l 1,12,-1
 468 443 l 1,13,14
 564 484 564 484 628 484 c 2,15,-1
 634 484 l 2,16,17
 774 484 774 484 820 372 c 0,18,19
 830 343 830 343 830 308 c 2,20,-1
 830 294 l 2,21,22
 830 224 830 224 779 148 c 1,23,-1
 779 144 l 1,24,25
 894 76 894 76 894 42 c 0,26,27
 896 36 896 36 896 36 c 1,28,29
 896 17 896 17 873 3 c 1,30,-1
 869 3 l 2,31,32
 844 3 844 3 814 50 c 1,33,34
 788 76 788 76 755 99 c 1,35,-1
 751 99 l 1,36,37
 678 17 678 17 579 17 c 1,38,39
 450 32 450 32 450 95 c 0,40,41
 450 146 450 146 560 179 c 1,42,43
 603.5 185 603.5 185 617 185 c 0,44,45
 656 185 656 185 732 167 c 1,46,47
 767 220 767 220 767 282 c 2,48,-1
 767 314 l 2,49,50
 767 414.5 767 414.5 689 443 c 0,51,52
 653 452 653 452 632 452 c 0,53,54
 551 452 551 452 456 396 c 1,55,56
 416 270 416 270 366 179 c 0,57,58
 278 28 278 28 230 28 c 0,59,60
 180 28 180 28 153 175 c 1,61,-1
 153 183 l 2,62,63
 153 274 153 274 409 421 c 1,64,65
 430 462 430 462 454 560 c 1,66,-1
 452 560 l 1,67,68
 348 523 348 523 288 523 c 0,69,70
 230 523 230 523 194 579 c 1,71,72
 194 591 194 591 204 595 c 1,73,-1
 206 595 l 1,74,75
 236 570 236 570 286 570 c 2,76,-1
 290 570 l 2,77,78
 358 570 358 570 466 613 c 1,79,80
 490 721 490 721 490 751 c 0,81,82
 490 755 490 755 486 755 c 2,83,-1
 480 755 l 1,84,85
 422 742 422 742 347 658 c 1,86,87
 331 624 331 624 310 624 c 0,88,89
 260 624 260 624 251 720 c 1,90,-1
 251 730 l 1,91,92
 257 744 257 744 271 744 c 1,93,94
 286 702 286 702 306 689 c 1,95,-1
 312 689 l 2,96,97
 318 689 318 689 413 751 c 1,98,99
 486 792 486 792 517 792 c 0,0,1
196 167 m 2,100,-1
 196 157 l 2,101,102
 196 99 196 99 228 71 c 1,103,-1
 237 71 l 1,104,105
 280 111 280 111 316 177 c 0,106,107
 357 257 357 257 396 368 c 1,108,-1
 390 368 l 1,109,110
 277 306 277 306 204 196 c 1,111,112
 196 175 196 175 196 167 c 2,100,-1
488 97 m 2,113,114
 488 64 488 64 570 58 c 1,115,-1
 583 58 l 2,116,117
 659.5 58 659.5 58 706 124 c 1,118,-1
 706 128 l 1,119,120
 669 151 669 151 626 151 c 2,121,-1
 603 151 l 2,122,123
 513 151 513 151 488 105 c 1,124,-1
 488 97 l 2,113,114
EndSplineSet
EndChar

StartChar: u1B042
Encoding: 66 110658 66
Width: 1048
VWidth: 1048
Flags: W
LayerCount: 2
Fore
SplineSet
726 826 m 2,0,1
 763 826 763 826 787 765 c 1,2,3
 783 758 783 758 775 755 c 1,4,5
 760 773 760 773 749 773 c 2,6,-1
 740 773 l 2,7,8
 737 773 737 773 734 765 c 0,9,10
 743 548 743 548 744 433 c 1,11,-1
 746 433 l 1,12,13
 804 454 804 454 843 482 c 0,14,15
 847 486 847 486 847 488 c 2,16,-1
 847 497 l 1,17,18
 827 560 827 560 814 613 c 1,19,-1
 814 617 l 1,20,-1
 828 622 l 1,21,22
 876 493 876 493 898 493 c 1,23,24
 908 487 908 487 910 474 c 0,25,26
 910 449 910 449 785 404 c 0,27,28
 745 386 745 386 744 382 c 0,29,30
 744 363 744 363 746 351 c 0,31,32
 746 83 746 83 681 -32 c 1,33,-1
 673 -32 l 2,34,35
 663 -32 663 -32 663 -28 c 0,36,37
 691 112 691 112 691 275 c 2,38,-1
 691 359 l 1,39,-1
 687 359 l 2,40,41
 676 359 676 359 560 284 c 1,42,43
 523 297 523 297 523 321 c 0,44,45
 538 420 538 420 538 462 c 0,46,47
 538 472 538 472 529 476 c 1,48,-1
 527 476 l 1,49,50
 462 461 462 461 361 335 c 1,51,-1
 361 202 l 2,52,53
 361 198 361 198 362 188.5 c 128,-1,54
 363 179 363 179 364.5 157.5 c 128,-1,55
 366 136 366 136 368 116 c 1,56,57
 360 69 360 69 331 69 c 0,58,59
 321 69 321 69 284 118 c 0,60,61
 268 133 268 133 228 163 c 1,62,-1
 226 163 l 2,63,64
 224 163 224 163 183 91 c 1,65,66
 174 85 174 85 169 85 c 0,67,68
 138 104 138 104 138 122 c 0,69,70
 138 134 138 134 181 196 c 1,71,-1
 181 198 l 1,72,73
 138 241 138 241 138 280 c 2,74,-1
 138 284 l 2,75,76
 138 342.5 138 342.5 216 413 c 1,77,78
 248 435 248 435 271 435 c 0,79,80
 291 435 291 435 308 419 c 1,81,-1
 312 419 l 1,82,-1
 312 423 l 2,83,84
 312 517 312 517 331 585 c 1,85,-1
 327 587 l 1,86,87
 267 558 267 558 187 505 c 0,88,89
 184.17129273 504.434258546 184.17129273 504.434258546 181.032302466 503.483848767 c 0,90,91
 179.434258546 503 179.434258546 503 179 503 c 0,92,93
 160 503 160 503 144 548 c 1,94,-1
 144 556 l 1,95,96
 245 700 245 700 257 751 c 1,97,-1
 257 769 l 2,98,99
 257 772 257 772 241 787 c 0,100,101
 241 791 241 791 257 804 c 1,102,103
 312 783 312 783 312 753 c 1,104,105
 294 695 294 695 208 577 c 1,106,-1
 208 572 l 1,107,108
 254 588 254 588 366 663 c 0,109,110
 376 665 376 665 380 665 c 0,111,112
 397 665 397 665 419 634 c 0,113,114
 419 628 419 628 386 599 c 1,115,116
 359 586 359 586 359 400 c 2,117,-1
 359 392 l 1,118,-1
 364 392 l 1,119,120
 500 517 500 517 554 517 c 0,121,122
 591 517 591 517 595 474 c 1,123,-1
 595 472 l 1,124,125
 589 414 589 414 577 359 c 1,126,-1
 581 359 l 1,127,128
 676 398 676 398 689 415 c 1,129,130
 689 512 689 512 681 765 c 1,131,-1
 679 773 l 1,132,133
 679 808 679 808 724 826 c 1,134,-1
 726 826 l 2,0,1
181 280 m 2,135,-1
 181 263 l 2,136,137
 181 233 181 233 200 220 c 1,138,139
 300 344 300 344 300 374 c 2,140,-1
 300 388 l 1,141,142
 293 404 293 404 273 404 c 2,143,-1
 267 404 l 2,144,145
 235.5 404 235.5 404 189 308 c 0,146,147
 181 287 181 287 181 280 c 2,135,-1
237 189 m 1,148,149
 290 150 290 150 314 148 c 2,150,-1
 316 148 l 1,151,152
 315 234 315 234 312 288 c 1,153,-1
 308 288 l 1,154,155
 261 236 261 236 237 189 c 1,148,149
EndSplineSet
EndChar

StartChar: u1B043
Encoding: 67 110659 67
Width: 1048
VWidth: 1048
Flags: W
LayerCount: 2
Fore
SplineSet
515 816 m 0,0,1
 632 808.5 632 808.5 632 759 c 1,2,-1
 634 746 l 1,3,4
 628 704 628 704 628 644 c 2,5,-1
 628 628 l 2,6,7
 629 624 629 624 632 624 c 2,8,-1
 634 624 l 1,9,10
 693 658 693 658 734 658 c 0,11,12
 829 658 829 658 865 554 c 0,13,14
 876 512 876 512 876 486 c 2,15,-1
 876 484 l 2,16,17
 876 184 876 184 525 5 c 0,18,19
 475 -19 475 -19 458 -22 c 1,20,-1
 447 -5 l 1,21,-1
 447 1 l 1,22,23
 539 30 539 30 671 151 c 0,24,25
 814 287 814 287 814 490 c 0,26,27
 814 589 814 589 779 613 c 0,28,29
 756 626 756 626 738 626 c 2,30,-1
 730 626 l 2,31,32
 691 626 691 626 630 579 c 0,33,34
 628 575 628 575 628 570 c 0,35,36
 628 441 628 441 632 333 c 1,37,38
 618 280 618 280 593 280 c 0,39,40
 580 280 580 280 546 325 c 1,41,42
 456 387 456 387 390 409 c 1,43,44
 380 420 380 420 380 429 c 0,45,46
 388 476 388 476 556 583 c 1,47,48
 569 586 569 586 577 597 c 1,49,-1
 577 646 l 2,50,51
 577 773 577 773 560 773 c 1,52,53
 542 785 542 785 505 794 c 1,54,-1
 505 796 l 2,55,56
 506 816 506 816 515 816 c 0,0,1
218 755 m 1,57,58
 296 720.5 296 720.5 296 665 c 0,59,60
 296 652 296 652 234 458 c 1,61,62
 212 373 212 373 212 292 c 0,63,64
 212 225 212 225 230 194 c 0,65,66
 233 194 233 194 263 310 c 1,67,68
 291 395 291 395 298 400 c 1,69,-1
 300 400 l 2,70,71
 312 400 312 400 312 392 c 0,72,73
 278 249 278 249 278 183 c 2,74,-1
 278 138 l 2,75,76
 275 91 275 91 249 91 c 1,77,78
 187 106 187 106 175 251 c 0,79,80
 173 261 173 261 173 278 c 0,81,82
 173 393 173 393 226 587 c 0,83,84
 233 622 233 622 234 660 c 0,85,86
 234 716 234 716 204 740 c 0,87,88
 204 744 204 744 218 755 c 1,57,58
435 423 m 0,89,90
 437 408 437 408 579 359 c 1,91,92
 577 517 577 517 577 544 c 2,93,-1
 577 546 l 1,94,95
 525 522 525 522 454 452 c 0,96,97
 435 431 435 431 435 423 c 0,89,90
EndSplineSet
EndChar

StartChar: u1B044
Encoding: 68 110660 68
Width: 1048
VWidth: 1048
Flags: W
LayerCount: 2
Fore
SplineSet
378 804 m 1,0,-1
 380 804 l 1,1,2
 432 746 432 746 466 746 c 1,3,4
 473 741 473 741 564 738 c 1,5,6
 597 724.5 597 724.5 597 699 c 0,7,8
 597 669 597 669 507 669 c 0,9,10
 452 669 452 669 384 595 c 1,11,12
 368 566 368 566 368 552 c 2,13,-1
 368 544 l 2,14,15
 368 535 368 535 396 534 c 0,16,17
 446 534 446 534 587 558 c 1,18,-1
 589 558 l 2,19,20
 625 558 625 558 648 486 c 1,21,22
 648 460 648 460 538 411 c 1,23,24
 355 311 355 311 255 241 c 0,25,26
 253 237 253 237 253 232 c 0,27,28
 253 225 253 225 359 218 c 1,29,30
 521 189 521 189 628 155 c 0,31,32
 843 80 843 80 843 17 c 0,33,34
 843 -7 843 -7 814 -9 c 0,35,36
 805 -9 805 -9 740 40 c 1,37,38
 634 102 634 102 458 155 c 1,39,40
 320 185 320 185 251 185 c 2,41,-1
 232 185 l 2,42,43
 206 185 206 185 206 226 c 0,44,45
 206 257 206 257 300 308 c 1,46,47
 479 419 479 419 574 499 c 1,48,-1
 574 505 l 2,49,50
 574 508 574 508 568 511 c 2,51,-1
 564 511 l 2,52,53
 529 511 529 511 359 464 c 1,54,55
 336 464 336 464 325 505 c 1,56,57
 325 612 325 612 460 695 c 1,58,-1
 464 695 l 1,59,-1
 464 697 l 1,60,-1
 415 722 l 1,61,62
 375 752 375 752 364 792 c 0,63,64
 364 796 364 796 378 804 c 1,0,-1
EndSplineSet
EndChar

StartChar: u1B045
Encoding: 69 110661 69
Width: 1048
VWidth: 1048
Flags: W
LayerCount: 2
Fore
SplineSet
484 829 m 1,0,1
 583 770 583 770 583 698 c 0,2,3
 583 669 583 669 531 473 c 1,4,5
 511 367 511 367 511 283 c 0,6,7
 511 149 511 149 597 -23 c 0,8,9
 597 -26 597 -26 581 -35 c 1,10,-1
 579 -35 l 1,11,12
 452 129 452 129 452 287 c 0,13,14
 452 349 452 349 511 631 c 0,15,16
 514 631 514 631 517 719 c 0,17,18
 517 773 517 773 470 811 c 1,19,-1
 470 813 l 1,20,21
 478 825 478 825 484 829 c 1,0,1
EndSplineSet
EndChar

StartChar: u1B046
Encoding: 70 110662 70
Width: 1048
VWidth: 1048
Flags: W
LayerCount: 2
Fore
SplineSet
417 823 m 2,0,-1
 425 823 l 1,1,2
 440 793 440 793 538 793 c 0,3,4
 558 793 558 793 581 797 c 0,5,6
 604 797 604 797 617 760 c 0,7,8
 617 754 617 754 568 711 c 1,9,10
 499 634 499 634 499 614 c 0,11,12
 499 610 499 610 505 610 c 0,13,14
 692 610 692 610 742 526 c 0,15,16
 769 478 769 478 769 430 c 0,17,18
 769 279 769 279 570 213 c 1,19,20
 570 100 570 100 513 31 c 1,21,22
 448 -23 448 -23 402 -29 c 1,23,-1
 400 -29 l 1,24,25
 390 -20 390 -20 390 -12 c 1,26,27
 519 31 519 31 519 205 c 1,28,29
 483 203 483 203 478 203 c 2,30,-1
 468 203 l 2,31,32
 466 203 466 203 460 201 c 0,33,34
 456 203 456 203 452 203 c 2,35,-1
 445 203 l 2,36,37
 342 203 342 203 282 272 c 0,38,39
 282 277 282 277 280 281 c 0,40,41
 281 303 281 303 370 360 c 0,42,43
 397 380 397 380 480 469 c 1,44,45
 509 477 509 477 513 477 c 0,46,47
 557 477 557 477 564 406 c 0,48,49
 568.5 353.5 568.5 353.5 570 256 c 1,50,51
 708 312 708 312 708 426 c 2,52,-1
 708 430 l 2,53,54
 708 524 708 524 634 557 c 0,55,56
 611.5 564.5 611.5 564.5 544 569 c 1,57,-1
 488 565 l 1,58,59
 462 578 462 578 462 598 c 0,60,61
 462 625 462 625 527 731 c 1,62,-1
 527 737 l 2,63,64
 527 740 527 740 521 743 c 2,65,-1
 517 743 l 2,66,67
 432 743 432 743 415 801 c 0,68,69
 414 815 414 815 411 815 c 1,70,71
 414 823 414 823 417 823 c 2,0,-1
335 281 m 1,72,73
 347 245 347 245 423 238 c 1,74,-1
 462 238 l 2,75,76
 498 238 498 238 519 242 c 1,77,-1
 519 299 l 2,78,79
 519 444 519 444 499 444 c 2,80,-1
 497 444 l 2,81,82
 481 442 481 442 390 334 c 0,83,84
 369 314 369 314 335 285 c 1,85,-1
 335 281 l 1,72,73
EndSplineSet
EndChar

StartChar: u1B047
Encoding: 71 110663 71
Width: 1048
VWidth: 1048
Flags: W
LayerCount: 2
Fore
SplineSet
722 679 m 2,0,-1
 736 679 l 2,1,2
 842 679 842 679 876 601 c 0,3,4
 880 582 880 582 880 577 c 0,5,6
 880 442 880 442 607 359 c 0,7,8
 597 356 597 356 597 353 c 0,9,10
 604.5 345.5 604.5 345.5 687 341 c 1,11,12
 716 327 716 327 716 310 c 0,13,14
 716 282 716 282 640 282 c 0,15,16
 571 282 571 282 495 228 c 1,17,18
 484 211 484 211 484 206 c 2,19,-1
 484 196 l 1,20,21
 503 165 503 165 572 165 c 2,22,-1
 577 165 l 2,23,24
 642 165 642 165 712 185 c 1,25,-1
 716 185 l 1,26,27
 759 181 759 181 759 157 c 2,28,-1
 759 155 l 2,29,30
 759 124 759 124 636 118 c 0,31,32
 620 116 620 116 587 116 c 2,33,-1
 583 116 l 2,34,35
 482.5 116 482.5 116 445 167 c 1,36,37
 439 182 439 182 439 194 c 0,38,39
 439 255 439 255 579 308 c 1,40,-1
 579 314 l 1,41,42
 521 340 521 340 521 396 c 1,43,44
 528 431 528 431 538 437 c 1,45,46
 548 437 548 437 558 427 c 1,47,-1
 558 409 l 1,48,49
 563 378 563 378 579 378 c 1,50,51
 722 421 722 421 787 507 c 0,52,53
 812 541 812 541 812 568 c 2,54,-1
 812 577 l 2,55,56
 812 646 812 646 722 646 c 2,57,-1
 718 646 l 2,58,59
 579 646 579 646 384 511 c 0,60,61
 376 507 376 507 364 507 c 0,62,63
 332 507 332 507 308 597 c 1,64,-1
 308 601 l 2,65,66
 308 606 308 606 329 611 c 1,67,68
 350 574 350 574 368 574 c 2,69,-1
 376 574 l 2,70,71
 381 574 381 574 493 626 c 1,72,73
 638 679 638 679 722 679 c 2,0,-1
200 599 m 1,74,75
 222 595 222 595 222 587 c 0,76,77
 214 518 214 518 214 460 c 2,78,-1
 214 458 l 2,79,80
 214 301 214 301 286 187 c 1,81,82
 288 171 288 171 288 169 c 0,83,84
 288 151 288 151 263 148 c 0,85,86
 198 148 198 148 169 372 c 1,87,-1
 169 411 l 2,88,89
 169 523 169 523 198 599 c 1,90,-1
 200 599 l 1,74,75
EndSplineSet
EndChar

StartChar: u1B048
Encoding: 72 110664 72
Width: 1048
VWidth: 1048
Flags: W
LayerCount: 2
Fore
SplineSet
457 785 m 0,0,1
 547 767 547 767 547 753 c 1,2,3
 553 752 553 752 561 724 c 1,4,5
 561 700 561 700 528 605 c 1,6,-1
 530 605 l 2,7,8
 593 605 593 605 686 648 c 1,9,-1
 700 648 l 2,10,11
 731 645 731 645 731 620 c 0,12,13
 731 576 731 576 502 552 c 1,14,-1
 418 419 l 1,15,-1
 418 415 l 2,16,17
 419 411 419 411 422 411 c 0,18,19
 484 411 484 411 623 431 c 1,20,21
 688 421 688 421 688 380 c 0,22,23
 688 357 688 357 614 345 c 1,24,25
 342 243 342 243 231 146 c 0,26,27
 193 114 193 114 193 108 c 2,28,-1
 193 103 l 1,29,-1
 199 103 l 1,30,31
 321 185 321 185 403 185 c 0,32,33
 460 185 460 185 543 105 c 1,34,-1
 545 105 l 2,35,36
 557 105 557 105 637 194 c 1,37,38
 687 234 687 234 733 234 c 0,39,40
 809 234 809 234 905 103 c 0,41,42
 920 82 920 82 926 54 c 1,43,44
 919 11 919 11 889 11 c 0,45,46
 866 11 866 11 829 101 c 1,47,48
 766 200 766 200 729 200 c 2,49,-1
 717 200 l 2,50,51
 675 200 675 200 590 62 c 1,52,53
 568 36 568 36 553 36 c 0,54,55
 520 36 520 36 473 99 c 0,56,57
 433 148 433 148 406 148 c 2,58,-1
 391 148 l 2,59,60
 306 148 306 148 164 13 c 0,61,62
 157 9 157 9 150 9 c 0,63,64
 123 21 123 21 123 54 c 0,65,66
 123 148 123 148 432 310 c 0,67,68
 526.5 356.5 526.5 356.5 582 376 c 1,69,-1
 582 382 l 1,70,-1
 580 382 l 1,71,72
 410 361 410 361 399 361 c 0,73,74
 364 361 364 361 358 404 c 0,75,76
 358 413 358 413 420 501 c 0,77,78
 446 543 446 543 446 552 c 2,79,-1
 446 554 l 1,80,81
 360 554 360 554 289 615 c 1,82,-1
 289 617 l 1,83,84
 297 633 297 633 301 634 c 0,85,86
 371 599 371 599 465 599 c 1,87,88
 496 669 496 669 496 722 c 0,89,90
 496 745 496 745 440 763 c 1,91,-1
 440 765 l 1,92,93
 451 785 451 785 457 785 c 0,0,1
EndSplineSet
EndChar

StartChar: u1B049
Encoding: 73 110665 73
Width: 1048
VWidth: 1048
Flags: W
LayerCount: 2
Fore
SplineSet
717 803 m 0,0,1
 733 803 733 803 780 741 c 1,2,3
 828 691 828 691 872 674 c 1,4,5
 895 654 895 654 895 635 c 0,6,7
 895 607 895 607 788 586 c 1,8,9
 756 575 756 575 682 541 c 1,10,11
 680 473 680 473 680 459 c 2,12,-1
 680 420 l 2,13,14
 681 416 681 416 684 416 c 0,15,16
 745.5 434 745.5 434 786 434 c 0,17,18
 879 434 879 434 911 354 c 1,19,20
 918 316 918 316 918 299 c 0,21,22
 918 111 918 111 569 -8 c 1,23,-1
 567 -8 l 1,24,25
 554 5 554 5 553 10 c 1,26,27
 856 128 856 128 856 285 c 2,28,-1
 856 328 l 1,29,30
 847 397 847 397 811 397 c 1,31,32
 811 401 811 401 786 401 c 2,33,-1
 778 401 l 2,34,35
 733 401 733 401 659 369 c 1,36,-1
 657 369 l 2,37,38
 627 369 627 369 627 406 c 2,39,-1
 627 455 l 2,40,41
 627 462 627 462 629 516 c 1,42,43
 554 483 554 483 399 358 c 0,44,45
 391 350 391 350 391 342 c 2,46,-1
 391 336 l 2,47,48
 391 231 391 231 395 152 c 1,49,50
 383 78 383 78 350 78 c 0,51,52
 337 78 337 78 313 117 c 1,53,54
 261 152 261 152 172 190 c 1,55,56
 163 199 163 199 160 215 c 1,57,58
 172 245 172 245 287 336 c 0,59,60
 344 380 344 380 344 383 c 2,61,-1
 344 498 l 2,62,63
 344 502 344 502 340 502 c 2,64,-1
 338 502 l 1,65,66
 307 496 307 496 211 426 c 1,67,68
 211 426 211 426 209 425.5 c 128,-1,69
 207 425 207 425 203 424.5 c 128,-1,70
 199 424 199 424 195 424 c 0,71,72
 161 424 161 424 131 487 c 1,73,-1
 131 496 l 1,74,75
 138 506 138 506 150 506 c 1,76,77
 167 481 167 481 186 481 c 2,78,-1
 193 481 l 2,79,80
 221.5 481 221.5 481 352 559 c 1,81,82
 401 544 401 544 401 520 c 1,83,84
 391 477 391 477 391 412 c 1,85,-1
 397 412 l 1,86,87
 521 493 521 493 631 549 c 1,88,89
 657 803 657 803 717 803 c 0,0,1
684 575 m 1,90,-1
 829 629 l 1,91,-1
 836 637 l 1,92,-1
 836 647 l 2,93,94
 836 651 836 651 793 688 c 1,95,96
 756 727 756 727 731 764 c 0,97,98
 727 766 727 766 723 766 c 0,99,100
 699 766 699 766 684 575 c 1,90,-1
305 762 m 1,101,102
 331 727 331 727 369 727 c 0,103,104
 438 722.5 438 722.5 438 688 c 2,105,-1
 438 682 l 2,106,107
 438 659 438 659 393 659 c 0,108,109
 364 659 364 659 317 631 c 0,110,111
 314 631 314 631 305 643 c 1,112,-1
 305 645 l 1,113,114
 328 665 328 665 342 672 c 1,115,-1
 342 680 l 1,116,117
 311 690 311 690 287 750 c 0,118,119
 287 757.5 287 757.5 305 762 c 1,101,102
223 203 m 1,120,-1
 223 197 l 2,121,122
 223 183 223 183 328 162 c 1,123,-1
 344 162 l 1,124,-1
 344 319 l 1,125,-1
 340 319 l 1,126,127
 230 229 230 229 223 203 c 1,120,-1
EndSplineSet
EndChar

StartChar: u1B04A
Encoding: 74 110666 74
Width: 1048
VWidth: 1048
Flags: W
LayerCount: 2
Fore
SplineSet
329 800 m 0,0,1
 423 757 423 757 423 712 c 0,2,3
 423 671 423 671 304 591 c 0,4,5
 283 574 283 574 198 513 c 1,6,-1
 196 509 l 2,7,8
 196 501 196 501 237 466 c 1,9,10
 292 396 292 396 292 308 c 1,11,12
 273 160 273 160 228 71 c 1,13,14
 200 26 200 26 181 22 c 1,15,-1
 177 22 l 1,16,17
 163 33 163 33 163 60 c 0,18,19
 163 97 163 97 191 122 c 1,20,21
 237 220 237 220 237 327 c 0,22,23
 237 436 237 436 189 470 c 0,24,25
 163 484 163 484 155 501 c 1,26,27
 155 517 155 517 222 562 c 1,28,29
 353 667 353 667 353 720 c 2,30,-1
 353 724 l 2,31,32
 353 762 353 762 310 783 c 1,33,34
 322 800 322 800 329 800 c 0,0,1
677 683 m 1,35,-1
 679 683 l 1,36,37
 790 634 790 634 790 529 c 1,38,39
 757 362 757 362 757 306 c 2,40,-1
 757 253 l 2,41,42
 757 117 757 117 894 15 c 1,43,-1
 894 13 l 1,44,45
 889.5 -0.5 889.5 -0.5 882 -5 c 1,46,-1
 880 -5 l 1,47,48
 822 22 822 22 757 101 c 1,49,50
 699 188 699 188 699 278 c 0,51,52
 699 312 699 312 732 521 c 1,53,-1
 732 534 l 2,54,55
 732 622 732 622 667 669 c 1,56,-1
 667 673 l 2,57,58
 667 676 667 676 677 683 c 1,35,-1
435 527 m 1,59,60
 511 466 511 466 511 321 c 2,61,-1
 511 296 l 2,62,63
 511 164 511 164 460 144 c 1,64,-1
 447 144 l 1,65,66
 435 151 435 151 435 169 c 1,67,68
 454 242 454 242 454 333 c 2,69,-1
 454 345 l 2,70,71
 454 471 454 471 417 517 c 1,72,73
 427 527 427 527 435 527 c 1,59,60
EndSplineSet
EndChar

StartChar: u1B04B
Encoding: 75 110667 75
Width: 1048
VWidth: 1048
Flags: W
LayerCount: 2
Fore
SplineSet
471 826 m 0,0,1
 569 816 569 816 569 771 c 1,2,-1
 563 706 l 1,3,-1
 567 706 l 2,4,5
 582 706 582 706 641 742 c 0,6,7
 650 746 650 746 655 746 c 0,8,9
 678 746 678 746 692 726 c 1,10,-1
 692 714 l 2,11,12
 692 697 692 697 598 667 c 1,13,14
 561 660 561 660 561 654 c 2,15,-1
 561 609 l 2,16,17
 561 606 561 606 604 599 c 1,18,19
 631 584 631 584 631 554 c 0,20,21
 631 521 631 521 563 464 c 1,22,23
 563 400 563 400 535 400 c 1,24,-1
 504 423 l 1,25,-1
 502 423 l 2,26,27
 497 423 497 423 406 359 c 0,28,29
 379 342 379 342 276 286 c 1,30,-1
 276 284 l 1,31,-1
 281 284 l 1,32,33
 546 371 546 371 711 421 c 1,34,35
 750 439 750 439 774 439 c 0,36,37
 856 433 856 433 856 402 c 0,38,39
 856 376 856 376 776 376 c 1,40,41
 722 358 722 358 662 298 c 2,42,-1
 651 286 l 1,43,-1
 651 282 l 1,44,45
 770 256 770 256 770 169 c 0,46,47
 770 14.5 770 14.5 416 -32 c 1,48,49
 406 -18 406 -18 406 -11 c 1,50,51
 513 7 513 7 600 44 c 1,52,53
 684 84.5 684 84.5 702 134 c 0,54,55
 709 152 709 152 709 157 c 2,56,-1
 709 185 l 2,57,58
 709 245 709 245 637 253 c 1,59,60
 497 80 497 80 424 62 c 0,61,62
 416 62 416 62 377 116 c 1,63,64
 338 140 338 140 338 159 c 0,65,66
 338 216 338 216 532 271 c 1,67,68
 616 284 616 284 616 300 c 1,69,70
 685 374 685 374 692 374 c 1,71,-1
 692 380 l 1,72,73
 556 354 556 354 410 292 c 1,74,75
 283 233 283 233 217 198 c 1,76,77
 217 198 217 198 211 196 c 0,78,79
 193 196 193 196 193 239 c 0,80,81
 193 273 193 273 248 288 c 1,82,83
 320 316 320 316 465 439 c 1,84,-1
 465 445 l 1,85,86
 387 475 387 475 387 511 c 0,87,88
 387 558 387 558 516 603 c 1,89,-1
 516 648 l 1,90,-1
 483 648 l 2,91,92
 481 648 481 648 481 646 c 1,93,-1
 477 648 l 1,94,-1
 469 648 l 2,95,96
 415 648 415 648 379 708 c 1,97,-1
 379 714 l 2,98,99
 379 717 379 717 387 722 c 1,100,101
 418 691 418 691 477 691 c 2,102,-1
 496 691 l 1,103,-1
 516 693 l 1,104,-1
 516 722 l 2,105,106
 516 790 516 790 467 806 c 0,107,108
 464.17129273 806.565741454 464.17129273 806.565741454 461.032302466 807.516151233 c 0,109,110
 459.434258546 808 459.434258546 808 459 808 c 1,111,-1
 459 812 l 1,112,113
 465 826 465 826 471 826 c 0,0,1
563 558 m 1,114,-1
 563 515 l 1,115,-1
 565 515 l 1,116,117
 586 531.5 586 531.5 586 548 c 2,118,-1
 586 552 l 2,119,120
 586 558 586 558 569 560 c 0,121,122
 568 560 568 560 566 558.909830056 c 128,-1,123
 564 558 564 558 563 558 c 1,114,-1
430 501 m 1,124,-1
 430 488 l 2,125,126
 430 477 430 477 492 460 c 1,127,128
 516 472 516 472 516 484 c 2,129,-1
 516 552 l 1,130,131
 512 552 512 552 512 554 c 1,132,133
 456.5 540.5 456.5 540.5 434 509 c 0,134,135
 434 505 434 505 430 501 c 1,124,-1
387 151 m 2,136,-1
 387 144 l 1,137,138
 415 110 415 110 440 110 c 1,139,140
 510 134 510 134 586 251 c 1,141,-1
 586 255 l 1,142,-1
 582 255 l 1,143,144
 475 234 475 234 395 167 c 0,145,146
 387 159 387 159 387 151 c 2,136,-1
EndSplineSet
EndChar

StartChar: u1B04C
Encoding: 76 110668 76
Width: 1048
VWidth: 1048
Flags: W
LayerCount: 2
Fore
SplineSet
286 805 m 1,0,1
 361 796 361 796 361 762 c 1,2,3
 355 743 355 743 349 700 c 1,4,-1
 353 700 l 1,5,6
 411 743 411 743 460 743 c 1,7,8
 499 738 499 738 499 709 c 0,9,10
 499 679 499 679 439 631 c 1,11,12
 443.5 613 443.5 613 493 592 c 1,13,14
 501 582 501 582 501 578 c 0,15,16
 501 540 501 540 337 457 c 1,17,-1
 337 395 l 2,18,19
 337 392 337 392 339 360 c 1,20,21
 359 360 359 360 546 559 c 1,22,-1
 558 543 l 1,23,24
 530 500 530 500 341 309 c 1,25,26
 346 242 346 242 351 201 c 1,27,-1
 353 201 l 1,28,29
 377 237 377 237 398 319 c 1,30,-1
 402 322 l 1,31,-1
 407 322 l 1,32,33
 435 310 435 310 435 215 c 0,34,35
 437 193 437 193 437 166 c 0,36,37
 432 2 432 2 413 2 c 1,38,39
 413 -2 413 -2 394 -8 c 1,40,41
 353 -8 353 -8 325 96 c 1,42,-1
 321 96 l 1,43,44
 261 23 261 23 230 23 c 2,45,-1
 228 23 l 2,46,47
 195 23 195 23 183 61 c 1,48,49
 134 123 134 123 134 133 c 0,50,51
 132 139 132 139 132 141 c 0,52,53
 132 191 132 191 294 328 c 1,54,-1
 294 330 l 1,55,56
 290 406 290 406 290 436 c 2,57,-1
 290 438 l 1,58,59
 192 408 192 408 163 408 c 0,60,61
 116 413 116 413 116 451 c 0,62,63
 116 484 116 484 165 508 c 0,64,65
 169 508 169 508 173 498 c 1,66,-1
 173 496 l 1,67,68
 159 483 159 483 159 479 c 2,69,-1
 159 465 l 2,70,71
 160 461 160 461 163 461 c 2,72,-1
 179 461 l 2,73,74
 211 461 211 461 286 489 c 1,75,76
 286.609611797 493.876894374 286.609611797 493.876894374 287.602287466 499.397712534 c 0,77,78
 288 501.609611797 288 501.609611797 288 502 c 0,79,80
 288 539 288 539 294 641 c 1,81,82
 273 640 273 640 226 586 c 1,83,-1
 214 584 l 1,84,85
 167 595 167 595 167 645 c 0,86,87
 167 689 167 689 194 713 c 1,88,89
 208 713 208 713 208 686 c 0,90,91
 213 645 213 645 222 645 c 2,92,-1
 230 645 l 1,93,94
 298 669 298 669 298 682 c 0,95,96
 307 739 307 739 308 752 c 0,97,98
 301 786 301 786 275 786 c 1,99,100
 275 797 275 797 286 805 c 1,0,1
671 758 m 1,101,102
 765 740 765 740 765 698 c 0,103,104
 765 649 765 649 679 459 c 0,105,106
 677 455 677 455 677 449 c 2,107,-1
 677 446 l 2,108,109
 678 442 678 442 681 442 c 2,110,-1
 685 442 l 2,111,112
 689 442 689 442 740 449 c 1,113,114
 782 449 782 449 790 387 c 1,115,-1
 790 385 l 2,116,117
 790 356 790 356 759 244 c 1,118,119
 802.5 212.5 802.5 212.5 837 178 c 0,120,121
 933 73 933 73 933 25 c 1,122,123
 925 -10 925 -10 902 -10 c 0,124,125
 881 -10 881 -10 851 70 c 1,126,127
 822 127 822 127 759 193 c 1,128,-1
 742 205 l 1,129,130
 656 106 656 106 564 106 c 1,131,132
 505 112 505 112 505 152 c 2,133,-1
 505 154 l 2,134,135
 505 211 505 211 599 254 c 0,136,137
 629 266 629 266 663 266 c 0,138,139
 666 266 666 266 672 265.5 c 128,-1,140
 678 265 678 265 689 264.5 c 128,-1,141
 700 264 700 264 710 264 c 1,142,143
 730 311 730 311 730 391 c 0,144,145
 730 402 730 402 720 408 c 1,146,147
 709 408 709 408 663 397 c 1,148,149
 638 413 638 413 638 430 c 1,150,151
 701 615 701 615 701 680 c 2,152,-1
 701 694 l 1,153,154
 689 737 689 737 658 737 c 1,155,-1
 658 741 l 2,156,157
 658 742 658 742 671 758 c 1,101,102
339 594 m 1,158,-1
 343 594 l 1,159,160
 435 663 435 663 435 688 c 2,161,-1
 435 698 l 2,162,163
 435 702 435 702 427 707 c 1,164,-1
 423 707 l 1,165,166
 345 683 345 683 345 657 c 1,167,168
 340.5 631.5 340.5 631.5 339 594 c 1,158,-1
335 535 m 2,169,-1
 335 514 l 1,170,-1
 337 514 l 1,171,172
 441 557 441 557 441 584 c 0,173,174
 441 601 441 601 425 618 c 1,175,-1
 421 618 l 1,176,177
 337 568 337 568 337 565 c 0,178,179
 335 541 335 541 335 535 c 2,169,-1
187 131 m 2,180,-1
 187 125 l 1,181,182
 202 72 202 72 228 72 c 1,183,184
 271 86 271 86 312 141 c 1,185,-1
 298 274 l 1,186,187
 278 273 278 273 214 186 c 0,188,189
 187 148 187 148 187 131 c 2,180,-1
400 256 m 1,190,191
 388 202 388 202 364 145 c 1,192,193
 364 106 364 106 386 61 c 1,194,-1
 392 61 l 2,195,196
 402.5 61 402.5 61 407 190 c 1,197,-1
 404 256 l 1,198,-1
 400 256 l 1,190,191
536 162 m 1,199,-1
 536 152 l 2,200,201
 536 143 536 143 562 139 c 1,202,203
 631 139 631 139 695 221 c 1,204,-1
 695 227 l 1,205,206
 682 238 682 238 656 238 c 2,207,-1
 636 238 l 2,208,209
 587 238 587 238 538 174 c 1,210,-1
 536 162 l 1,199,-1
EndSplineSet
EndChar

StartChar: u1B04D
Encoding: 77 110669 77
Width: 1048
VWidth: 1048
Flags: W
LayerCount: 2
Fore
SplineSet
486 786 m 1,0,1
 542 748 542 748 542 735 c 0,2,3
 542 708 542 708 443 684 c 1,4,5
 372 495 372 495 372 455 c 1,6,-1
 374 455 l 1,7,8
 441 499 441 499 540 526 c 0,9,10
 546 526 546 526 546 532 c 0,11,12
 535 567 535 567 521 567 c 1,13,-1
 521 569 l 1,14,15
 536 584 536 584 544 584 c 0,16,17
 559 582.5 559 582.5 595 539 c 1,18,19
 615 539 615 539 675 543 c 1,20,21
 785 543 785 543 806 465 c 1,22,23
 806 449 806 449 753 281 c 0,24,25
 749 274 749 274 749 258 c 2,26,-1
 749 250 l 2,27,28
 749 246 749 246 755 246 c 0,29,30
 768 246 768 246 810 248 c 1,31,32
 912 240 912 240 912 180 c 2,33,-1
 912 176 l 2,34,35
 912 115 912 115 806 63 c 0,36,37
 738 34 738 34 609 10 c 0,38,39
 595 10 595 10 593 8 c 0,40,41
 585 8 585 8 577 35 c 1,42,-1
 577 37 l 1,43,44
 708 59 708 59 796 106 c 1,45,46
 843 136 843 136 843 182 c 1,47,48
 837 211 837 211 810 211 c 2,49,-1
 773 211 l 2,50,51
 761 211 761 211 740 205 c 1,52,53
 718 205 718 205 703 238 c 1,54,55
 740 407 740 407 740 463 c 0,56,57
 740 497 740 497 687 508 c 1,58,-1
 636 508 l 2,59,60
 599 508 599 508 599 502 c 2,61,-1
 599 492 l 2,62,63
 599 326 599 326 396 147 c 1,64,-1
 396 143 l 1,65,66
 425 94 425 94 425 88 c 0,67,68
 425 71 425 71 396 66 c 0,69,70
 374 66 374 66 347 106 c 1,71,-1
 345 106 l 1,72,73
 273 47 273 47 239 47 c 0,74,75
 208 47 208 47 185 113 c 1,76,77
 136 192 136 192 136 209 c 0,78,79
 136 269 136 269 290 406 c 1,80,81
 327 427 327 427 327 444 c 0,82,83
 327 494 327 494 384 666 c 0,84,85
 386 666 386 666 386 672 c 2,86,-1
 386 674 l 1,87,88
 363 670 363 670 343 670 c 2,89,-1
 337 670 l 2,90,91
 245.5 670 245.5 670 208 727 c 1,92,93
 213 738 213 738 224 745 c 1,94,95
 258 717 258 717 323 717 c 0,96,97
 415 717 415 717 415 741 c 1,98,99
 460 786 460 786 486 786 c 1,0,1
359 313 m 0,100,101
 363 192 363 192 378 188 c 1,102,103
 546 329 546 329 546 494 c 1,104,105
 544 494 544 494 544 496 c 1,106,107
 423 457 423 457 364 395 c 1,108,109
 359 353 359 353 359 313 c 0,100,101
191 190 m 2,110,-1
 191 182 l 1,111,112
 206 109 206 109 239 109 c 2,113,-1
 257 109 l 2,114,115
 288 109 288 109 331 154 c 1,116,117
 310 217 310 217 310 332 c 0,118,119
 310 334 310 334 310.5 338.5 c 128,-1,120
 311 343 311 343 311.5 351.5 c 128,-1,121
 312 360 312 360 312 367 c 1,122,123
 280 354 280 354 222 272 c 1,124,125
 191 218 191 218 191 190 c 2,110,-1
EndSplineSet
EndChar

StartChar: u1B04E
Encoding: 78 110670 78
Width: 1048
VWidth: 1048
Flags: W
LayerCount: 2
Fore
SplineSet
482 827 m 1,0,1
 585 807 585 807 585 762 c 1,2,3
 579 725 579 725 579 692 c 1,4,5
 586 692 586 692 665 731 c 1,6,7
 712 725 712 725 712 702 c 0,8,9
 712 678 712 678 572 643 c 1,10,-1
 572 584 l 1,11,-1
 589 584 l 2,12,13
 650 584 650 584 658 545 c 1,14,15
 658 511 658 511 570 457 c 1,16,-1
 570 455 l 2,17,18
 570 441 570 441 572 391 c 0,19,20
 572 367 572 367 540 352 c 1,21,22
 530 352 530 352 472 389 c 0,23,24
 465 393 465 393 460 393 c 0,25,26
 429 375 429 375 253 266 c 1,27,-1
 251 262 l 1,28,-1
 255 262 l 1,29,30
 375 284.5 375 284.5 570 313 c 1,31,32
 685.5 436 685.5 436 720 436 c 0,33,34
 736 436 736 436 773 393 c 1,35,36
 802 369 802 369 865 336 c 0,37,38
 876 327 876 327 876 311 c 0,39,40
 876 290 876 290 843 285 c 1,41,42
 812 285 812 285 780.5 285.5 c 128,-1,43
 749 286 749 286 732.5 286.5 c 128,-1,44
 716 287 716 287 710 287 c 0,45,46
 597 287 597 287 597 270 c 1,47,48
 566 245 566 245 470 139 c 1,49,-1
 470 135 l 1,50,-1
 472 135 l 1,51,52
 602 166 602 166 656 166 c 2,53,-1
 675 166 l 2,54,55
 759 166 759 166 783 104 c 0,56,57
 787 97 787 97 787 82 c 0,58,59
 787 -3 787 -3 589 -33 c 1,60,-1
 570 -33 l 1,61,62
 562 -20 562 -20 562 -16 c 0,63,64
 726 22 726 22 726 82 c 2,65,-1
 726 94 l 1,66,67
 720 135 720 135 675 135 c 0,68,69
 671.039809821 135.565741454 671.039809821 135.565741454 666 136.516151233 c 0,70,71
 663.434258546 137 663.434258546 137 663 137 c 0,72,73
 557 137 557 137 445 63 c 0,74,75
 442.17129273 62.4342585459 442.17129273 62.4342585459 439.032302466 61.483848767 c 0,76,77
 437.434258546 61 437.434258546 61 437 61 c 0,78,79
 402 79 402 79 402 100 c 0,80,81
 402 107 402 107 454 162 c 1,82,83
 479 199 479 199 542 268 c 1,84,-1
 542 272 l 1,85,-1
 540 272 l 1,86,87
 336 249 336 249 212 193 c 1,88,-1
 204 193 l 1,89,90
 173 218 173 218 173 242 c 0,91,92
 173 274 173 274 265 307 c 1,93,94
 383 367 383 367 435 408 c 1,95,-1
 435 410 l 1,96,97
 366 457 366 457 366 477 c 0,98,99
 366 524 366 524 527 582 c 1,100,-1
 527 637 l 1,101,102
 491 635 491 635 488 635 c 0,103,104
 403 635 403 635 366 700 c 0,105,106
 366 704 366 704 378 713 c 1,107,108
 408 680 408 680 468 680 c 2,109,-1
 505 680 l 1,110,-1
 529 682 l 1,111,-1
 529 735 l 2,112,113
 529 780 529 780 472 807 c 1,114,115
 472 816 472 816 482 827 c 1,0,1
572 553 m 1,116,-1
 572 492 l 1,117,-1
 577 492 l 1,118,119
 607 513 607 513 607 526 c 2,120,-1
 607 541 l 1,121,122
 601 553 601 553 585 553 c 2,123,-1
 572 553 l 1,116,-1
417 457 m 1,124,125
 429 436 429 436 460 426 c 1,126,127
 524 462 524 462 527 469 c 2,128,-1
 527 543 l 1,129,-1
 525 543 l 2,130,131
 494 543 494 543 427 485 c 0,132,133
 417 472 417 472 417 457 c 1,124,125
488 418 m 1,134,-1
 488 414 l 1,135,136
 514 406 514 406 519 406 c 2,137,-1
 525 406 l 1,138,-1
 525 440 l 1,139,140
 514 440 514 440 488 418 c 1,134,-1
632 319 m 1,141,-1
 632 315 l 1,142,143
 751 326 751 326 804 326 c 1,144,-1
 804 330 l 1,145,146
 749 391 749 391 726 391 c 0,147,148
 701 391 701 391 632 319 c 1,141,-1
EndSplineSet
EndChar

StartChar: u1B04F
Encoding: 79 110671 79
Width: 1048
VWidth: 1048
Flags: W
LayerCount: 2
Fore
SplineSet
483 805 m 0,0,1
 573 805 573 805 588 760 c 0,2,3
 590 756 590 756 590 752 c 0,4,5
 584 720 584 720 584 657 c 1,6,7
 639 664 639 664 709 707 c 0,8,9
 719 709 719 709 723 709 c 0,10,11
 754 701 754 701 754 680 c 0,12,13
 754 634 754 634 582 606 c 1,14,-1
 582 545 l 2,15,16
 582 439 582 439 590 362 c 1,17,18
 589 330 589 330 565 281 c 1,19,-1
 567 281 l 1,20,21
 649 309 649 309 649 326 c 1,22,23
 710 410 710 410 717 410 c 0,24,25
 724 414 724 414 729 414 c 0,26,27
 736 413 736 413 821 377 c 1,28,29
 827 368 827 368 827 362 c 0,30,31
 827 340 827 340 709 313 c 1,32,33
 535 169 535 169 535 100 c 2,34,-1
 535 82 l 2,35,36
 535 49 535 49 610 45 c 1,37,-1
 618 45 l 2,38,39
 629 45 629 45 686 57 c 1,40,41
 732 57 732 57 743 37 c 1,42,-1
 743 25 l 1,43,44
 719 -10 719 -10 645 -10 c 0,45,46
 540 -10 540 -10 502 47 c 0,47,48
 498 51 498 51 492 86 c 1,49,50
 492 147 492 147 584 254 c 1,51,-1
 582 254 l 1,52,53
 387 158 387 158 330 158 c 0,54,55
 239 158 239 158 221 272 c 1,56,57
 221 350 221 350 287 436 c 1,58,59
 338 489 338 489 383 489 c 2,60,-1
 397 489 l 2,61,62
 480 489 480 489 535 373 c 1,63,-1
 537 373 l 1,64,65
 531 456 531 456 530 596 c 1,66,-1
 528 596 l 1,67,-1
 465 590 l 1,68,69
 367 590 367 590 307 635 c 1,70,-1
 307 637 l 2,71,72
 307 648 307 648 313 653 c 1,73,74
 362 637 362 637 414 637 c 2,75,-1
 457 637 l 2,76,77
 496 637 496 637 528 645 c 1,78,-1
 528 735 l 2,79,80
 528 770 528 770 471 788 c 1,81,-1
 471 793 l 2,82,83
 471 805 471 805 483 805 c 0,0,1
283 311 m 2,84,-1
 283 274 l 2,85,86
 283 222 283 222 342 213 c 1,87,-1
 358 213 l 2,88,89
 400 213 400 213 518 258 c 1,90,-1
 518 264 l 1,91,92
 513 264 513 264 508 332 c 1,93,94
 468 461 468 461 399 461 c 2,95,-1
 385 461 l 2,96,97
 340 461 340 461 303 391 c 0,98,99
 283 348 283 348 283 311 c 2,84,-1
EndSplineSet
EndChar

StartChar: u1B050
Encoding: 80 110672 80
Width: 1048
VWidth: 1048
Flags: W
LayerCount: 2
Fore
SplineSet
733 785 m 0,0,1
 769 785 769 785 776 753 c 1,2,3
 776 728 776 728 676 577 c 1,4,-1
 659 546 l 1,5,-1
 664 546 l 1,6,7
 702 570 702 570 745 570 c 0,8,9
 796 570 796 570 819 507 c 0,10,11
 825 481.5 825 481.5 825 462 c 2,12,-1
 825 450 l 2,13,14
 825 358.5 825 358.5 735 300 c 0,15,16
 716 287 716 287 655 267 c 1,17,-1
 621 198 l 1,18,19
 658 206 658 206 664 206 c 0,20,21
 724 206 724 206 829 101 c 0,22,23
 860 65 860 65 860 40 c 0,24,25
 860 18 860 18 827 9 c 1,26,27
 806 19 806 19 754 97 c 1,28,29
 689 171 689 171 653 171 c 2,30,-1
 635 171 l 2,31,32
 602 171 602 171 516 46 c 1,33,34
 489 17 489 17 469 17 c 2,35,-1
 463 17 l 1,36,37
 449 25 449 25 449 42 c 0,38,39
 449 78 449 78 514 122 c 1,40,41
 572 190 572 190 608 267 c 0,42,43
 643 348 643 348 643 370 c 2,44,-1
 643 382 l 2,45,46
 643 386 643 386 637 386 c 2,47,-1
 623 386 l 1,48,49
 618 394 618 394 618 400 c 1,50,51
 649 425 649 425 672 425 c 0,52,53
 696 425 696 425 696 392 c 0,54,55
 696 373 696 373 674 310 c 1,56,-1
 678 310 l 1,57,58
 734 332 734 332 754 378 c 0,59,60
 766 410 766 410 766 452 c 2,61,-1
 766 454 l 2,62,63
 766 536 766 536 721 536 c 0,64,65
 655 536 655 536 592 425 c 0,66,67
 581 412 581 412 526 312 c 1,68,69
 514 300 514 300 500 296 c 1,70,71
 479 296 479 296 475 333 c 1,72,73
 475 374 475 374 516 398 c 1,74,75
 627 540 627 540 690 687 c 0,76,77
 702 717 702 717 702 726 c 2,78,-1
 702 728 l 2,79,80
 702 731 702 731 696 734 c 2,81,-1
 694 734 l 2,82,83
 626 734 626 734 528 652 c 1,84,-1
 514 671 l 1,85,-1
 514 673 l 1,86,87
 623 785 623 785 733 785 c 0,0,1
256 769 m 1,88,89
 324 716 324 716 324 675 c 1,90,91
 310 623 310 623 281 529 c 0,92,93
 231 340 231 340 231 228 c 0,94,95
 234 142 234 142 244 142 c 1,96,97
 279 204 279 204 326 298 c 1,98,-1
 330 298 l 1,99,100
 344 291 344 291 344 284 c 0,101,102
 279 142 279 142 279 40 c 0,103,104
 279 23.5 279 23.5 252 13 c 1,105,-1
 250 13 l 2,106,107
 203 13 203 13 188 218 c 1,108,-1
 188 241 l 2,109,110
 188 372 188 372 258 652 c 0,111,112
 260 676 260 676 260 681 c 2,113,-1
 260 701 l 2,114,115
 260 728 260 728 240 757 c 1,116,-1
 256 769 l 1,88,89
EndSplineSet
EndChar

StartChar: u1B051
Encoding: 81 110673 81
Width: 1048
VWidth: 1048
Flags: W
LayerCount: 2
Fore
SplineSet
223 781 m 0,0,1
 334 751 334 751 334 687 c 0,2,3
 334 674 334 674 285 540 c 0,4,5
 246 422 246 422 246 314 c 2,6,-1
 246 206 l 2,7,8
 246 180 246 180 254 148 c 1,9,-1
 260 148 l 1,10,11
 326 370 326 370 526 605 c 0,12,13
 652 751 652 751 737 751 c 2,14,-1
 739 751 l 2,15,16
 791 751 791 751 791 697 c 0,17,18
 791 650 791 650 713 536 c 0,19,20
 670 468 670 468 670 460 c 0,21,22
 670 457 670 457 723 419 c 1,23,24
 739 400 739 400 739 380 c 0,25,26
 739 345 739 345 674 280 c 1,27,28
 604 199 604 199 604 171 c 2,29,-1
 604 167 l 2,30,31
 604 126 604 126 721 114 c 0,32,33
 760 114 760 114 776 112 c 0,34,35
 794 114 794 114 803 114 c 0,36,37
 856 106 856 106 856 81 c 0,38,39
 856 54 856 54 799 54 c 0,40,41
 614.5 54 614.5 54 571 132 c 0,42,43
 567 145 567 145 567 157 c 0,44,45
 567 196 567 196 651 304 c 1,46,47
 684 353.5 684 353.5 684 370 c 2,48,-1
 684 382 l 2,49,50
 684 400 684 400 639 437 c 0,51,52
 635 444 635 444 635 450 c 0,53,54
 635 465 635 465 694 574 c 0,55,56
 723 635 723 635 723 681 c 2,57,-1
 723 695 l 2,58,59
 723 707 723 707 715 710 c 2,60,-1
 711 710 l 2,61,62
 612 710 612 710 432 429 c 1,63,64
 295 203 295 203 295 36 c 1,65,66
 286 13 286 13 264 13 c 0,67,68
 217 13 217 13 199 161 c 0,69,70
 193 210.5 193 210.5 193 263 c 2,71,-1
 193 278 l 2,72,73
 193 401 193 401 268 689 c 1,74,-1
 268 693 l 2,75,76
 268 737 268 737 209 761 c 1,77,-1
 209 767 l 1,78,79
 217 781 217 781 223 781 c 0,0,1
EndSplineSet
EndChar

StartChar: u1B052
Encoding: 82 110674 82
Width: 1048
VWidth: 1048
Flags: W
LayerCount: 2
Fore
SplineSet
395 766 m 2,0,-1
 397 766 l 2,1,2
 417 766 417 766 498 729 c 1,3,4
 581 696 581 696 674 678 c 1,5,6
 692 664.5 692 664.5 692 651 c 0,7,8
 692 607 692 607 475 535 c 1,9,-1
 475 532 l 1,10,11
 513 440 513 440 549 383 c 1,12,-1
 551 383 l 1,13,14
 648 452 648 452 805 549 c 1,15,16
 811 561 811 561 811 565 c 2,17,-1
 811 567 l 2,18,19
 811 586 811 586 778 598 c 1,20,21
 778 609 778 609 793 618 c 1,22,23
 860 600 860 600 889 563 c 1,24,25
 897 544 897 544 897 543 c 0,26,27
 897 522 897 522 823 498 c 1,28,29
 713 443 713 443 582 352 c 0,30,31
 571 344 571 344 571 342 c 2,32,-1
 571 340 l 1,33,34
 629 267 629 267 629 260 c 0,35,36
 629 246 629 246 602 240 c 1,37,38
 564 250 564 250 547 279 c 0,39,40
 532 306 532 306 526 309 c 1,41,42
 389 198 389 198 389 147 c 2,43,-1
 389 137 l 2,44,45
 389 87.5 389 87.5 512 80 c 0,46,47
 566 80 566 80 633 96 c 1,48,49
 682 89 682 89 682 63 c 2,50,-1
 682 57 l 1,51,52
 670 31 670 31 575 31 c 0,53,54
 571 31 571 31 539 29 c 0,55,56
 395 29 395 29 352 92 c 1,57,58
 344 121 344 121 344 133 c 0,59,60
 344 209 344 209 506 350 c 1,61,62
 453 452 453 452 424 520 c 1,63,-1
 422 520 l 1,64,65
 360 506 360 506 305 506 c 0,66,67
 196 506 196 506 152 553 c 1,68,69
 159 573 159 573 166 573 c 0,70,71
 207 551 207 551 266 551 c 2,72,-1
 297 551 l 2,73,74
 346 551 346 551 403 561 c 1,75,-1
 403 563 l 1,76,-1
 360 692 l 1,77,78
 358 712 358 712 358 715 c 2,79,-1
 358 717 l 1,80,81
 364 766 364 766 395 766 c 2,0,-1
414 719 m 1,82,-1
 414 707 l 2,83,84
 414 671 414 671 457 578 c 1,85,-1
 461 578 l 1,86,87
 606 626 606 626 606 645 c 0,88,89
 606 653 606 653 520 682 c 1,90,91
 435 725 435 725 420 725 c 0,92,93
 417 725 417 725 414 719 c 1,82,-1
EndSplineSet
EndChar

StartChar: u1B053
Encoding: 83 110675 83
Width: 1048
VWidth: 1048
Flags: W
LayerCount: 2
Fore
SplineSet
392 794 m 0,0,1
 488 794 488 794 517 744 c 1,2,3
 541 648 541 648 574 577 c 0,4,5
 577 577 577 577 577 574 c 1,6,7
 674 609 674 609 718 656 c 0,8,9
 733 677 733 677 753 677 c 2,10,-1
 761 677 l 2,11,12
 798 677 798 677 798 650 c 0,13,14
 795 628 795 628 708 581 c 1,15,16
 667 554 667 554 593 529 c 1,17,-1
 593 527 l 2,18,19
 593 520 593 520 650 382 c 1,20,-1
 656 382 l 1,21,22
 740 447 740 447 740 468 c 2,23,-1
 740 478 l 2,24,25
 740 495 740 495 706 505 c 1,26,-1
 706 507 l 1,27,28
 710 526 710 526 716 527 c 0,29,30
 804 506 804 506 804 468 c 0,31,32
 804 433 804 433 714 370 c 1,33,34
 673 335 673 335 673 333 c 0,35,36
 673 316 673 316 798 75 c 1,37,38
 812 37 812 37 812 26 c 0,39,40
 812 8 812 8 796 1 c 1,41,42
 765 1 765 1 724 69 c 1,43,44
 724 89 724 89 634 300 c 1,45,-1
 628 300 l 1,46,-1
 275 13 l 1,47,48
 260 7 260 7 251 7 c 0,49,50
 237 11 237 11 237 28 c 0,51,52
 237 72 237 72 296 99 c 1,53,54
 389 157 389 157 613 347 c 1,55,-1
 613 349 l 1,56,-1
 546 515 l 1,57,-1
 544 515 l 1,58,59
 465 499 465 499 415 499 c 2,60,-1
 400 499 l 2,61,62
 306 499 306 499 247 546 c 1,63,-1
 247 548 l 1,64,65
 259 570 259 570 261 570 c 0,66,67
 308 542 308 542 390 542 c 0,68,69
 457.5 542 457.5 542 525 560 c 1,70,-1
 525 562 l 1,71,72
 454 759 454 759 411 759 c 1,73,74
 407 763 407 763 374 765 c 1,75,-1
 374 769 l 2,76,77
 374 791 374 791 392 794 c 0,0,1
EndSplineSet
EndChar

StartChar: u1B054
Encoding: 84 110676 84
Width: 1048
VWidth: 1048
Flags: W
LayerCount: 2
Fore
SplineSet
443 786 m 2,0,-1
 445 786 l 2,1,2
 546 786 546 786 546 715 c 1,3,4
 538 603 538 603 538 502 c 1,5,6
 689 515 689 515 689 522 c 0,7,8
 699 592 699 592 699 655 c 2,9,-1
 699 672 l 2,10,11
 699 694 699 694 683 694 c 0,12,13
 674 694 674 694 654 680 c 1,14,15
 640 688 640 688 640 700 c 1,16,17
 673 733 673 733 708 735 c 0,18,19
 749 735 749 735 761 674 c 1,20,-1
 759 670 l 1,21,-1
 759 668 l 2,22,23
 759 606 759 606 746 522 c 1,24,25
 776 522 776 522 882 537 c 1,26,-1
 884 537 l 1,27,28
 947 526.5 947 526.5 947 498 c 2,29,-1
 947 489 l 1,30,31
 940 477 940 477 927 477 c 0,32,33
 859 481 859 481 818 481 c 0,34,35
 816 481 816 481 736 479 c 1,36,37
 688 295 688 295 570 207 c 0,38,39
 549 187 549 187 474 139 c 1,40,41
 454 119 454 119 454 102 c 0,42,43
 454 78 454 78 523 66 c 0,44,45
 524 66 524 66 529.5 65.5 c 128,-1,46
 535 65 535 65 543.5 64 c 128,-1,47
 552 63 552 63 562 63 c 0,48,49
 619 63 619 63 691 78 c 1,50,51
 732 70 732 70 732 49 c 0,52,53
 732 8 732 8 572 8 c 1,54,55
 447 15 447 15 423 72 c 0,56,57
 417 93 417 93 417 102 c 0,58,59
 417 138 417 138 519 207 c 1,60,61
 625 300 625 300 652 393 c 1,62,63
 677 456 677 456 677 475 c 1,64,65
 627 474 627 474 534 461 c 1,66,-1
 534 381 l 2,67,68
 534 369 534 369 536 307 c 1,69,70
 527 270 527 270 505 270 c 128,-1,71
 483 270 483 270 480 324 c 0,72,73
 480 389 480 389 486 455 c 1,74,-1
 484 455 l 1,75,76
 316 436 316 436 316 424 c 0,77,78
 331 334 331 334 349 334 c 0,79,80
 361 334 361 334 386 399 c 1,81,-1
 390 399 l 2,82,83
 394 399 394 399 407 383 c 1,84,85
 380 323 380 323 380 266 c 1,86,87
 372 252 372 252 357 252 c 0,88,89
 323 252 323 252 278 362 c 1,90,-1
 269 410 l 1,91,92
 214 389 214 389 189 389 c 0,93,94
 145 389 145 389 101 463 c 1,95,-1
 101 465 l 1,96,97
 104 465 104 465 116 481 c 1,98,99
 160 449 160 449 183 449 c 2,100,-1
 214 449 l 2,101,102
 237 449 237 449 267 455 c 1,103,104
 277 616 277 616 300 631 c 1,105,106
 313 631 313 631 321 623 c 1,107,108
 312 574 312 574 312 535 c 2,109,-1
 312 465 l 1,110,-1
 486 494 l 1,111,112
 488 548 488 548 488 555 c 2,113,-1
 488 627 l 2,114,115
 488 745 488 745 468 745 c 1,116,117
 468 752 468 752 425 764 c 1,118,119
 431 786 431 786 443 786 c 2,0,-1
EndSplineSet
EndChar

StartChar: u1B055
Encoding: 85 110677 85
Width: 1048
VWidth: 1048
Flags: W
LayerCount: 2
Fore
SplineSet
321 806 m 0,0,1
 411 785 411 785 411 751 c 2,2,-1
 411 744 l 2,3,4
 411 741 411 741 400 673 c 1,5,-1
 404 671 l 1,6,7
 456 701 456 701 470 701 c 0,8,9
 494 701 494 701 507 681 c 1,10,-1
 507 671 l 2,11,12
 507 652 507 652 396 622 c 1,13,14
 386 518 386 518 386 419 c 2,15,-1
 386 386 l 1,16,-1
 388 386 l 1,17,18
 493 518 493 518 534 581 c 1,19,20
 541 578 541 578 546 570 c 1,21,-1
 546 568 l 1,22,23
 483 450 483 450 388 321 c 1,24,25
 388 255 388 255 361 255 c 2,26,-1
 357 255 l 1,27,28
 335 271 335 271 333 271 c 0,29,30
 238 183 238 183 222 183 c 1,31,32
 200 195 200 195 200 226 c 1,33,34
 255 312 255 312 255 337 c 1,35,36
 284 413 284 413 284 439 c 2,37,-1
 284 441 l 2,38,39
 284 445 284 445 280 445 c 0,40,41
 216 415 216 415 216 390 c 0,42,43
 216 384 216 384 222 376 c 1,44,45
 216 366 216 366 210 366 c 0,46,47
 179 378 179 378 179 400 c 0,48,49
 179 448 179 448 292 505 c 1,50,51
 308 507 308 507 310 507 c 0,52,53
 327 507 327 507 341 493 c 1,54,-1
 343 493 l 1,55,56
 344 555 344 555 349 611 c 1,57,58
 346 611 346 611 340.5 610.5 c 128,-1,59
 335 610 335 610 324.5 609.5 c 128,-1,60
 314 609 314 609 304 609 c 0,61,62
 234 609 234 609 200 669 c 1,63,-1
 200 671 l 1,64,65
 201 671 201 671 210 681 c 1,66,-1
 212 681 l 1,67,68
 244 652 244 652 282 652 c 2,69,-1
 312 652 l 2,70,71
 332 652 332 652 355 656 c 1,72,-1
 355 699 l 2,73,74
 355 767 355 767 310 785 c 0,75,76
 309 785 309 785 307 785.909830056 c 128,-1,77
 305 787 305 787 304 787 c 1,78,79
 312 806 312 806 321 806 c 0,0,1
703 751 m 1,80,81
 740 733 740 733 740 710 c 1,82,83
 731 667 731 667 701 597 c 1,84,-1
 706 595 l 1,85,86
 762 607 762 607 798 607 c 0,87,88
 869 603 869 603 869 562 c 0,89,90
 869 487 869 487 630 400 c 1,91,92
 626 384 626 384 626 368 c 1,93,94
 666 376 666 376 681 376 c 0,95,96
 761 376 761 376 761 278 c 0,97,98
 761 158 761 158 695 36 c 1,99,100
 651 -11 651 -11 605 -11 c 0,101,102
 528 -11 528 -11 490 118 c 1,103,-1
 484 118 l 1,104,105
 384 29 384 29 333 17 c 1,106,-1
 331 17 l 2,107,108
 328 17 328 17 318 30 c 1,109,-1
 318 32 l 1,110,111
 468 121 468 121 534 273 c 0,112,113
 542 294 542 294 542 300 c 1,114,115
 469 271 469 271 454 271 c 0,116,117
 421 275.5 421 275.5 421 298 c 0,118,119
 421 328 421 328 478 361 c 1,120,-1
 493 357 l 1,121,-1
 493 353 l 1,122,123
 475 335 475 335 474 333 c 2,124,-1
 474 331 l 2,125,126
 474 327 474 327 480 327 c 0,127,128
 564 336 564 336 564 353 c 1,129,130
 572 382 572 382 572 394 c 0,131,132
 572 410 572 410 534 429 c 1,133,-1
 534 431 l 2,134,135
 534 442 534 442 542 445 c 2,136,-1
 552 445 l 2,137,138
 598 445 598 445 622 425 c 1,139,140
 728 454 728 454 787 519 c 0,141,142
 806 541 806 541 806 556 c 2,143,-1
 806 562 l 2,144,145
 806 575 806 575 775 577 c 0,146,147
 749 577 749 577 691 554 c 1,148,149
 660 568 660 568 660 587 c 1,150,151
 677 646 677 646 677 681 c 2,152,-1
 677 691 l 2,153,154
 677 694 677 694 671 697 c 2,155,-1
 669 697 l 2,156,157
 652 697 652 697 589 630 c 1,158,159
 578 634 578 634 574 642 c 1,160,-1
 574 644 l 1,161,162
 657 751 657 751 703 751 c 1,80,81
263 280 m 1,163,-1
 265 280 l 1,164,165
 307 304 307 304 339 339 c 1,166,-1
 339 341 l 2,167,168
 339 385 339 385 343 456 c 1,169,170
 338 447 338 447 296 343 c 1,171,172
 263 283 263 283 263 280 c 1,163,-1
509 140 m 1,173,-1
 509 138 l 1,174,175
 546 40 546 40 593 40 c 2,176,-1
 609 40 l 2,177,178
 667 40 667 40 697 208 c 0,179,180
 701.5 236.5 701.5 236.5 703 280 c 0,181,182
 700 341 700 341 683 341 c 2,183,-1
 677 341 l 2,184,185
 643 341 643 341 607 321 c 1,186,187
 580 224 580 224 509 140 c 1,173,-1
EndSplineSet
EndChar

StartChar: u1B056
Encoding: 86 110678 86
Width: 1048
VWidth: 1048
Flags: W
LayerCount: 2
Fore
SplineSet
352 841 m 2,0,-1
 365 841 l 2,1,2
 438 841 438 841 438 794 c 2,3,-1
 438 792 l 2,4,5
 438 780 438 780 434 749 c 1,6,-1
 436 749 l 2,7,8
 453 749 453 749 508 781 c 1,9,-1
 514 781 l 2,10,11
 543 781 543 781 543 761 c 0,12,13
 543 731 543 731 434 699 c 1,14,15
 430 682 430 682 420 650 c 1,16,-1
 420 646 l 1,17,18
 494 673 494 673 549 714 c 1,19,-1
 561 716 l 1,20,21
 586 716 586 716 594 693 c 1,22,23
 593 672 593 672 502 609 c 1,24,-1
 444 558 l 1,25,-1
 444 554 l 1,26,-1
 463 556 l 2,27,28
 472 556 472 556 502 546 c 1,29,30
 536 564 536 564 637 685 c 0,31,32
 637 690 637 690 645 695 c 1,33,-1
 647 695 l 1,34,35
 653 680 653 680 653 677 c 0,36,37
 619 624 619 624 530 525 c 1,38,39
 545 490.5 545 490.5 545 468 c 0,40,41
 545 377 545 377 436 304 c 1,42,43
 405 294 405 294 397 294 c 0,44,45
 344 305 344 305 344 345 c 0,46,47
 344 400.5 344 400.5 473 519 c 1,48,-1
 473 523 l 1,49,50
 460 536 460 536 446 536 c 2,51,-1
 444 536 l 2,52,53
 413 536 413 536 352 452 c 1,54,55
 274 358 274 358 188 243 c 1,56,-1
 174 232 l 1,57,-1
 164 232 l 1,58,59
 152 240 152 240 152 267 c 0,60,61
 152 310 152 310 223 366 c 1,62,63
 475 622.5 475 622.5 475 636 c 1,64,-1
 473 636 l 1,65,-1
 285 538 l 2,66,67
 281 534 281 534 254 529 c 1,68,69
 216 529 216 529 184 583 c 1,70,71
 191 597 191 597 197 599 c 1,72,73
 221 581 221 581 240 581 c 0,74,75
 280.5 581 280.5 581 369 632 c 1,76,77
 380 632 380 632 389 693 c 1,78,-1
 387 693 l 1,79,80
 351 689 351 689 332 689 c 0,81,82
 284 689 284 689 264 736 c 1,83,-1
 264 738 l 1,84,85
 264 738 264 738 265.5 739 c 128,-1,86
 267 740 267 740 270 743 c 128,-1,87
 273 746 273 746 276 749 c 1,88,89
 298 732 298 732 313 732 c 2,90,-1
 344 732 l 2,91,92
 385 732 385 732 391 742 c 1,93,-1
 391 753 l 2,94,95
 391 801 391 801 369 816 c 1,96,97
 340 825 340 825 340 830 c 0,98,99
 342 841 342 841 352 841 c 2,0,-1
754 798 m 1,100,101
 795 793 795 793 795 765 c 1,102,103
 791 744 791 744 766 675 c 1,104,-1
 768 675 l 1,105,106
 830 697 830 697 854 697 c 0,107,108
 882 697 882 697 897 646 c 1,109,110
 897 630 897 630 795 564 c 1,111,112
 646 450 646 450 643 445 c 1,113,114
 645 445 645 445 645 443 c 1,115,116
 680 457 680 457 700 462 c 1,117,118
 729 450 729 450 729 429 c 0,119,120
 729 414 729 414 672 396 c 1,121,122
 629 359 629 359 610 323 c 1,123,-1
 614 323 l 1,124,125
 661 357 661 357 692 357 c 0,126,127
 743 357 743 357 748 265 c 1,128,-1
 748 245 l 2,129,130
 748 50 748 50 659 -13 c 1,131,132
 630 -42 630 -42 614 -46 c 1,133,134
 606 -43 606 -43 602 -36 c 1,135,136
 692 42 692 42 692 210 c 2,137,-1
 692 284 l 2,138,139
 692 311 692 311 678 318 c 1,140,-1
 664 318 l 2,141,142
 615 318 615 318 567 196 c 0,143,144
 564 183 564 183 549 171 c 1,145,-1
 543 171 l 2,146,147
 524 171 524 171 516 218 c 1,148,-1
 516 224 l 2,149,150
 516 241 516 241 575 312 c 1,151,152
 616 369 616 369 623 394 c 1,153,-1
 623 396 l 1,154,155
 608 390 608 390 573 384 c 1,156,157
 561 387 561 387 561 394 c 0,158,159
 561 430 561 430 608 439 c 1,160,161
 656 471 656 471 829 648 c 1,162,-1
 829 652 l 2,163,164
 829 656 829 656 825 656 c 0,165,166
 811 656 811 656 743 624 c 1,167,168
 721 639 721 639 721 650 c 1,169,170
 737 686 737 686 737 753 c 1,171,-1
 733 755 l 1,172,-1
 727 755 l 2,173,174
 721 753 721 753 700 726 c 1,175,-1
 698 726 l 1,176,177
 688 737 688 737 688 742 c 0,178,179
 714 798 714 798 754 798 c 1,100,101
389 339 m 2,180,-1
 389 337 l 2,181,182
 389 334 389 334 397 329 c 1,183,-1
 414 329 l 2,184,185
 463 329 463 329 502 450 c 1,186,-1
 502 470 l 2,187,188
 502 493 502 493 496 493 c 2,189,-1
 492 493 l 1,190,191
 389 390 389 390 389 339 c 2,180,-1
EndSplineSet
EndChar

